<?xml version="1.0" encoding="utf-8"?>
<!-- Generator: Adobe Illustrator 16.0.0, SVG Export Plug-In . SVG Version: 6.00 Build 0)  -->
<!DOCTYPE svg PUBLIC "-//W3C//DTD SVG 1.1//EN" "http://www.w3.org/Graphics/SVG/1.1/DTD/svg11.dtd">
<svg version="1.1" id="Layer_1" xmlns="http://www.w3.org/2000/svg" xmlns:xlink="http://www.w3.org/1999/xlink" x="0px" y="0px"
	 width="841.89px" height="589.091px" viewBox="0 0 841.89 589.091" enable-background="new 0 0 841.89 589.091"
	 xml:space="preserve">
<g>
	<g>
		<g>
			<path fill="#ECE70C" d="M281.553,272.478c-3.412,0-5.796-0.935-8.086-3.225l3.365-3.318c1.168,1.168,2.29,2.01,4.721,2.01
				c3.738,0,6.028-2.29,6.028-6.637V238.92h5.048v22.762C292.629,268.599,287.675,272.478,281.553,272.478z"/>
			<path fill="#ECE70C" d="M320.395,268.926c-2.29,2.29-5.234,3.552-8.787,3.552c-3.552,0-6.449-1.262-8.739-3.552
				c-3.272-3.271-3.226-6.964-3.226-13.367s-0.047-10.096,3.226-13.367c2.29-2.29,5.188-3.552,8.739-3.552
				c3.553,0,6.497,1.262,8.787,3.552c3.271,3.271,3.178,6.964,3.178,13.367S323.666,265.654,320.395,268.926z M316.562,245.229
				c-1.168-1.262-2.991-2.057-4.954-2.057s-3.785,0.795-4.954,2.057c-1.636,1.776-1.963,3.646-1.963,10.329
				s0.327,8.553,1.963,10.329c1.169,1.262,2.991,2.057,4.954,2.057s3.786-0.795,4.954-2.057c1.637-1.776,1.964-3.646,1.964-10.329
				S318.198,247.006,316.562,245.229z"/>
			<path fill="#ECE70C" d="M349.423,272.197l-7.011-14.021h-6.31v14.021h-5.048V238.92h12.899c6.31,0,10.329,4.066,10.329,9.722
				c0,4.768-2.897,7.805-6.637,8.833l7.665,14.723H349.423z M343.58,243.453h-7.478v10.423h7.478c3.365,0,5.655-1.916,5.655-5.188
				S346.945,243.453,343.58,243.453z"/>
			<path fill="#ECE70C" d="M382.097,272.197l-15.377-23.416v23.416h-5.047V238.92h4.627l15.376,23.369V238.92h5.048v33.277H382.097z
				"/>
			<path fill="#ECE70C" d="M414.537,272.197l-2.29-6.684h-13.133l-2.291,6.684h-5.374l12.198-33.277h4.066l12.198,33.277H414.537z
				 M405.797,246.444l-5.188,14.77h10.235L405.797,246.444z"/>
			<path fill="#ECE70C" d="M444.92,269.065c-2.104,2.104-5.141,3.132-8.6,3.132h-11.684V238.92h11.684
				c3.459,0,6.496,1.028,8.6,3.132c3.599,3.599,3.365,8.459,3.365,13.273C448.285,260.139,448.519,265.467,444.92,269.065z
				 M441.462,245.697c-1.402-1.543-3.272-2.244-5.655-2.244h-6.123v24.211h6.123c2.383,0,4.253-0.701,5.655-2.244
				c1.729-1.916,1.775-5.515,1.775-10.095S443.19,247.613,441.462,245.697z"/>
			<path fill="#ECE70C" d="M474.416,272.197l-2.29-6.684h-13.134l-2.29,6.684h-5.375l12.198-33.277h4.066l12.198,33.277H474.416z
				 M465.676,246.444l-5.188,14.77h10.235L465.676,246.444z"/>
			<path fill="#ECE70C" d="M493.349,272.478c-5.001,0-8.6-1.168-11.777-4.394l3.364-3.318c2.431,2.431,5.095,3.179,8.507,3.179
				c4.346,0,6.87-1.87,6.87-5.095c0-1.449-0.421-2.664-1.309-3.458c-0.842-0.795-1.683-1.122-3.646-1.402l-3.926-0.562
				c-2.711-0.373-4.861-1.309-6.31-2.664c-1.636-1.542-2.431-3.646-2.431-6.355c0-5.796,4.206-9.769,11.124-9.769
				c4.393,0,7.478,1.122,10.328,3.786l-3.225,3.178c-2.057-1.963-4.439-2.57-7.244-2.57c-3.926,0-6.076,2.243-6.076,5.188
				c0,1.215,0.374,2.29,1.263,3.085c0.841,0.748,2.196,1.309,3.738,1.542l3.786,0.562c3.084,0.467,4.813,1.215,6.216,2.477
				c1.823,1.589,2.711,3.973,2.711,6.824C505.313,268.832,500.313,272.478,493.349,272.478z"/>
			<path fill="#ECE70C" d="M543.597,269.065c-2.104,2.104-5.142,3.132-8.6,3.132h-11.685V238.92h11.685
				c3.458,0,6.496,1.028,8.6,3.132c3.599,3.599,3.365,8.459,3.365,13.273C546.962,260.139,547.195,265.467,543.597,269.065z
				 M540.138,245.697c-1.401-1.543-3.271-2.244-5.655-2.244h-6.122v24.211h6.122c2.384,0,4.254-0.701,5.655-2.244
				c1.729-1.916,1.776-5.515,1.776-10.095S541.867,247.613,540.138,245.697z"/>
			<path fill="#ECE70C" d="M554.443,272.197V238.92h21.266v4.533h-16.218v9.722h13.834v4.487h-13.834v10.002h16.218v4.533H554.443z"
				/>
		</g>
	</g>
	<g>
		<g>
			<path fill="#ECE70C" d="M277.346,327.568v-44.369h30.162v9.721h-19.257v7.416h16.452v9.722h-16.452v7.789h19.257v9.722H277.346z"
				/>
			<path fill="#ECE70C" d="M315.23,327.568v-44.369h10.905v34.647h18.633v9.722H315.23z"/>
			<path fill="#ECE70C" d="M351.121,327.568v-44.369h30.162v9.721h-19.257v7.416h16.452v9.722h-16.452v7.789h19.257v9.722H351.121z"
				/>
			<path fill="#ECE70C" d="M404.398,327.942c-5.172,0-9.099-1.745-12.339-4.985c-4.674-4.674-4.486-10.905-4.486-17.573
				s-0.188-12.899,4.486-17.573c3.24-3.241,7.167-4.985,12.339-4.985c8.413,0,15.205,4.674,16.825,14.457h-11.092
				c-0.686-2.492-2.057-4.736-5.671-4.736c-1.994,0-3.49,0.811-4.3,1.87c-0.997,1.309-1.683,2.866-1.683,10.968
				c0,8.101,0.686,9.659,1.683,10.968c0.81,1.06,2.306,1.869,4.3,1.869c3.614,0,4.985-2.243,5.671-4.736h11.092
				C419.604,323.269,412.812,327.942,404.398,327.942z"/>
			<path fill="#ECE70C" d="M444.901,292.92v34.648h-10.905V292.92h-10.905v-9.721h32.716v9.721H444.901z"/>
			<path fill="#ECE70C" d="M484.594,327.568l-7.853-16.514h-3.677v16.514h-10.905v-44.369h17.573
				c9.847,0,15.144,6.979,15.144,14.271c0,6.044-3.739,9.846-7.229,11.591l9.597,18.508H484.594z M479.234,292.982h-6.17v8.974h6.17
				c2.991,0,4.736-2.181,4.736-4.486S482.226,292.982,479.234,292.982z"/>
			<path fill="#ECE70C" d="M530.642,322.957c-3.241,3.24-6.979,4.985-12.401,4.985s-9.16-1.745-12.401-4.985
				c-4.674-4.674-4.486-10.905-4.486-17.573s-0.188-12.899,4.486-17.573c3.241-3.241,6.979-4.985,12.401-4.985
				s9.16,1.744,12.401,4.985c4.674,4.674,4.486,10.905,4.486,17.573S535.315,318.283,530.642,322.957z M522.603,294.479
				c-0.811-1.06-2.368-1.933-4.362-1.933s-3.552,0.873-4.362,1.933c-0.997,1.309-1.62,2.804-1.62,10.905
				c0,8.101,0.623,9.534,1.62,10.843c0.811,1.06,2.368,1.994,4.362,1.994s3.552-0.935,4.362-1.994
				c0.997-1.309,1.62-2.742,1.62-10.843C524.223,297.282,523.6,295.787,522.603,294.479z"/>
			<path fill="#ECE70C" d="M560.613,292.92v34.648h-10.905V292.92h-10.906v-9.721h32.717v9.721H560.613z"/>
			<path fill="#ECE70C" d="M577.872,327.568v-44.369h30.161v9.721h-19.256v7.416h16.451v9.722h-16.451v7.789h19.256v9.722H577.872z"
				/>
			<path fill="#ECE70C" d="M631.148,327.942c-5.172,0-9.098-1.745-12.339-4.985c-4.674-4.674-4.486-10.905-4.486-17.573
				s-0.188-12.899,4.486-17.573c3.241-3.241,7.167-4.985,12.339-4.985c8.413,0,15.205,4.674,16.826,14.457h-11.093
				c-0.686-2.492-2.057-4.736-5.671-4.736c-1.994,0-3.489,0.811-4.3,1.87c-0.997,1.309-1.683,2.866-1.683,10.968
				c0,8.101,0.686,9.659,1.683,10.968c0.811,1.06,2.306,1.869,4.3,1.869c3.614,0,4.985-2.243,5.671-4.736h11.093
				C646.354,323.269,639.562,327.942,631.148,327.942z"/>
			<path fill="#ECE70C" d="M678.817,327.568l-14.208-22.31v22.31h-10.905v-44.369h9.534l14.208,22.309v-22.309h10.905v44.369
				H678.817z"/>
			<path fill="#ECE70C" d="M697.321,327.568v-44.369h10.906v44.369H697.321z"/>
			<path fill="#ECE70C" d="M742.001,327.568l-2.057-6.605h-13.647l-2.181,6.605h-11.404l16.14-44.369h8.413l16.141,44.369H742.001z
				 M733.339,300.024l-3.988,11.84h7.728L733.339,300.024z"/>
		</g>
	</g>
	<g>
		<path fill="#ECE70C" d="M119.218,372.1l-30.733-17.793l30.733-17.795V372.1z M121.734,252.398v-35.587l30.736,17.794
			L121.734,252.398z M121.734,292.3v-35.588l30.736,17.793L121.734,292.3z M121.734,332.199v-35.586l30.736,17.793L121.734,332.199z
			 M121.734,336.512l30.736,17.795L121.734,372.1V336.512z M153.727,236.762v35.587l-30.731-17.793L153.727,236.762z
			 M153.727,312.248l-30.731-17.793l30.731-17.793V312.248z M153.727,352.15l-30.731-17.795l30.731-17.793V352.15z"/>
		<path fill="#ECE70C" d="M165.948,292.479v-35.587l30.735,17.794L165.948,292.479z M165.948,332.38v-35.588l30.735,17.794
			L165.948,332.38z M197.939,272.529l-30.731-17.794l30.731-17.794V272.529z M197.939,276.843v35.586l-30.731-17.793
			L197.939,276.843z M197.939,352.328l-30.731-17.793l30.731-17.793V352.328z M231.373,254.735l-30.917,17.794v-35.588
			L231.373,254.735z M231.373,294.636l-30.917,17.793v-35.586L231.373,294.636z M200.456,316.742l30.917,17.793l-30.917,17.793
			V316.742z M201.715,234.785l30.914-17.794v35.587L201.715,234.785z M232.629,372.279l-30.914-17.793l30.914-17.793V372.279z"/>
	</g>
	<g>
		<g>
			<path fill="#ECE70C" d="M278.594,349.444v8.396h9.998v2.179h-9.998v10.062h-2.436v-22.814h14.164v2.179H278.594z"/>
			<path fill="#ECE70C" d="M294.744,370.08v-22.814h14.164v2.179H297.18v8.043h9.998v2.179h-9.998v8.235h11.729v2.179H294.744z"/>
			<path fill="#ECE70C" d="M321.598,370.272c-4.614,0-7.947-3.173-7.947-7.723v-15.284h2.436v15.092
				c0,3.461,2.179,5.736,5.512,5.736c3.332,0,5.543-2.275,5.543-5.736v-15.092h2.436v15.284
				C329.576,367.1,326.212,370.272,321.598,370.272z"/>
			<path fill="#ECE70C" d="M344.35,360.691h-6.057v9.389h-2.436v-22.814h8.492c4.165,0,7.05,2.595,7.05,6.696
				S348.515,360.691,344.35,360.691z M344.125,349.444h-5.832v9.068h5.832c2.852,0,4.839-1.538,4.839-4.551
				C348.964,350.95,346.977,349.444,344.125,349.444z"/>
		</g>
	</g>
</g>
</svg>
