<?xml version="1.0" encoding="utf-8"?>
<!-- Generator: Adobe Illustrator 16.0.0, SVG Export Plug-In . SVG Version: 6.00 Build 0)  -->
<!DOCTYPE svg PUBLIC "-//W3C//DTD SVG 1.1//EN" "http://www.w3.org/Graphics/SVG/1.1/DTD/svg11.dtd">
<svg version="1.1" id="Layer_1" xmlns="http://www.w3.org/2000/svg" xmlns:xlink="http://www.w3.org/1999/xlink" x="0px" y="0px"
	 width="841.89px" height="589.091px" viewBox="0 0 841.89 589.091" enable-background="new 0 0 841.89 589.091"
	 xml:space="preserve">
<g>
	<g>
		<g>
			<path fill="#ECE70C" d="M246.855,427.219c-4.062,0-6.898-1.113-9.625-3.838l4.006-3.951c1.391,1.391,2.727,2.393,5.619,2.393
				c4.45,0,7.177-2.727,7.177-7.9v-26.648h6.009v27.094C260.041,422.602,254.144,427.219,246.855,427.219z"/>
			<path fill="#ECE70C" d="M293.089,422.991c-2.727,2.727-6.231,4.229-10.459,4.229c-4.229,0-7.678-1.502-10.403-4.229
				c-3.895-3.895-3.839-8.289-3.839-15.91c0-7.623-0.056-12.018,3.839-15.912c2.726-2.727,6.175-4.229,10.403-4.229
				c4.228,0,7.732,1.502,10.459,4.229c3.895,3.895,3.783,8.289,3.783,15.912C296.872,414.702,296.983,419.096,293.089,422.991z
				 M288.526,394.786c-1.391-1.502-3.561-2.449-5.896-2.449c-2.337,0-4.507,0.947-5.897,2.449
				c-1.947,2.113-2.337,4.338-2.337,12.295c0,7.955,0.39,10.18,2.337,12.295c1.391,1.502,3.561,2.447,5.897,2.447
				c2.336,0,4.506-0.945,5.896-2.447c1.947-2.115,2.337-4.34,2.337-12.295C290.863,399.124,290.474,396.899,288.526,394.786z"/>
			<path fill="#ECE70C" d="M327.64,426.885l-8.346-16.689h-7.511v16.689h-6.008v-39.611h15.354c7.511,0,12.295,4.84,12.295,11.572
				c0,5.674-3.449,9.291-7.899,10.516l9.124,17.523H327.64z M320.685,392.67h-8.901v12.406h8.901c4.006,0,6.732-2.281,6.732-6.176
				C327.417,395.008,324.69,392.67,320.685,392.67z"/>
			<path fill="#ECE70C" d="M366.529,426.885l-18.304-27.873v27.873h-6.008v-39.611h5.508l18.303,27.816v-27.816h6.009v39.611
				H366.529z"/>
			<path fill="#ECE70C" d="M405.142,426.885l-2.727-7.955h-15.633l-2.727,7.955h-6.397l14.521-39.611h4.84l14.521,39.611H405.142z
				 M394.738,396.231l-6.176,17.58h12.184L394.738,396.231z"/>
			<path fill="#ECE70C" d="M441.306,423.159c-2.504,2.502-6.12,3.727-10.237,3.727H417.16v-39.611h13.908
				c4.117,0,7.733,1.225,10.237,3.729c4.283,4.283,4.005,10.068,4.005,15.799S445.589,418.874,441.306,423.159z M437.188,395.34
				c-1.669-1.834-3.895-2.67-6.731-2.67h-7.288v28.818h7.288c2.837,0,5.063-0.834,6.731-2.67c2.059-2.281,2.114-6.564,2.114-12.018
				C439.303,401.35,439.247,397.622,437.188,395.34z"/>
			<path fill="#ECE70C" d="M476.412,426.885l-2.726-7.955h-15.633l-2.727,7.955h-6.397l14.521-39.611h4.84l14.521,39.611H476.412z
				 M466.009,396.231l-6.175,17.58h12.184L466.009,396.231z"/>
			<path fill="#ECE70C" d="M498.946,427.219c-5.952,0-10.236-1.391-14.02-5.229l4.006-3.951c2.893,2.893,6.063,3.783,10.125,3.783
				c5.174,0,8.179-2.225,8.179-6.064c0-1.725-0.501-3.17-1.559-4.117c-1.001-0.945-2.002-1.334-4.339-1.668l-4.674-0.668
				c-3.227-0.445-5.785-1.557-7.51-3.172c-1.947-1.836-2.894-4.338-2.894-7.564c0-6.898,5.008-11.629,13.241-11.629
				c5.229,0,8.901,1.336,12.295,4.508l-3.839,3.783c-2.447-2.338-5.285-3.061-8.623-3.061c-4.673,0-7.232,2.67-7.232,6.176
				c0,1.445,0.445,2.725,1.502,3.672c1.002,0.889,2.615,1.557,4.451,1.836l4.506,0.666c3.672,0.557,5.73,1.447,7.399,2.949
				c2.17,1.893,3.227,4.729,3.227,8.123C513.188,422.879,507.236,427.219,498.946,427.219z"/>
			<path fill="#ECE70C" d="M558.755,423.159c-2.504,2.502-6.12,3.727-10.237,3.727h-13.908v-39.611h13.908
				c4.117,0,7.733,1.225,10.237,3.729c4.283,4.283,4.005,10.068,4.005,15.799S563.038,418.874,558.755,423.159z M554.638,395.34
				c-1.669-1.834-3.895-2.67-6.731-2.67h-7.288v28.818h7.288c2.837,0,5.063-0.834,6.731-2.67c2.059-2.281,2.114-6.564,2.114-12.018
				C556.752,401.35,556.696,397.622,554.638,395.34z"/>
			<path fill="#ECE70C" d="M571.663,426.885v-39.611h25.313v5.396h-19.305v11.572h16.467v5.34h-16.467v11.906h19.305v5.396H571.663z
				"/>
		</g>
	</g>
	<g>
		<g>
			<path fill="#ECE70C" d="M137.631,492.792v-52.813h35.9v11.572h-22.92v8.826h19.582v11.57h-19.582v9.271h22.92v11.572H137.631z"/>
			<path fill="#ECE70C" d="M182.724,492.792v-52.813h12.98v41.24h22.178v11.572H182.724z"/>
			<path fill="#ECE70C" d="M225.442,492.792v-52.813h35.899v11.572h-22.919v8.826h19.581v11.57h-19.581v9.271h22.919v11.572H225.442
				z"/>
			<path fill="#ECE70C" d="M288.854,493.237c-6.156,0-10.829-2.078-14.686-5.936c-5.563-5.563-5.341-12.98-5.341-20.916
				c0-7.938-0.223-15.354,5.341-20.916c3.856-3.857,8.529-5.936,14.686-5.936c10.014,0,18.099,5.564,20.027,17.209h-13.203
				c-0.815-2.967-2.447-5.637-6.75-5.637c-2.373,0-4.153,0.963-5.118,2.225c-1.187,1.559-2.002,3.412-2.002,13.055
				s0.815,11.496,2.002,13.055c0.965,1.26,2.745,2.225,5.118,2.225c4.303,0,5.935-2.67,6.75-5.637h13.203
				C306.953,487.672,298.868,493.237,288.854,493.237z"/>
			<path fill="#ECE70C" d="M337.063,451.551v41.24h-12.979v-41.24h-12.98v-11.572h38.94v11.572H337.063z"/>
			<path fill="#ECE70C" d="M384.308,492.792l-9.347-19.656h-4.376v19.656h-12.98v-52.813h20.917c11.72,0,18.024,8.309,18.024,16.986
				c0,7.195-4.45,11.719-8.604,13.797l11.423,22.029H384.308z M377.929,451.625h-7.344v10.68h7.344c3.56,0,5.637-2.596,5.637-5.34
				S381.488,451.625,377.929,451.625z"/>
			<path fill="#ECE70C" d="M439.117,487.301c-3.857,3.857-8.308,5.936-14.761,5.936s-10.903-2.078-14.761-5.936
				c-5.563-5.563-5.34-12.98-5.34-20.916c0-7.938-0.223-15.354,5.34-20.916c3.857-3.857,8.308-5.936,14.761-5.936
				s10.903,2.078,14.761,5.936c5.563,5.563,5.34,12.979,5.34,20.916C444.457,474.321,444.68,481.739,439.117,487.301z
				 M429.549,453.405c-0.965-1.262-2.818-2.299-5.192-2.299s-4.228,1.037-5.192,2.299c-1.187,1.559-1.928,3.338-1.928,12.98
				s0.741,11.348,1.928,12.906c0.965,1.26,2.818,2.373,5.192,2.373s4.228-1.113,5.192-2.373c1.187-1.559,1.928-3.264,1.928-12.906
				S430.735,454.963,429.549,453.405z"/>
			<path fill="#ECE70C" d="M474.79,451.551v41.24h-12.98v-41.24H448.83v-11.572h38.94v11.572H474.79z"/>
			<path fill="#ECE70C" d="M495.332,492.792v-52.813h35.899v11.572h-22.92v8.826h19.582v11.57h-19.582v9.271h22.92v11.572H495.332z"
				/>
			<path fill="#ECE70C" d="M558.744,493.237c-6.156,0-10.829-2.078-14.687-5.936c-5.563-5.563-5.34-12.98-5.34-20.916
				c0-7.938-0.223-15.354,5.34-20.916c3.857-3.857,8.53-5.936,14.687-5.936c10.014,0,18.099,5.564,20.026,17.209h-13.202
				c-0.816-2.967-2.448-5.637-6.75-5.637c-2.373,0-4.153,0.963-5.118,2.225c-1.187,1.559-2.003,3.412-2.003,13.055
				s0.816,11.496,2.003,13.055c0.965,1.26,2.745,2.225,5.118,2.225c4.302,0,5.934-2.67,6.75-5.637h13.202
				C576.843,487.672,568.758,493.237,558.744,493.237z"/>
			<path fill="#ECE70C" d="M615.482,492.792l-16.912-26.555v26.555h-12.979v-52.813h11.348l16.912,26.555v-26.555h12.98v52.813
				H615.482z"/>
			<path fill="#ECE70C" d="M637.507,492.792v-52.813h12.979v52.813H637.507z"/>
			<path fill="#ECE70C" d="M690.686,492.792l-2.447-7.863h-16.244l-2.597,7.863h-13.573l19.211-52.813h10.014l19.21,52.813H690.686z
				 M680.375,460.006l-4.747,14.094h9.198L680.375,460.006z"/>
		</g>
	</g>
	<g>
		<path fill="#ECE70C" d="M321.694,347.013l-59.68-34.55l59.68-34.552V347.013z M326.581,114.576V45.472l59.681,34.552
			L326.581,114.576z M326.581,192.055v-69.104l59.681,34.551L326.581,192.055z M326.581,269.535v-69.104l59.681,34.552
			L326.581,269.535z M326.581,277.91l59.681,34.552l-59.681,34.55V277.91z M388.704,84.212v69.104l-59.68-34.552L388.704,84.212z
			 M388.704,230.795l-59.68-34.552l59.68-34.552V230.795z M388.704,308.275l-59.68-34.553l59.68-34.551V308.275z"/>
		<path fill="#ECE70C" d="M412.437,192.404V123.3l59.68,34.552L412.437,192.404z M412.437,269.884V200.78l59.68,34.552
			L412.437,269.884z M474.559,153.665l-59.68-34.552l59.68-34.551V153.665z M474.559,162.04v69.104l-59.68-34.552L474.559,162.04z
			 M474.559,308.623l-59.68-34.551l59.68-34.551V308.623z M539.476,119.112l-60.03,34.552V84.561L539.476,119.112z M539.476,196.592
			l-60.03,34.552V162.04L539.476,196.592z M479.445,239.52l60.03,34.551l-60.03,34.551V239.52z M481.889,80.373l60.029-34.552
			v69.104L481.889,80.373z M541.918,347.362l-60.029-34.551l60.029-34.551V347.362z"/>
	</g>
	<g>
		<g>
			<path fill="#ECE70C" d="M377.558,518.825v9.994h11.902v2.594h-11.902v11.979h-2.898v-27.16h16.86v2.594H377.558z"/>
			<path fill="#ECE70C" d="M396.78,543.391v-27.16h16.861v2.594H399.68v9.574h11.902v2.594H399.68v9.805h13.962v2.594H396.78z"/>
			<path fill="#ECE70C" d="M428.744,543.62c-5.494,0-9.461-3.777-9.461-9.193v-18.195h2.899v17.967c0,4.119,2.594,6.828,6.562,6.828
				s6.6-2.709,6.6-6.828v-17.967h2.899v18.195C438.243,539.842,434.237,543.62,428.744,543.62z"/>
			<path fill="#ECE70C" d="M455.825,532.213h-7.21v11.178h-2.899v-27.16h10.109c4.959,0,8.393,3.09,8.393,7.973
				S460.784,532.213,455.825,532.213z M455.559,518.825h-6.943v10.795h6.943c3.395,0,5.76-1.832,5.76-5.416
				C461.318,520.618,458.953,518.825,455.559,518.825z"/>
		</g>
	</g>
</g>
</svg>
