<?xml version="1.0" encoding="utf-8"?>
<!-- Generator: Adobe Illustrator 16.0.0, SVG Export Plug-In . SVG Version: 6.00 Build 0)  -->
<!DOCTYPE svg PUBLIC "-//W3C//DTD SVG 1.1//EN" "http://www.w3.org/Graphics/SVG/1.1/DTD/svg11.dtd">
<svg version="1.1" id="Layer_1" xmlns="http://www.w3.org/2000/svg" xmlns:xlink="http://www.w3.org/1999/xlink" x="0px" y="0px"
	 width="841.89px" height="589.091px" viewBox="0 0 841.89 589.091" enable-background="new 0 0 841.89 589.091"
	 xml:space="preserve">
<g>
	<g>
		<g>
			<path d="M281.554,272.478c-3.412,0-5.797-0.934-8.086-3.225l3.365-3.318c1.168,1.168,2.289,2.01,4.721,2.01
				c3.738,0,6.027-2.289,6.027-6.637v-22.387h5.049v22.762C292.63,268.599,287.675,272.478,281.554,272.478z"/>
			<path d="M320.396,268.927c-2.291,2.289-5.234,3.551-8.787,3.551s-6.449-1.262-8.74-3.551c-3.271-3.271-3.225-6.965-3.225-13.367
				c0-6.404-0.047-10.096,3.225-13.367c2.291-2.291,5.188-3.553,8.74-3.553s6.496,1.262,8.787,3.553
				c3.271,3.271,3.178,6.963,3.178,13.367C323.573,261.962,323.667,265.655,320.396,268.927z M316.562,245.229
				c-1.168-1.262-2.99-2.057-4.953-2.057s-3.785,0.795-4.955,2.057c-1.635,1.777-1.963,3.646-1.963,10.33s0.328,8.553,1.963,10.328
				c1.17,1.262,2.992,2.057,4.955,2.057s3.785-0.795,4.953-2.057c1.637-1.775,1.965-3.645,1.965-10.328
				S318.198,247.007,316.562,245.229z"/>
			<path d="M349.423,272.198l-7.01-14.021h-6.311v14.021h-5.047v-33.277h12.898c6.311,0,10.33,4.066,10.33,9.721
				c0,4.768-2.898,7.805-6.637,8.834l7.664,14.723H349.423z M343.581,243.454h-7.479v10.422h7.479c3.365,0,5.654-1.916,5.654-5.188
				S346.946,243.454,343.581,243.454z"/>
			<path d="M382.097,272.198l-15.377-23.416v23.416h-5.047v-33.277h4.627l15.377,23.369v-23.369h5.047v33.277H382.097z"/>
			<path d="M414.538,272.198l-2.291-6.684h-13.133l-2.291,6.684h-5.373l12.197-33.277h4.066l12.199,33.277H414.538z
				 M405.798,246.444l-5.188,14.77h10.234L405.798,246.444z"/>
			<path d="M444.921,269.065c-2.104,2.104-5.141,3.133-8.6,3.133h-11.684v-33.277h11.684c3.459,0,6.496,1.027,8.6,3.131
				c3.598,3.6,3.365,8.459,3.365,13.273S448.519,265.468,444.921,269.065z M441.462,245.698c-1.402-1.543-3.271-2.244-5.654-2.244
				h-6.123v24.211h6.123c2.383,0,4.252-0.701,5.654-2.244c1.729-1.916,1.775-5.516,1.775-10.096S443.19,247.614,441.462,245.698z"/>
			<path d="M474.417,272.198l-2.291-6.684h-13.133l-2.291,6.684h-5.375l12.199-33.277h4.066l12.197,33.277H474.417z
				 M465.677,246.444l-5.188,14.77h10.234L465.677,246.444z"/>
			<path d="M493.349,272.478c-5,0-8.6-1.168-11.777-4.393l3.365-3.318c2.43,2.43,5.094,3.178,8.506,3.178
				c4.346,0,6.871-1.869,6.871-5.094c0-1.449-0.422-2.664-1.309-3.459c-0.842-0.795-1.684-1.121-3.646-1.402l-3.926-0.561
				c-2.711-0.373-4.861-1.309-6.309-2.664c-1.637-1.543-2.432-3.646-2.432-6.355c0-5.797,4.207-9.77,11.125-9.77
				c4.393,0,7.477,1.123,10.328,3.787l-3.225,3.178c-2.057-1.963-4.439-2.57-7.244-2.57c-3.926,0-6.076,2.242-6.076,5.188
				c0,1.215,0.373,2.289,1.262,3.084c0.842,0.748,2.197,1.309,3.738,1.543l3.787,0.561c3.084,0.467,4.813,1.215,6.215,2.477
				c1.824,1.59,2.711,3.973,2.711,6.824C505.313,268.833,500.313,272.478,493.349,272.478z"/>
			<path d="M543.597,269.065c-2.104,2.104-5.141,3.133-8.6,3.133h-11.684v-33.277h11.684c3.459,0,6.496,1.027,8.6,3.131
				c3.6,3.6,3.365,8.459,3.365,13.273S547.196,265.468,543.597,269.065z M540.138,245.698c-1.4-1.543-3.271-2.244-5.654-2.244
				h-6.123v24.211h6.123c2.383,0,4.254-0.701,5.654-2.244c1.73-1.916,1.777-5.516,1.777-10.096S541.868,247.614,540.138,245.698z"/>
			<path d="M554.444,272.198v-33.277h21.266v4.533h-16.219v9.721h13.834v4.488h-13.834v10.002h16.219v4.533H554.444z"/>
		</g>
	</g>
	<g>
		<g>
			<path d="M277.347,327.569V283.2h30.162v9.721h-19.258v7.416h16.453v9.721h-16.453v7.789h19.258v9.723H277.347z"/>
			<path d="M315.231,327.569V283.2h10.904v34.646h18.633v9.723H315.231z"/>
			<path d="M351.122,327.569V283.2h30.162v9.721h-19.258v7.416h16.453v9.721h-16.453v7.789h19.258v9.723H351.122z"/>
			<path d="M404.399,327.942c-5.172,0-9.1-1.744-12.34-4.984c-4.674-4.674-4.486-10.906-4.486-17.574s-0.188-12.898,4.486-17.572
				c3.24-3.242,7.168-4.986,12.34-4.986c8.412,0,15.205,4.674,16.824,14.457h-11.092c-0.686-2.492-2.057-4.736-5.67-4.736
				c-1.994,0-3.49,0.811-4.301,1.871c-0.996,1.309-1.682,2.865-1.682,10.967s0.686,9.66,1.682,10.969
				c0.811,1.059,2.307,1.869,4.301,1.869c3.613,0,4.984-2.244,5.67-4.736h11.092C419.604,323.269,412.812,327.942,404.399,327.942z"
				/>
			<path d="M444.901,292.921v34.648h-10.904v-34.648h-10.906V283.2h32.717v9.721H444.901z"/>
			<path d="M484.595,327.569l-7.854-16.514h-3.676v16.514h-10.906V283.2h17.574c9.846,0,15.143,6.979,15.143,14.27
				c0,6.045-3.738,9.846-7.229,11.592l9.598,18.508H484.595z M479.235,292.983h-6.17v8.973h6.17c2.99,0,4.736-2.18,4.736-4.486
				C483.972,295.165,482.226,292.983,479.235,292.983z"/>
			<path d="M530.642,322.958c-3.24,3.24-6.979,4.984-12.4,4.984s-9.16-1.744-12.402-4.984c-4.674-4.674-4.486-10.906-4.486-17.574
				s-0.188-12.898,4.486-17.572c3.242-3.242,6.98-4.986,12.402-4.986s9.16,1.744,12.4,4.986c4.674,4.674,4.486,10.904,4.486,17.572
				S535.315,318.284,530.642,322.958z M522.603,294.479c-0.811-1.061-2.367-1.934-4.361-1.934s-3.553,0.873-4.363,1.934
				c-0.996,1.309-1.619,2.803-1.619,10.904s0.623,9.535,1.619,10.844c0.811,1.059,2.369,1.994,4.363,1.994s3.551-0.936,4.361-1.994
				c0.998-1.309,1.621-2.742,1.621-10.844S523.601,295.788,522.603,294.479z"/>
			<path d="M560.614,292.921v34.648h-10.906v-34.648h-10.906V283.2h32.717v9.721H560.614z"/>
			<path d="M577.872,327.569V283.2h30.162v9.721h-19.256v7.416h16.451v9.721h-16.451v7.789h19.256v9.723H577.872z"/>
			<path d="M631.149,327.942c-5.172,0-9.098-1.744-12.34-4.984c-4.674-4.674-4.486-10.906-4.486-17.574s-0.188-12.898,4.486-17.572
				c3.242-3.242,7.168-4.986,12.34-4.986c8.412,0,15.205,4.674,16.826,14.457h-11.094c-0.686-2.492-2.057-4.736-5.67-4.736
				c-1.994,0-3.49,0.811-4.301,1.871c-0.996,1.309-1.682,2.865-1.682,10.967s0.686,9.66,1.682,10.969
				c0.811,1.059,2.307,1.869,4.301,1.869c3.613,0,4.984-2.244,5.67-4.736h11.094C646.354,323.269,639.562,327.942,631.149,327.942z"
				/>
			<path d="M678.817,327.569l-14.207-22.311v22.311h-10.906V283.2h9.535l14.207,22.309V283.2h10.906v44.369H678.817z"/>
			<path d="M697.321,327.569V283.2h10.906v44.369H697.321z"/>
			<path d="M742.001,327.569l-2.057-6.605h-13.646l-2.182,6.605h-11.404l16.141-44.369h8.412l16.141,44.369H742.001z
				 M733.339,300.024l-3.988,11.84h7.729L733.339,300.024z"/>
		</g>
	</g>
	<g>
		<path d="M119.218,372.101l-30.734-17.793l30.734-17.795V372.101z M121.735,252.399v-35.588l30.734,17.795L121.735,252.399z
			 M121.735,292.3v-35.588l30.734,17.793L121.735,292.3z M121.735,332.2v-35.586l30.734,17.793L121.735,332.2z M121.735,336.513
			l30.734,17.795l-30.734,17.793V336.513z M153.726,236.763v35.586l-30.73-17.793L153.726,236.763z M153.726,312.249l-30.73-17.793
			l30.73-17.793V312.249z M153.726,352.151l-30.73-17.795l30.73-17.793V352.151z"/>
		<path d="M165.948,292.479v-35.588l30.736,17.795L165.948,292.479z M165.948,332.38v-35.588l30.736,17.795L165.948,332.38z
			 M197.94,272.53l-30.732-17.795l30.732-17.793V272.53z M197.94,276.843v35.586l-30.732-17.793L197.94,276.843z M197.94,352.329
			l-30.732-17.793l30.732-17.793V352.329z M231.374,254.735l-30.918,17.795v-35.588L231.374,254.735z M231.374,294.636
			l-30.918,17.793v-35.586L231.374,294.636z M200.456,316.743l30.918,17.793l-30.918,17.793V316.743z M201.716,234.786
			l30.914-17.795v35.588L201.716,234.786z M232.63,372.28l-30.914-17.793l30.914-17.793V372.28z"/>
	</g>
	<g>
		<g>
			<path d="M278.595,349.444v8.396h9.998v2.178h-9.998v10.063h-2.436v-22.814h14.164v2.178H278.595z"/>
			<path d="M294.745,370.081v-22.814h14.164v2.178h-11.729v8.043h9.998v2.18h-9.998v8.234h11.729v2.18H294.745z"/>
			<path d="M321.599,370.272c-4.615,0-7.947-3.172-7.947-7.723v-15.283h2.436v15.092c0,3.461,2.178,5.736,5.512,5.736
				c3.332,0,5.543-2.275,5.543-5.736v-15.092h2.436v15.283C329.577,367.101,326.212,370.272,321.599,370.272z"/>
			<path d="M344.351,360.692h-6.057v9.389h-2.436v-22.814h8.492c4.164,0,7.049,2.594,7.049,6.695S348.515,360.692,344.351,360.692z
				 M344.126,349.444h-5.832v9.068h5.832c2.852,0,4.838-1.537,4.838-4.551C348.964,350.95,346.978,349.444,344.126,349.444z"/>
		</g>
	</g>
</g>
</svg>
