<?xml version="1.0" encoding="UTF-8" standalone="no"?>
<!-- Created with Inkscape (http://www.inkscape.org/) -->

<svg
   xmlns:dc="http://purl.org/dc/elements/1.1/"
   xmlns:cc="http://creativecommons.org/ns#"
   xmlns:rdf="http://www.w3.org/1999/02/22-rdf-syntax-ns#"
   xmlns:svg="http://www.w3.org/2000/svg"
   xmlns="http://www.w3.org/2000/svg"
   xmlns:sodipodi="http://sodipodi.sourceforge.net/DTD/sodipodi-0.dtd"
   xmlns:inkscape="http://www.inkscape.org/namespaces/inkscape"
   id="svg2"
   version="1.1"
   inkscape:version="0.48.4 r9939"
   width="1052.3625"
   height="1488.1875"
   xml:space="preserve"
   sodipodi:docname="flyer.ai"><metadata
     id="metadata8"><rdf:RDF><cc:Work
         rdf:about=""><dc:format>image/svg+xml</dc:format><dc:type
           rdf:resource="http://purl.org/dc/dcmitype/StillImage" /><dc:title></dc:title></cc:Work></rdf:RDF></metadata><defs
     id="defs6"><clipPath
       clipPathUnits="userSpaceOnUse"
       id="clipPath18"><path
         d="m 0,1190.55 841.89,0 L 841.89,0 0,0 0,1190.55 z"
         id="path20" /></clipPath><clipPath
       clipPathUnits="userSpaceOnUse"
       id="clipPath26"><path
         d="m -2.55273,917.493 848.27373,0 0,-917.493 -848.27373,0 0,917.493 z"
         id="path28" /></clipPath><clipPath
       clipPathUnits="userSpaceOnUse"
       id="clipPath102"><path
         d="m -3.83008,1190.55 846.99708,0 0,-56.99 -846.99708,0 0,56.99 z"
         id="path104" /></clipPath><clipPath
       clipPathUnits="userSpaceOnUse"
       id="clipPath186"><path
         d="m 0,1190.55 841.89,0 L 841.89,0 0,0 0,1190.55 z"
         id="path188" /></clipPath><clipPath
       clipPathUnits="userSpaceOnUse"
       id="clipPath330"><path
         d="m 0,1190.55 841.89,0 L 841.89,0 0,0 0,1190.55 z"
         id="path332" /></clipPath><clipPath
       clipPathUnits="userSpaceOnUse"
       id="clipPath348"><path
         d="m 0,1190.55 841.89,0 L 841.89,0 0,0 0,1190.55 z"
         id="path350" /></clipPath></defs><sodipodi:namedview
     pagecolor="#ffffff"
     bordercolor="#666666"
     borderopacity="1"
     objecttolerance="10"
     gridtolerance="10"
     guidetolerance="10"
     inkscape:pageopacity="0"
     inkscape:pageshadow="2"
     inkscape:window-width="1366"
     inkscape:window-height="744"
     id="namedview4"
     showgrid="false"
     inkscape:zoom="0.89707621"
     inkscape:cx="674.7828"
     inkscape:cy="999.61802"
     inkscape:window-x="0"
     inkscape:window-y="24"
     inkscape:window-maximized="1"
     inkscape:current-layer="g10" /><g
     id="g10"
     inkscape:groupmode="layer"
     inkscape:label="flyer"
     transform="matrix(1.25,0,0,-1.25,0,1488.1875)"><path
       d="m 0,0.001 841.89,0 0,1190.549 L 0,1190.55 0,0.001 z"
       style="fill:#424242;fill-opacity:1;fill-rule:nonzero;stroke:none"
       id="path12" /><g
       id="g14"><g
         id="g16"
         clip-path="url(#clipPath18)"><g
           id="g22"><g
             id="g24" /><g
             id="g30"><g
               clip-path="url(#clipPath26)"
               opacity="0.300003"
               id="g32"><g
                 transform="translate(51.6602,891.0244)"
                 id="g34"><path
                   d="M 0,0 26.469,26.469 52.938,0"
                   style="fill:#313131;fill-opacity:1;fill-rule:nonzero;stroke:none"
                   id="path36" /></g><g
                 transform="translate(104.5977,891.0244)"
                 id="g38"><path
                   d="M 0,0 26.469,26.469 52.938,0"
                   style="fill:#313131;fill-opacity:1;fill-rule:nonzero;stroke:none"
                   id="path40" /></g><g
                 transform="translate(157.5352,891.0244)"
                 id="g42"><path
                   d="M 0,0 26.469,26.469 52.938,0"
                   style="fill:#313131;fill-opacity:1;fill-rule:nonzero;stroke:none"
                   id="path44" /></g><g
                 transform="translate(210.4727,891.0244)"
                 id="g46"><path
                   d="M 0,0 26.469,26.469 52.938,0"
                   style="fill:#313131;fill-opacity:1;fill-rule:nonzero;stroke:none"
                   id="path48" /></g><g
                 transform="translate(263.4102,891.0244)"
                 id="g50"><path
                   d="M 0,0 26.469,26.469 52.938,0"
                   style="fill:#313131;fill-opacity:1;fill-rule:nonzero;stroke:none"
                   id="path52" /></g><g
                 transform="translate(316.3477,891.0244)"
                 id="g54"><path
                   d="M 0,0 26.469,26.469 52.938,0"
                   style="fill:#313131;fill-opacity:1;fill-rule:nonzero;stroke:none"
                   id="path56" /></g><g
                 transform="translate(369.2852,891.0244)"
                 id="g58"><path
                   d="M 0,0 26.469,26.469 52.937,0"
                   style="fill:#313131;fill-opacity:1;fill-rule:nonzero;stroke:none"
                   id="path60" /></g><g
                 transform="translate(422.2217,891.0244)"
                 id="g62"><path
                   d="M 0,0 26.469,26.469 52.938,0"
                   style="fill:#313131;fill-opacity:1;fill-rule:nonzero;stroke:none"
                   id="path64" /></g><g
                 transform="translate(475.1592,891.0244)"
                 id="g66"><path
                   d="M 0,0 26.469,26.469 52.938,0"
                   style="fill:#313131;fill-opacity:1;fill-rule:nonzero;stroke:none"
                   id="path68" /></g><g
                 transform="translate(528.0967,891.0244)"
                 id="g70"><path
                   d="M 0,0 26.469,26.469 52.938,0"
                   style="fill:#313131;fill-opacity:1;fill-rule:nonzero;stroke:none"
                   id="path72" /></g><g
                 transform="translate(581.0342,891.0244)"
                 id="g74"><path
                   d="M 0,0 26.469,26.469 52.938,0"
                   style="fill:#313131;fill-opacity:1;fill-rule:nonzero;stroke:none"
                   id="path76" /></g><g
                 transform="translate(633.9717,891.0244)"
                 id="g78"><path
                   d="M 0,0 26.468,26.469 52.938,0"
                   style="fill:#313131;fill-opacity:1;fill-rule:nonzero;stroke:none"
                   id="path80" /></g><g
                 transform="translate(686.9092,891.0244)"
                 id="g82"><path
                   d="M 0,0 26.469,26.469 52.937,0"
                   style="fill:#313131;fill-opacity:1;fill-rule:nonzero;stroke:none"
                   id="path84" /></g><g
                 transform="translate(739.8457,891.0244)"
                 id="g86"><path
                   d="M 0,0 26.469,26.469 52.938,0"
                   style="fill:#313131;fill-opacity:1;fill-rule:nonzero;stroke:none"
                   id="path88" /></g><g
                 transform="translate(792.7832,891.0244)"
                 id="g90"><path
                   d="M 0,0 26.469,26.469 47.83,5.107 52.938,0"
                   style="fill:#313131;fill-opacity:1;fill-rule:nonzero;stroke:none"
                   id="path92" /></g><g
                 transform="translate(840.6133,896.1318)"
                 id="g94"><path
                   d="m 0,0 1.276,-896.132 -844.442,0 1.276,891.025 26.469,26.468 26.468,-26.468"
                   style="fill:#313131;fill-opacity:1;fill-rule:nonzero;stroke:none"
                   id="path96" /></g></g></g></g><g
           id="g98"><g
             id="g100" /><g
             id="g106"><g
               clip-path="url(#clipPath102)"
               opacity="0.300003"
               id="g108"><g
                 transform="translate(790.2305,1160.0244)"
                 id="g110"><path
                   d="M 0,0 -26.469,-26.469 -52.938,0"
                   style="fill:#313131;fill-opacity:1;fill-rule:nonzero;stroke:none"
                   id="path112" /></g><g
                 transform="translate(737.293,1160.0244)"
                 id="g114"><path
                   d="M 0,0 -26.469,-26.469 -52.938,0"
                   style="fill:#313131;fill-opacity:1;fill-rule:nonzero;stroke:none"
                   id="path116" /></g><g
                 transform="translate(684.3545,1160.0244)"
                 id="g118"><path
                   d="M 0,0 -26.469,-26.469 -52.937,0"
                   style="fill:#313131;fill-opacity:1;fill-rule:nonzero;stroke:none"
                   id="path120" /></g><g
                 transform="translate(631.418,1160.0244)"
                 id="g122"><path
                   d="M 0,0 -26.469,-26.469 -52.938,0"
                   style="fill:#313131;fill-opacity:1;fill-rule:nonzero;stroke:none"
                   id="path124" /></g><g
                 transform="translate(578.4805,1160.0244)"
                 id="g126"><path
                   d="M 0,0 -26.469,-26.469 -52.938,0"
                   style="fill:#313131;fill-opacity:1;fill-rule:nonzero;stroke:none"
                   id="path128" /></g><g
                 transform="translate(525.543,1160.0244)"
                 id="g130"><path
                   d="M 0,0 -26.468,-26.469 -52.937,0"
                   style="fill:#313131;fill-opacity:1;fill-rule:nonzero;stroke:none"
                   id="path132" /></g><g
                 transform="translate(472.6064,1160.0244)"
                 id="g134"><path
                   d="M 0,0 -26.47,-26.469 -52.938,0"
                   style="fill:#313131;fill-opacity:1;fill-rule:nonzero;stroke:none"
                   id="path136" /></g><g
                 transform="translate(419.6689,1160.0244)"
                 id="g138"><path
                   d="M 0,0 -26.469,-26.469 -52.938,0"
                   style="fill:#313131;fill-opacity:1;fill-rule:nonzero;stroke:none"
                   id="path140" /></g><g
                 transform="translate(366.7314,1160.0244)"
                 id="g142"><path
                   d="M 0,0 -26.469,-26.469 -52.938,0"
                   style="fill:#313131;fill-opacity:1;fill-rule:nonzero;stroke:none"
                   id="path144" /></g><g
                 transform="translate(313.7939,1160.0244)"
                 id="g146"><path
                   d="M 0,0 -26.469,-26.469 -52.938,0"
                   style="fill:#313131;fill-opacity:1;fill-rule:nonzero;stroke:none"
                   id="path148" /></g><g
                 transform="translate(260.8564,1160.0244)"
                 id="g150"><path
                   d="M 0,0 -26.469,-26.469 -52.938,0"
                   style="fill:#313131;fill-opacity:1;fill-rule:nonzero;stroke:none"
                   id="path152" /></g><g
                 transform="translate(207.9189,1160.0244)"
                 id="g154"><path
                   d="M 0,0 -26.468,-26.469 -52.938,0"
                   style="fill:#313131;fill-opacity:1;fill-rule:nonzero;stroke:none"
                   id="path156" /></g><g
                 transform="translate(154.9814,1160.0244)"
                 id="g158"><path
                   d="M 0,0 -26.469,-26.469 -52.937,0"
                   style="fill:#313131;fill-opacity:1;fill-rule:nonzero;stroke:none"
                   id="path160" /></g><g
                 transform="translate(102.0449,1160.0244)"
                 id="g162"><path
                   d="M 0,0 -26.469,-26.469 -52.938,0"
                   style="fill:#313131;fill-opacity:1;fill-rule:nonzero;stroke:none"
                   id="path164" /></g><g
                 transform="translate(49.1074,1160.0244)"
                 id="g166"><path
                   d="M 0,0 -26.469,-26.469 -47.83,-5.107 -52.938,0"
                   style="fill:#313131;fill-opacity:1;fill-rule:nonzero;stroke:none"
                   id="path168" /></g><g
                 transform="translate(1.2773,1154.917)"
                 id="g170"><path
                   d="m 0,0 -3.83,35.633 844.442,0 1.278,-30.526 -26.469,-26.468 -26.468,26.468"
                   style="fill:#313131;fill-opacity:1;fill-rule:nonzero;stroke:none"
                   id="path172" /></g></g></g></g></g></g><g
       id="g174"
       transform="translate(178.7754,978.6978)"><path
         d="M 0,0 -27.621,15.993 0,31.985 0,0 z M 0,35.862 -27.621,51.854 0,67.847 0,35.862 z M 0,103.708 0,71.724 -27.621,87.716 0,103.708 z M -28.754,14.055 -1.129,-1.938 -28.754,-17.93 l 0,31.985 z m 0,3.876 0,31.985 27.625,-15.992 -27.625,-15.993 z m 0,35.862 0,31.985 27.625,-15.992 -27.625,-15.993 z m 0,35.862 0,31.985 27.625,-15.993 -27.625,-15.992 z m -2.262,-107.585 -27.623,15.992 27.623,15.993 0,-31.985 z"
         style="fill:#ede82c;fill-opacity:1;fill-rule:nonzero;stroke:none"
         id="path176" /></g><g
       id="g178"
       transform="translate(249.6914,960.606)"><path
         d="M 0,0 -27.785,15.992 0,31.984 0,0 z M -27.785,123.578 0,139.57 0,107.585 -27.785,123.578 z m -1.131,-73.662 27.787,-15.993 -27.787,-15.992 0,31.985 z m 27.787,19.869 -27.787,-15.993 0,31.985 27.787,-15.992 z m 0,35.861 -27.787,-15.992 0,31.985 27.787,-15.993 z m -30.049,-87.715 -27.621,15.992 27.621,15.993 0,-31.985 z m 0,67.846 0,-31.985 -27.621,15.993 27.621,15.992 z m 0,3.877 -27.621,15.992 27.621,15.993 0,-31.985 z m -28.754,-53.793 0,31.985 27.625,-15.992 -27.625,-15.993 z m 0,35.862 0,31.985 27.625,-15.993 -27.625,-15.992 z"
         style="fill:#ede82c;fill-opacity:1;fill-rule:nonzero;stroke:none"
         id="path180" /></g><g
       id="g182"><g
         id="g184"
         clip-path="url(#clipPath186)"><g
           id="g190"
           transform="translate(293.6631,1050.3057)"><path
             d="m 0,0 c -3.066,0 -5.209,0.84 -7.268,2.898 l 3.025,2.983 C -3.192,4.831 -2.185,4.075 0,4.075 c 3.36,0 5.419,2.058 5.419,5.965 l 0,20.121 4.537,0 0,-20.457 C 9.956,3.486 5.503,0 0,0"
             style="fill:#ede82c;fill-opacity:1;fill-rule:nonzero;stroke:none"
             id="path192" /></g><g
           id="g194"
           transform="translate(325.1299,1074.7959)"><path
             d="m 0,0 c -1.051,1.134 -2.688,1.848 -4.453,1.848 -1.765,0 -3.402,-0.714 -4.453,-1.848 -1.47,-1.596 -1.764,-3.276 -1.764,-9.284 0,-6.007 0.294,-7.687 1.764,-9.283 1.051,-1.135 2.688,-1.849 4.453,-1.849 1.765,0 3.402,0.714 4.453,1.849 1.47,1.596 1.764,3.276 1.764,9.283 C 1.764,-3.276 1.47,-1.596 0,0 m 3.444,-21.298 c -2.058,-2.058 -4.705,-3.192 -7.897,-3.192 -3.193,0 -5.797,1.134 -7.856,3.192 -2.94,2.941 -2.898,6.259 -2.898,12.014 0,5.755 -0.042,9.074 2.898,12.014 2.059,2.059 4.663,3.193 7.856,3.193 3.192,0 5.839,-1.134 7.897,-3.193 2.941,-2.94 2.857,-6.259 2.857,-12.014 0,-5.755 0.084,-9.073 -2.857,-12.014"
             style="fill:#ede82c;fill-opacity:1;fill-rule:nonzero;stroke:none"
             id="path196" /></g><g
           id="g198"
           transform="translate(349.4131,1076.3921)"><path
             d="m 0,0 -6.722,0 0,-9.368 6.722,0 c 3.024,0 5.083,1.723 5.083,4.663 C 5.083,-1.764 3.024,0 0,0 m 5.251,-25.834 -6.302,12.602 -5.671,0 0,-12.602 -4.537,0 0,29.909 11.595,0 c 5.671,0 9.283,-3.655 9.283,-8.738 0,-4.284 -2.604,-7.015 -5.965,-7.939 l 6.89,-13.232 -5.293,0 z"
             style="fill:#ede82c;fill-opacity:1;fill-rule:nonzero;stroke:none"
             id="path200" /></g><g
           id="g202"
           transform="translate(384.0303,1050.5576)"><path
             d="m 0,0 -13.82,21.046 0,-21.046 -4.537,0 0,29.909 4.159,0 13.82,-21.003 0,21.003 4.537,0 L 4.159,0 0,0 z"
             style="fill:#ede82c;fill-opacity:1;fill-rule:nonzero;stroke:none"
             id="path204" /></g><g
           id="g206"
           transform="translate(405.332,1073.7036)"><path
             d="m 0,0 -4.663,-13.274 9.2,0 L 0,0 z m 7.855,-23.146 -2.058,6.007 -11.804,0 -2.058,-6.007 -4.831,0 10.963,29.909 3.656,0 10.964,-29.909 -4.832,0 z"
             style="fill:#ede82c;fill-opacity:1;fill-rule:nonzero;stroke:none"
             id="path208" /></g><g
           id="g210"
           transform="translate(437.3867,1074.376)"><path
             d="m 0,0 c -1.26,1.386 -2.94,2.016 -5.083,2.016 l -5.503,0 0,-21.76 5.503,0 c 2.143,0 3.823,0.631 5.083,2.017 1.555,1.722 1.597,4.956 1.597,9.073 C 1.597,-4.537 1.555,-1.723 0,0 m 3.108,-21.004 c -1.889,-1.89 -4.62,-2.814 -7.729,-2.814 l -10.502,0 0,29.909 10.502,0 c 3.109,0 5.84,-0.924 7.729,-2.815 3.235,-3.234 3.025,-7.603 3.025,-11.93 0,-4.326 0.21,-9.116 -3.025,-12.35"
             style="fill:#ede82c;fill-opacity:1;fill-rule:nonzero;stroke:none"
             id="path212" /></g><g
           id="g214"
           transform="translate(459.1504,1073.7036)"><path
             d="m 0,0 -4.663,-13.274 9.2,0 L 0,0 z m 7.855,-23.146 -2.058,6.007 -11.804,0 -2.058,-6.007 -4.831,0 10.963,29.909 3.656,0 10.964,-29.909 -4.832,0 z"
             style="fill:#ede82c;fill-opacity:1;fill-rule:nonzero;stroke:none"
             id="path216" /></g><g
           id="g218"
           transform="translate(484.0215,1050.3057)"><path
             d="m 0,0 c -4.494,0 -7.729,1.05 -10.586,3.949 l 3.025,2.982 c 2.184,-2.184 4.579,-2.856 7.645,-2.856 3.907,0 6.176,1.68 6.176,4.578 0,1.303 -0.378,2.395 -1.177,3.109 -0.756,0.714 -1.512,1.008 -3.276,1.26 l -3.529,0.504 c -2.436,0.336 -4.369,1.177 -5.671,2.395 -1.47,1.386 -2.184,3.276 -2.184,5.713 0,5.209 3.78,8.779 9.998,8.779 3.948,0 6.721,-1.008 9.283,-3.402 L 6.806,24.154 c -1.849,1.764 -3.992,2.311 -6.511,2.311 -3.529,0 -5.462,-2.017 -5.462,-4.663 0,-1.093 0.337,-2.059 1.135,-2.773 0.756,-0.672 1.974,-1.176 3.36,-1.386 L 2.73,17.139 C 5.503,16.719 7.058,16.047 8.318,14.913 9.956,13.484 10.754,11.342 10.754,8.779 10.754,3.276 6.26,0 0,0"
             style="fill:#ede82c;fill-opacity:1;fill-rule:nonzero;stroke:none"
             id="path220" /></g><g
           id="g222"
           transform="translate(526.0762,1074.376)"><path
             d="m 0,0 c -1.26,1.386 -2.94,2.016 -5.083,2.016 l -5.503,0 0,-21.76 5.503,0 c 2.143,0 3.823,0.631 5.083,2.017 1.555,1.722 1.597,4.956 1.597,9.073 C 1.597,-4.537 1.555,-1.723 0,0 m 3.108,-21.004 c -1.889,-1.89 -4.62,-2.814 -7.729,-2.814 l -10.502,0 0,29.909 10.502,0 c 3.109,0 5.84,-0.924 7.729,-2.815 3.235,-3.234 3.025,-7.603 3.025,-11.93 0,-4.326 0.21,-9.116 -3.025,-12.35"
             style="fill:#ede82c;fill-opacity:1;fill-rule:nonzero;stroke:none"
             id="path224" /></g><g
           id="g226"
           transform="translate(538.9326,1050.5576)"><path
             d="m 0,0 0,29.909 19.114,0 0,-4.075 -14.577,0 0,-8.737 12.435,0 0,-4.033 -12.435,0 0,-8.989 14.577,0 L 19.114,0 0,0 z"
             style="fill:#ede82c;fill-opacity:1;fill-rule:nonzero;stroke:none"
             id="path228" /></g><g
           id="g230"
           transform="translate(289.8818,1000.791)"><path
             d="m 0,0 0,39.872 27.104,0 0,-8.736 -17.304,0 0,-6.664 14.784,0 0,-8.736 -14.784,0 0,-7 17.304,0 L 27.104,0 0,0 z"
             style="fill:#ede82c;fill-opacity:1;fill-rule:nonzero;stroke:none"
             id="path232" /></g><g
           id="g234"
           transform="translate(323.9316,1000.791)"><path
             d="m 0,0 0,39.872 9.8,0 0,-31.136 16.744,0 L 26.544,0 0,0 z"
             style="fill:#ede82c;fill-opacity:1;fill-rule:nonzero;stroke:none"
             id="path236" /></g><g
           id="g238"
           transform="translate(356.1904,1000.791)"><path
             d="m 0,0 0,39.872 27.104,0 0,-8.736 -17.304,0 0,-6.664 14.784,0 0,-8.736 -14.784,0 0,-7 17.304,0 L 27.104,0 0,0 z"
             style="fill:#ede82c;fill-opacity:1;fill-rule:nonzero;stroke:none"
             id="path240" /></g><g
           id="g242"
           transform="translate(404.0723,1000.4551)"><path
             d="m 0,0 c -4.648,0 -8.177,1.568 -11.088,4.48 -4.2,4.2 -4.032,9.8 -4.032,15.792 0,5.992 -0.168,11.592 4.032,15.792 2.911,2.912 6.44,4.48 11.088,4.48 7.56,0 13.664,-4.2 15.119,-12.992 l -9.968,0 c -0.616,2.24 -1.847,4.256 -5.095,4.256 -1.792,0 -3.136,-0.728 -3.865,-1.68 -0.895,-1.176 -1.511,-2.576 -1.511,-9.856 0,-7.28 0.616,-8.68 1.511,-9.856 0.729,-0.952 2.073,-1.68 3.865,-1.68 3.248,0 4.479,2.016 5.095,4.256 l 9.968,0 C 13.664,4.2 7.56,0 0,0"
             style="fill:#ede82c;fill-opacity:1;fill-rule:nonzero;stroke:none"
             id="path244" /></g><g
           id="g246"
           transform="translate(440.4756,1031.9268)"><path
             d="m 0,0 0,-31.136 -9.801,0 0,31.136 -9.8,0 0,8.736 29.401,0 L 9.8,0 0,0 z"
             style="fill:#ede82c;fill-opacity:1;fill-rule:nonzero;stroke:none"
             id="path248" /></g><g
           id="g250"
           transform="translate(471.333,1031.8711)"><path
             d="m 0,0 -5.544,0 0,-8.064 5.544,0 c 2.688,0 4.256,1.96 4.256,4.032 C 4.256,-1.96 2.688,0 0,0 m 4.815,-31.08 -7.055,14.84 -3.304,0 0,-14.84 -9.8,0 0,39.872 15.792,0 c 8.848,0 13.608,-6.272 13.608,-12.824 0,-5.432 -3.36,-8.848 -6.496,-10.416 l 8.624,-16.632 -11.369,0 z"
             style="fill:#ede82c;fill-opacity:1;fill-rule:nonzero;stroke:none"
             id="path252" /></g><g
           id="g254"
           transform="translate(510.3115,1030.5269)"><path
             d="m 0,0 c -0.728,0.952 -2.128,1.736 -3.92,1.736 -1.792,0 -3.192,-0.784 -3.92,-1.736 -0.896,-1.176 -1.456,-2.52 -1.456,-9.8 0,-7.28 0.56,-8.568 1.456,-9.744 0.728,-0.952 2.128,-1.792 3.92,-1.792 1.792,0 3.192,0.84 3.92,1.792 0.896,1.176 1.456,2.464 1.456,9.744 0,7.28 -0.56,8.624 -1.456,9.8 m 7.224,-25.592 c -2.912,-2.912 -6.272,-4.48 -11.144,-4.48 -4.872,0 -8.232,1.568 -11.143,4.48 -4.201,4.2 -4.033,9.8 -4.033,15.792 0,5.992 -0.168,11.592 4.033,15.792 2.911,2.912 6.271,4.48 11.143,4.48 4.872,0 8.232,-1.568 11.144,-4.48 4.2,-4.2 4.032,-9.8 4.032,-15.792 0,-5.992 0.168,-11.592 -4.032,-15.792"
             style="fill:#ede82c;fill-opacity:1;fill-rule:nonzero;stroke:none"
             id="path256" /></g><g
           id="g258"
           transform="translate(544.4756,1031.9268)"><path
             d="m 0,0 0,-31.136 -9.801,0 0,31.136 -9.8,0 0,8.736 29.401,0 L 9.8,0 0,0 z"
             style="fill:#ede82c;fill-opacity:1;fill-rule:nonzero;stroke:none"
             id="path260" /></g><g
           id="g262"
           transform="translate(559.9902,1000.791)"><path
             d="m 0,0 0,39.872 27.104,0 0,-8.736 -17.304,0 0,-6.664 14.784,0 0,-8.736 -14.784,0 0,-7 17.304,0 L 27.104,0 0,0 z"
             style="fill:#ede82c;fill-opacity:1;fill-rule:nonzero;stroke:none"
             id="path264" /></g><g
           id="g266"
           transform="translate(607.8721,1000.4551)"><path
             d="m 0,0 c -4.648,0 -8.177,1.568 -11.088,4.48 -4.2,4.2 -4.032,9.8 -4.032,15.792 0,5.992 -0.168,11.592 4.032,15.792 2.911,2.912 6.44,4.48 11.088,4.48 7.56,0 13.664,-4.2 15.119,-12.992 l -9.968,0 c -0.615,2.24 -1.847,4.256 -5.095,4.256 -1.792,0 -3.136,-0.728 -3.865,-1.68 -0.895,-1.176 -1.511,-2.576 -1.511,-9.856 0,-7.28 0.616,-8.68 1.511,-9.856 0.729,-0.952 2.073,-1.68 3.865,-1.68 3.248,0 4.48,2.016 5.095,4.256 l 9.968,0 C 13.664,4.2 7.56,0 0,0"
             style="fill:#ede82c;fill-opacity:1;fill-rule:nonzero;stroke:none"
             id="path268" /></g><g
           id="g270"
           transform="translate(650.7139,1000.791)"><path
             d="m 0,0 -12.768,20.048 0,-20.048 -9.799,0 0,39.872 8.567,0 12.769,-20.048 0,20.048 9.799,0 L 8.568,0 0,0 z"
             style="fill:#ede82c;fill-opacity:1;fill-rule:nonzero;stroke:none"
             id="path272" /></g><path
           d="m 667.35,1040.663 9.8,0 0,-39.872 -9.8,0 0,39.872 z"
           style="fill:#ede82c;fill-opacity:1;fill-rule:nonzero;stroke:none"
           id="path274" /><g
           id="g276"
           transform="translate(699.7178,1025.543)"><path
             d="m 0,0 -3.584,-10.64 6.943,0 L 0,0 z m 7.784,-24.752 -1.848,5.936 -12.264,0 -1.96,-5.936 -10.248,0 14.504,39.872 7.559,0 14.504,-39.872 -10.247,0 z"
             style="fill:#ede82c;fill-opacity:1;fill-rule:nonzero;stroke:none"
             id="path278" /></g><g
           id="g280"
           transform="translate(291.0059,981.1353)"><path
             d="m 0,0 0,-7.548 8.988,0 0,-1.959 -8.988,0 0,-9.046 -2.189,0 0,20.512 12.732,0 L 10.543,0 0,0 z"
             style="fill:#ede82c;fill-opacity:1;fill-rule:nonzero;stroke:none"
             id="path282" /></g><g
           id="g284"
           transform="translate(305.5195,962.5825)"><path
             d="m 0,0 0,20.512 12.734,0 0,-1.959 -10.545,0 0,-7.231 8.989,0 0,-1.959 -8.989,0 0,-7.404 10.545,0 L 12.734,0 0,0 z"
             style="fill:#ede82c;fill-opacity:1;fill-rule:nonzero;stroke:none"
             id="path286" /></g><g
           id="g288"
           transform="translate(329.6582,962.4097)"><path
             d="m 0,0 c -4.148,0 -7.145,2.852 -7.145,6.943 l 0,13.742 2.19,0 0,-13.569 c 0,-3.112 1.959,-5.157 4.955,-5.157 2.996,0 4.983,2.045 4.983,5.157 l 0,13.569 2.19,0 0,-13.742 C 7.173,2.852 4.148,0 0,0"
             style="fill:#ede82c;fill-opacity:1;fill-rule:nonzero;stroke:none"
             id="path290" /></g><g
           id="g292"
           transform="translate(349.9062,981.1353)"><path
             d="m 0,0 -5.244,0 0,-8.153 5.244,0 c 2.563,0 4.35,1.383 4.35,4.091 C 4.35,-1.354 2.563,0 0,0 m 0.201,-10.112 -5.445,0 0,-8.441 -2.19,0 0,20.512 7.635,0 c 3.745,0 6.338,-2.334 6.338,-6.021 0,-3.688 -2.593,-6.05 -6.338,-6.05"
             style="fill:#ede82c;fill-opacity:1;fill-rule:nonzero;stroke:none"
             id="path294" /></g></g></g><text
       transform="matrix(1,0,0,-1,61.6602,776.0249)"
       id="text296"><tspan
         style="fill:#ffffff;fill-opacity:1;fill-rule:nonzero;stroke:none;font-family:DIN Black;font-variant:normal;font-weight:900;font-stretch:normal;font-size:18;writing-mode:lr;-inkscape-font-specification:DIN-Black"
         x="0 7.668 11.664 26.208 36.108 46.35 51.534 61.596 69.264 79.326 83.322 94.266 104.508"
         y="0"
         sodipodi:role="line"
         id="tspan298">- Mobie-e Edp</tspan><tspan
         style="fill:#ffffff;fill-opacity:1;fill-rule:nonzero;stroke:none;font-family:DIN Black;font-variant:normal;font-weight:900;font-stretch:normal;font-size:18;writing-mode:lr;-inkscape-font-specification:DIN-Black"
         x="0 27.972 33.714 44.136 50.67 58.68 68.58 78.822 89.244 97.794 107.442 117.342 121.338 130.986 140.886 144.882 153.0702 162.9702 173.3922 181.5804 191.6424 196.8264 203.3604 213.2604 217.2564 227.4984 237.3984 241.3944 251.6364 259.6464 269.5464 279.6444 288.0144 297.6624 313.4124 323.0604 327.0564 341.6004 351.5004 361.7424 366.9264 374.5944 384.6564"
         y="21.6"
         sodipodi:role="line"
         id="tspan300"> Introdução ao conceito do programa Mobi-e;</tspan><tspan
         style="fill:#ffffff;fill-opacity:1;fill-rule:nonzero;stroke:none;font-family:DIN Black;font-variant:normal;font-weight:900;font-stretch:normal;font-size:18;writing-mode:lr;-inkscape-font-specification:DIN-Black"
         x="0 27.972 38.934 48.834 59.256 67.4442 77.5062 87.7482 96.2982 105.9462 115.8462 119.8422 130.0842 139.7322 143.7282 151.7364 161.7984 172.0404 182.1024"
         y="43.2"
         sodipodi:role="line"
         id="tspan302"> Concepção da rede;</tspan><tspan
         style="fill:#ffffff;fill-opacity:1;fill-rule:nonzero;stroke:none;font-family:DIN Black;font-variant:normal;font-weight:900;font-stretch:normal;font-size:18;writing-mode:lr;-inkscape-font-specification:DIN-Black"
         x="0 27.972 39.078 48.726 56.736 64.926 74.988 83.538 88.722 98.37 107.442"
         y="64.8"
         sodipodi:role="line"
         id="tspan304"> Parcerias;</tspan><tspan
         style="fill:#ffffff;fill-opacity:1;fill-rule:nonzero;stroke:none;font-family:DIN Black;font-variant:normal;font-weight:900;font-stretch:normal;font-size:18;writing-mode:lr;-inkscape-font-specification:DIN-Black"
         x="0 27.972 38.34 48.402 58.5 63.684 72.756 78.894 88.542 97.092 106.74 116.64 120.636 127.08 137.502 144.036 154.458 162.468 172.368"
         y="86.4"
         sodipodi:role="line"
         id="tspan306"> Legislação futuro;</tspan><tspan
         style="fill:#ffffff;fill-opacity:1;fill-rule:nonzero;stroke:none;font-family:DIN Black;font-variant:normal;font-weight:900;font-stretch:normal;font-size:18;writing-mode:lr;-inkscape-font-specification:DIN-Black"
         x="0 7.668 11.664 22.032 31.68 41.922 51.822 60.1902 69.8382 76.3722 86.2722 94.8222 100.0062 109.9062 113.9022 128.4462 133.6302 142.1802 150.1902 160.0902 167.7582 179.4942 189.5562 199.7982 209.8602 218.9322 222.9282 232.9902 236.9862 247.0842 257.1462 262.3302 270.8802 281.3022 287.0802 296.9802 306.0522 310.0482 320.9922 327.1302 337.1922 345.7422 352.2762 360.8262 366.0102 374.2002 384.1002 393.1722 397.1682 403.6122 409.3542 421.9542 432.8982 443.5722 454.5342"
         y="108"
         sodipodi:role="line"
         id="tspan308">- Laboratório Micro-Redes e Veículos Eléctricos (INESC)</tspan><tspan
         style="fill:#ffffff;fill-opacity:1;fill-rule:nonzero;stroke:none;font-family:DIN Black;font-variant:normal;font-weight:900;font-stretch:normal;font-size:18;writing-mode:lr;-inkscape-font-specification:DIN-Black"
         x="0 7.668 11.664 22.95 30.9582 40.8582 46.0422 56.1042 64.6542 71.1882 81.0882 85.0842 95.2722 105.6942 112.2282 122.6502 130.6584 140.7204 144.7164 155.6784 160.8624 167.3964 172.5804 182.6424 191.7144 195.7104 202.1544 212.8824 223.8264 235.7064 246.9924"
         y="129.6"
         sodipodi:role="line"
         id="tspan310">- Projecto Future Cities (FEUP)</tspan><tspan
         style="fill:#ffffff;fill-opacity:1;fill-rule:nonzero;stroke:none;font-family:DIN Black;font-variant:normal;font-weight:900;font-stretch:normal;font-size:18;writing-mode:lr;-inkscape-font-specification:DIN-Black"
         x="0 11.106 20.754 25.938 36.36 46.422 52.56 56.556 67.5 83.25 93.492 101.502 111.564 121.626 132.048 142.29 152.352 162.594 172.494 181.044 186.228 195.3 211.05 220.95 224.946 237.726 241.722 252.396 258.93 268.578 277.128 283.662 294.084 304.326 313.398 319.104"
         y="380.214"
         sodipodi:role="line"
         id="tspan312">Painel Empreendedorismo &amp; Startups: </tspan><tspan
         style="fill:#ffffff;fill-opacity:1;fill-rule:nonzero;stroke:none;font-family:DIN Black;font-variant:normal;font-weight:900;font-stretch:normal;font-size:18;writing-mode:lr;-inkscape-font-specification:DIN-Black"
         x="19.98 30.942 37.08 46.728 55.098 64.746 68.742 80.388 90.288 100.71 109.26 118.908 124.3278 133.524 143.586 152.658 156.654 164.322 168.318 176.328 186.39 196.632 204.642 214.704 223.776 233.838 244.26 250.794 260.442 270.864 277.398 287.46 291.456 303.336 314.622 325.152 336.096"
         y="401.814"
         sodipodi:role="line"
         id="tspan314">Clara Gonçalves - representante UPTEC</tspan><tspan
         style="fill:#ffffff;fill-opacity:1;fill-rule:nonzero;stroke:none;font-family:DIN Black;font-variant:normal;font-weight:900;font-stretch:normal;font-size:18;writing-mode:lr;-inkscape-font-specification:DIN-Black"
         x="0 19.98 31.716 41.778 52.02 60.03 70.092 79.164 89.226 99.648 106.182 115.83 126.252 132.786 142.848 146.844 157.95 167.85 176.4 182.934 193.356 203.454 213.102 219.24 223.236 233.334 243.396 253.818 260.352 270.774 278.784 288.846"
         y="423.414"
         sodipodi:role="line"
         id="tspan316"> Representante Portugal Ventures</tspan><tspan
         style="fill:#ffffff;fill-opacity:1;fill-rule:nonzero;stroke:none;font-family:DIN Black;font-variant:normal;font-weight:900;font-stretch:normal;font-size:18;writing-mode:lr;-inkscape-font-specification:DIN-Black"
         x="0 19.98 29.268 39.168 48.24 58.302 62.298 73.584 78.768 89.19 95.724 105.624 109.62 119.808 129.87 138.42 146.43 156.492 161.676 170.046 179.694 183.69 194.418 205.362 217.242 228.528 232.524 240.192 244.188 258.732 268.794 277.686 284.22 292.59 302.238 312.48 322.38 326.376 336.438 352.188 356.184 361.926 372.348 382.068 391.266 400.914 409.464 419.112 429.012 433.008 443.07 447.066 458.01 473.76 484.002 492.012 502.074 512.136 522.558 532.8 542.862 553.104 563.004 571.554 576.738 585.81 601.56 611.46 615.456 624.906 634.968 643.518 653.94 663.84 669.978 679.878 689.976 695.16 703.3518"
         y="445.014"
         sodipodi:role="line"
         id="tspan318"> José Pinto Ferreira FEUP - Mestrado em Inovação e Empreendedorismo Tecnológico</tspan><tspan
         style="fill:#ffffff;fill-opacity:1;fill-rule:nonzero;stroke:none;font-family:DIN Black;font-variant:normal;font-weight:900;font-stretch:normal;font-size:18;writing-mode:lr;-inkscape-font-specification:DIN-Black"
         x="0 19.98 30.654 37.188 46.836 55.386 61.92 72.342 82.584 91.656 95.652 102.096 112.824 118.008 128.25 138.312 146.862 157.536 167.598 178.02 187.092 192.276 202.698 212.796 217.98 221.976 238.284 243.468 252.54 262.602 275.202 285.264 291.798 305.658 315.558 324.108 334.422 343.494"
         y="466.614"
         sodipodi:role="line"
         id="tspan320"> Startups (FiberSensing, WiseNetworks)</tspan></text>
<text
       transform="matrix(1,0,0,-1,37.1494,808.5498)"
       id="text322"><tspan
         style="fill:#ede82c;fill-opacity:1;fill-rule:nonzero;stroke:none;font-family:DIN Black;font-variant:normal;font-weight:900;font-stretch:normal;font-size:20;writing-mode:lr;-inkscape-font-specification:DIN-Black"
         x="0 11.12 22.24 33.7 44.82 55.94 60.38 67.66 72.1 88.26 101.06 114.12 120.5 132.02 138.4 151.22 164.28 177.3 189.46 193.9 206.06 217.58 229.74 241.52 253.22 266.26 272.64 284.62"
         y="0"
         sodipodi:role="line"
         id="tspan324">14h30 | MOBILIDADE ELÉCTRICA</tspan></text>
<g
       id="g326"><g
         id="g328"
         clip-path="url(#clipPath330)"><path
           d="m 804.74,800.239 -767.591,0 0,3.311 767.591,0 0,-3.311 z"
           style="fill:#ede82c;fill-opacity:1;fill-rule:nonzero;stroke:none"
           id="path334" /></g></g><text
       transform="matrix(1,0,0,-1,37.1494,567.7964)"
       id="text336"><tspan
         style="fill:#ede82c;fill-opacity:1;fill-rule:nonzero;stroke:none;font-family:DIN Black;font-variant:normal;font-weight:900;font-stretch:normal;font-size:20;writing-mode:lr;-inkscape-font-specification:DIN-Black"
         x="0 11.12 22.24 33.7 44.82 55.94 60.38 67.66 72.1 84.28 97.08 109 120.92 133.08 145.24 149.68 162.74 175.78 187.94 201"
         y="0"
         sodipodi:role="line"
         id="tspan338">16h00 | COFFEE BREAK</tspan><tspan
         style="fill:#ede82c;fill-opacity:1;fill-rule:nonzero;stroke:none;font-family:DIN Black;font-variant:normal;font-weight:900;font-stretch:normal;font-size:20;writing-mode:lr;-inkscape-font-specification:DIN-Black"
         x="0 11.12 22.24 33.7 44.82 55.94 60.38 67.66 72.1 84.26 95.78 107.94 119.72 131.42 144.46 157.26 171.26 177.64 189.62 202.68 207.12 221.12 233.92 238.36 244.74 256.44 268.6"
         y="73.48"
         sodipodi:role="line"
         id="tspan340">16h30 | ELECTRÓNICA NO ITER</tspan><tspan
         style="fill:#ede82c;fill-opacity:1;fill-rule:nonzero;stroke:none;font-family:DIN Black;font-variant:normal;font-weight:900;font-stretch:normal;font-size:20;writing-mode:lr;-inkscape-font-specification:DIN-Black"
         x="0 11.12 22.24 33.7 44.82 55.94 60.38 67.66 72.1 88.26 100.42 112.28 125.34 129.78 142.82 154.98 168 180.8 194.8 207.62"
         y="134.78"
         sodipodi:role="line"
         id="tspan342">17h30 | MESA REDONDA</tspan></text>
<g
       id="g344"><g
         id="g346"
         clip-path="url(#clipPath348)"><path
           d="m 804.74,558.121 -767.591,0 0,3.311 767.591,0 0,-3.311 z"
           style="fill:#ede82c;fill-opacity:1;fill-rule:nonzero;stroke:none"
           id="path352" /><path
           d="m 804.74,484.154 -767.591,0 0,3.311 767.591,0 0,-3.311 z"
           style="fill:#ede82c;fill-opacity:1;fill-rule:nonzero;stroke:none"
           id="path354" /><path
           d="m 804.74,418.129 -767.591,0 0,3.311 767.591,0 0,-3.311 z"
           style="fill:#ede82c;fill-opacity:1;fill-rule:nonzero;stroke:none"
           id="path356" /><g
           id="g358"
           transform="translate(650.9844,65.0293)"><path
             d="m 0,0 -4.539,0 0,-3.554 3.754,0 0,-1.099 -3.754,0 0,-4.635 -1.291,0 0,10.371 5.83,0 L 0,0 z"
             style="fill:#ede82c;fill-opacity:1;fill-rule:nonzero;stroke:none"
             id="path360" /></g><g
           id="g362"
           transform="translate(658.0137,55.7412)"><path
             d="m 0,0 -5.973,0 0,10.371 5.832,0 0,-1.083 -4.541,0 0,-3.458 3.756,0 0,-1.086 -3.756,0 0,-3.662 L 0,1.082 0,0 z"
             style="fill:#ede82c;fill-opacity:1;fill-rule:nonzero;stroke:none"
             id="path364" /></g><g
           id="g366"
           transform="translate(667.0137,59.292)"><path
             d="m 0,0 c 0,-1.29 -0.398,-2.252 -1.195,-2.892 -0.772,-0.639 -1.723,-0.96 -2.842,-0.96 -1.111,0 -2.068,0.327 -2.877,0.978 -0.797,0.64 -1.193,1.595 -1.193,2.874 l 0,6.82 1.287,0 0,-6.427 c 0,-0.661 0.039,-1.122 0.111,-1.385 0.086,-0.291 0.244,-0.564 0.486,-0.815 0.536,-0.597 1.258,-0.895 2.168,-0.895 0.912,0 1.635,0.298 2.168,0.895 0.242,0.251 0.407,0.524 0.491,0.815 0.072,0.263 0.105,0.724 0.105,1.385 l 0,6.427 L 0,6.82 0,0 z"
             style="fill:#ede82c;fill-opacity:1;fill-rule:nonzero;stroke:none"
             id="path368" /></g><g
           id="g370"
           transform="translate(675.4434,63.0469)"><path
             d="M 0,0 C 0,-0.533 -0.088,-1.017 -0.26,-1.454 -0.434,-1.888 -0.68,-2.258 -1,-2.562 -1.318,-2.866 -1.707,-3.098 -2.162,-3.26 c -0.453,-0.161 -0.967,-0.244 -1.531,-0.244 -0.137,0 -0.338,0.012 -0.606,0.029 -0.267,0.023 -0.599,0.055 -0.996,0.095 l 0,-3.926 -1.287,0 0,10.371 3.252,0 c 1.15,0 1.994,-0.273 2.529,-0.819 C -0.27,1.703 0,0.952 0,0 m -1.336,-0.08 c 0,0.692 -0.195,1.231 -0.584,1.62 -0.289,0.292 -0.822,0.442 -1.601,0.442 l -1.774,0 0,-4.277 c 0.574,-0.06 1.035,-0.092 1.383,-0.092 0.586,0 1.035,0.066 1.348,0.202 0.38,0.157 0.677,0.423 0.896,0.794 0.223,0.374 0.332,0.81 0.332,1.311"
             style="fill:#ede82c;fill-opacity:1;fill-rule:nonzero;stroke:none"
             id="path372" /></g><g
           id="g374"
           transform="translate(684.9141,52.1006)"><path
             d="m 0,0 c 0,-0.728 -0.227,-1.269 -0.676,-1.629 -0.435,-0.359 -0.969,-0.54 -1.599,-0.54 -0.625,0 -1.163,0.183 -1.62,0.548 -0.447,0.359 -0.669,0.899 -0.669,1.621 l 0,3.837 0.722,0 0,-3.618 c 0,-0.372 0.022,-0.629 0.067,-0.779 0.043,-0.163 0.134,-0.318 0.271,-0.458 0.301,-0.337 0.707,-0.505 1.219,-0.505 0.515,0 0.92,0.168 1.223,0.505 0.134,0.14 0.226,0.295 0.271,0.458 0.043,0.15 0.062,0.407 0.062,0.779 l 0,3.618 L 0,3.837 0,0 z"
             style="fill:#ede82c;fill-opacity:1;fill-rule:nonzero;stroke:none"
             id="path376" /></g><g
           id="g378"
           transform="translate(691.4687,50.0459)"><path
             d="M 0,0 -0.84,0 -3.785,4.555 C -3.797,4.58 -3.814,4.607 -3.834,4.641 -3.854,4.673 -3.877,4.71 -3.9,4.759 -3.943,4.831 -3.996,4.95 -4.061,5.112 l 0,-5.057 -0.724,0 0,5.837 0.945,0 2.895,-4.449 c 0.015,-0.03 0.029,-0.052 0.043,-0.072 0.013,-0.017 0.025,-0.039 0.035,-0.067 0.012,-0.027 0.027,-0.058 0.041,-0.101 0.012,-0.039 0.035,-0.097 0.066,-0.166 0.004,-0.014 0.012,-0.023 0.012,-0.036 0.002,-0.013 0.01,-0.03 0.023,-0.054 l 0,4.945 L 0,5.892 0,0 z"
             style="fill:#ede82c;fill-opacity:1;fill-rule:nonzero;stroke:none"
             id="path380" /></g><path
           d="m 694.111,50.101 -0.723,0 0,5.837 0.723,0 0,-5.837 z"
           style="fill:#ede82c;fill-opacity:1;fill-rule:nonzero;stroke:none"
           id="path382" /><g
           id="g384"
           transform="translate(700.1621,55.9375)"><path
             d="m 0,0 -2.266,-5.988 -0.443,0 L -5.008,0 -4.23,0 -2.504,-4.554 c 0.027,-0.078 0.049,-0.173 0.063,-0.285 0,0.088 0.015,0.183 0.054,0.285 L -0.727,0 0,0 z"
             style="fill:#ede82c;fill-opacity:1;fill-rule:nonzero;stroke:none"
             id="path386" /></g><g
           id="g388"
           transform="translate(704.5742,50.1006)"><path
             d="m 0,0 -3.363,0 0,5.837 3.283,0 0,-0.61 -2.557,0 0,-1.949 2.114,0 0,-0.607 -2.114,0 0,-2.062 L 0,0.609 0,0 z"
             style="fill:#ede82c;fill-opacity:1;fill-rule:nonzero;stroke:none"
             id="path390" /></g><g
           id="g392"
           transform="translate(709.918,50.1006)"><path
             d="m 0,0 -0.832,0 -1.611,2.501 -0.778,0 0,-2.501 -0.726,0 0,5.837 1.777,0 c 0.178,0 0.332,-0.01 0.465,-0.024 C -1.574,5.8 -1.453,5.774 -1.346,5.744 -1.24,5.71 -1.143,5.668 -1.055,5.61 -0.969,5.556 -0.879,5.485 -0.789,5.403 -0.482,5.103 -0.33,4.724 -0.33,4.262 -0.33,3.778 -0.5,3.375 -0.842,3.052 -1.066,2.831 -1.361,2.686 -1.729,2.607 L 0,0 z m -1.107,4.254 c 0,0.364 -0.106,0.632 -0.319,0.804 -0.136,0.11 -0.42,0.169 -0.847,0.169 l -0.948,0 0,-2.117 0.948,0 c 0.777,0 1.166,0.382 1.166,1.144"
             style="fill:#ede82c;fill-opacity:1;fill-rule:nonzero;stroke:none"
             id="path394" /></g><g
           id="g396"
           transform="translate(714.416,55.5488)"><path
             d="m 0,0 -0.334,-0.601 c -0.133,0.076 -0.246,0.139 -0.348,0.188 -0.097,0.051 -0.189,0.09 -0.265,0.111 -0.266,0.083 -0.533,0.123 -0.803,0.123 -0.336,0 -0.605,-0.074 -0.811,-0.225 -0.203,-0.149 -0.304,-0.349 -0.304,-0.597 0,-0.218 0.092,-0.406 0.275,-0.565 0.182,-0.16 0.572,-0.4 1.168,-0.719 0.412,-0.218 0.719,-0.414 0.918,-0.591 0.303,-0.257 0.453,-0.615 0.453,-1.061 0,-0.5 -0.174,-0.898 -0.519,-1.19 -0.346,-0.292 -0.811,-0.435 -1.401,-0.435 -0.4,0 -0.763,0.063 -1.082,0.193 -0.177,0.069 -0.433,0.215 -0.75,0.433 l 0.373,0.574 c 0.137,-0.093 0.258,-0.174 0.375,-0.24 0.116,-0.062 0.211,-0.11 0.297,-0.137 0.264,-0.105 0.545,-0.155 0.84,-0.155 0.354,0 0.627,0.078 0.816,0.232 0.194,0.152 0.29,0.372 0.29,0.654 0,0.177 -0.03,0.316 -0.092,0.414 -0.104,0.196 -0.27,0.355 -0.492,0.481 -0.071,0.04 -0.186,0.102 -0.35,0.189 -0.164,0.084 -0.369,0.195 -0.623,0.331 -0.83,0.449 -1.246,0.957 -1.246,1.531 0,0.463 0.176,0.84 0.529,1.125 0.352,0.28 0.818,0.422 1.397,0.422 0.371,0 0.697,-0.047 0.982,-0.142 C -0.514,0.278 -0.275,0.164 0,0"
             style="fill:#ede82c;fill-opacity:1;fill-rule:nonzero;stroke:none"
             id="path398" /></g><path
           d="m 716.582,50.101 -0.727,0 0,5.837 0.727,0 0,-5.837 z"
           style="fill:#ede82c;fill-opacity:1;fill-rule:nonzero;stroke:none"
           id="path400" /><g
           id="g402"
           transform="translate(723.3965,53.0439)"><path
             d="m 0,0 c 0,-0.787 -0.264,-1.489 -0.787,-2.097 -0.264,-0.307 -0.565,-0.525 -0.899,-0.652 -0.33,-0.131 -0.752,-0.194 -1.259,-0.194 l -1.94,0 0,5.837 1.949,0 c 0.85,0 1.551,-0.272 2.104,-0.816 C -0.277,1.545 0,0.851 0,0 m -0.76,0.01 c 0,0.641 -0.219,1.182 -0.656,1.618 -0.436,0.439 -0.98,0.655 -1.637,0.655 l -1.105,0 0,-4.617 1.105,0 c 0.715,0 1.239,0.177 1.578,0.529 0.104,0.114 0.204,0.241 0.291,0.388 0.084,0.142 0.163,0.294 0.227,0.454 0.062,0.159 0.109,0.322 0.145,0.485 0.033,0.166 0.052,0.33 0.052,0.488"
             style="fill:#ede82c;fill-opacity:1;fill-rule:nonzero;stroke:none"
             id="path404" /></g><g
           id="g406"
           transform="translate(729.0234,50.1006)"><path
             d="m 0,0 -0.775,0 -0.604,1.724 -2.361,0 L -4.342,0 l -0.777,0 2.174,6.005 0.779,0 L 0,0 z m -1.609,2.388 -0.946,2.67 -0.955,-2.67 1.901,0 z"
             style="fill:#ede82c;fill-opacity:1;fill-rule:nonzero;stroke:none"
             id="path408" /></g><g
           id="g410"
           transform="translate(734.9395,53.0439)"><path
             d="M 0,0 C 0,-0.787 -0.264,-1.489 -0.787,-2.097 -1.055,-2.404 -1.352,-2.622 -1.684,-2.749 -2.018,-2.88 -2.438,-2.943 -2.943,-2.943 l -1.942,0 0,5.837 1.946,0 c 0.849,0 1.552,-0.272 2.107,-0.816 C -0.277,1.545 0,0.851 0,0 m -0.762,0.01 c 0,0.641 -0.215,1.182 -0.654,1.618 -0.439,0.439 -0.982,0.655 -1.637,0.655 l -1.105,0 0,-4.617 1.105,0 c 0.715,0 1.241,0.177 1.574,0.529 0.106,0.114 0.206,0.241 0.292,0.388 0.089,0.142 0.166,0.294 0.226,0.454 0.061,0.159 0.111,0.322 0.147,0.485 0.035,0.166 0.052,0.33 0.052,0.488"
             style="fill:#ede82c;fill-opacity:1;fill-rule:nonzero;stroke:none"
             id="path412" /></g><g
           id="g414"
           transform="translate(739.7012,50.1006)"><path
             d="m 0,0 -3.361,0 0,5.837 3.279,0 0,-0.61 -2.557,0 0,-1.949 2.116,0 0,-0.607 -2.116,0 0,-2.062 L 0,0.609 0,0 z"
             style="fill:#ede82c;fill-opacity:1;fill-rule:nonzero;stroke:none"
             id="path416" /></g><g
           id="g418"
           transform="translate(748.1953,53.0439)"><path
             d="M 0,0 C 0,-0.787 -0.262,-1.489 -0.787,-2.097 -1.053,-2.404 -1.348,-2.622 -1.682,-2.749 -2.018,-2.88 -2.439,-2.943 -2.945,-2.943 l -1.938,0 0,5.837 1.945,0 c 0.85,0 1.551,-0.272 2.106,-0.816 C -0.275,1.545 0,0.851 0,0 m -0.76,0.01 c 0,0.641 -0.22,1.182 -0.654,1.618 -0.436,0.439 -0.984,0.655 -1.637,0.655 l -1.109,0 0,-4.617 1.109,0 c 0.713,0 1.24,0.177 1.574,0.529 0.106,0.114 0.206,0.241 0.293,0.388 0.088,0.142 0.161,0.294 0.225,0.454 0.063,0.159 0.109,0.322 0.145,0.485 0.035,0.166 0.054,0.33 0.054,0.488"
             style="fill:#ede82c;fill-opacity:1;fill-rule:nonzero;stroke:none"
             id="path420" /></g><g
           id="g422"
           transform="translate(754.9355,53.0186)"><path
             d="m 0,0 c 0,-0.878 -0.275,-1.605 -0.828,-2.177 -0.553,-0.571 -1.25,-0.855 -2.096,-0.855 -0.851,0 -1.553,0.284 -2.107,0.855 -0.557,0.572 -0.832,1.299 -0.832,2.177 0,0.871 0.275,1.596 0.832,2.168 0.554,0.572 1.256,0.857 2.107,0.857 0.846,0 1.543,-0.285 2.096,-0.857 C -0.275,1.607 0,0.882 0,0 m -0.793,0 c 0,0.648 -0.211,1.209 -0.631,1.681 -0.418,0.472 -0.92,0.708 -1.5,0.708 -0.594,0 -1.096,-0.236 -1.515,-0.708 C -4.857,1.209 -5.068,0.648 -5.068,0 c 0,-0.662 0.211,-1.227 0.629,-1.7 0.412,-0.465 0.916,-0.697 1.515,-0.697 0.586,0 1.088,0.232 1.5,0.697 0.42,0.473 0.631,1.038 0.631,1.7"
             style="fill:#ede82c;fill-opacity:1;fill-rule:nonzero;stroke:none"
             id="path424" /></g><g
           id="g426"
           transform="translate(762.2598,54.2109)"><path
             d="M 0,0 C 0,-0.3 -0.049,-0.571 -0.146,-0.816 -0.244,-1.06 -0.381,-1.271 -0.562,-1.439 -0.74,-1.61 -0.959,-1.741 -1.215,-1.833 c -0.256,-0.092 -0.547,-0.138 -0.863,-0.138 -0.076,0 -0.19,0.006 -0.34,0.018 -0.152,0.012 -0.338,0.028 -0.562,0.052 l 0,-2.209 -0.729,0 0,5.837 1.834,0 c 0.65,0 1.123,-0.154 1.422,-0.463 C -0.148,0.961 0,0.538 0,0 m -0.752,-0.043 c 0,0.391 -0.109,0.693 -0.324,0.909 -0.168,0.168 -0.467,0.25 -0.904,0.25 l -1,0 0,-2.404 c 0.326,-0.038 0.585,-0.054 0.777,-0.054 0.332,0 0.584,0.037 0.762,0.115 0.214,0.089 0.38,0.235 0.505,0.445 0.122,0.211 0.184,0.456 0.184,0.739"
             style="fill:#ede82c;fill-opacity:1;fill-rule:nonzero;stroke:none"
             id="path428" /></g><g
           id="g430"
           transform="translate(768.8086,53.0186)"><path
             d="m 0,0 c 0,-0.878 -0.275,-1.605 -0.83,-2.177 -0.549,-0.571 -1.246,-0.855 -2.1,-0.855 -0.847,0 -1.549,0.284 -2.103,0.855 -0.553,0.572 -0.83,1.299 -0.83,2.177 0,0.871 0.277,1.596 0.83,2.168 0.554,0.572 1.256,0.857 2.103,0.857 0.854,0 1.551,-0.285 2.1,-0.857 C -0.275,1.607 0,0.882 0,0 m -0.797,0 c 0,0.648 -0.209,1.209 -0.627,1.681 -0.42,0.472 -0.918,0.708 -1.506,0.708 -0.586,0 -1.09,-0.236 -1.509,-0.708 C -4.857,1.209 -5.07,0.648 -5.07,0 c 0,-0.662 0.213,-1.227 0.631,-1.7 0.414,-0.465 0.916,-0.697 1.509,-0.697 0.594,0 1.094,0.232 1.506,0.697 0.418,0.473 0.627,1.038 0.627,1.7"
             style="fill:#ede82c;fill-opacity:1;fill-rule:nonzero;stroke:none"
             id="path432" /></g><g
           id="g434"
           transform="translate(774.1582,50.1006)"><path
             d="m 0,0 -0.834,0 -1.609,2.501 -0.778,0 0,-2.501 -0.726,0 0,5.837 1.779,0 c 0.178,0 0.332,-0.01 0.463,-0.024 C -1.574,5.8 -1.451,5.774 -1.348,5.744 -1.242,5.71 -1.143,5.668 -1.053,5.61 -0.965,5.556 -0.879,5.485 -0.787,5.403 -0.482,5.103 -0.328,4.724 -0.328,4.262 -0.328,3.778 -0.5,3.375 -0.844,3.052 -1.064,2.831 -1.361,2.686 -1.725,2.607 L 0,0 z m -1.107,4.254 c 0,0.364 -0.108,0.632 -0.319,0.804 -0.135,0.11 -0.418,0.169 -0.849,0.169 l -0.946,0 0,-2.117 0.946,0 c 0.777,0 1.168,0.382 1.168,1.144"
             style="fill:#ede82c;fill-opacity:1;fill-rule:nonzero;stroke:none"
             id="path436" /></g><g
           id="g438"
           transform="translate(779.0996,55.3271)"><path
             d="m 0,0 -1.945,0 0,-5.227 -0.725,0 0,5.227 -1.949,0 0,0.61 L 0,0.61 0,0 z"
             style="fill:#ede82c;fill-opacity:1;fill-rule:nonzero;stroke:none"
             id="path440" /></g><g
           id="g442"
           transform="translate(785.4805,53.0186)"><path
             d="m 0,0 c 0,-0.878 -0.281,-1.605 -0.836,-2.177 -0.545,-0.571 -1.248,-0.855 -2.094,-0.855 -0.849,0 -1.552,0.284 -2.105,0.855 -0.555,0.572 -0.834,1.299 -0.834,2.177 0,0.871 0.279,1.596 0.834,2.168 0.553,0.572 1.256,0.857 2.105,0.857 0.846,0 1.549,-0.285 2.094,-0.857 C -0.281,1.607 0,0.882 0,0 m -0.799,0 c 0,0.648 -0.209,1.209 -0.627,1.681 -0.42,0.472 -0.922,0.708 -1.504,0.708 -0.591,0 -1.093,-0.236 -1.513,-0.708 C -4.861,1.209 -5.07,0.648 -5.07,0 c 0,-0.662 0.209,-1.227 0.627,-1.7 0.41,-0.465 0.916,-0.697 1.513,-0.697 0.586,0 1.09,0.232 1.504,0.697 0.418,0.473 0.627,1.038 0.627,1.7"
             style="fill:#ede82c;fill-opacity:1;fill-rule:nonzero;stroke:none"
             id="path444" /></g><g
           id="g446"
           transform="translate(683.9492,65.1611)"><path
             d="m 0,0 -2.504,0 0,-1.502 2.051,0 0,-0.937 -2.051,0 0,-2.453 -1.115,0 0,5.843 L 0,0.951 0,0 z"
             style="fill:#ede82c;fill-opacity:1;fill-rule:nonzero;stroke:none"
             id="path448" /></g><g
           id="g450"
           transform="translate(689.3867,60.2695)"><path
             d="m 0,0 -1.166,0 -0.461,1.444 -1.955,0 L -4.059,0 l -1.166,0 2.112,5.843 1,0 L 0,0 z m -1.928,2.391 -0.681,2.112 -0.674,-2.112 1.355,0 z"
             style="fill:#ede82c;fill-opacity:1;fill-rule:nonzero;stroke:none"
             id="path452" /></g><g
           id="g454"
           transform="translate(694.5605,65.6582)"><path
             d="m 0,0 -0.424,-0.886 c -0.377,0.274 -0.826,0.411 -1.347,0.411 -0.563,0 -1.026,-0.184 -1.387,-0.545 -0.36,-0.35 -0.539,-0.806 -0.539,-1.359 0,-0.626 0.191,-1.131 0.576,-1.513 0.377,-0.379 0.889,-0.565 1.527,-0.565 0.397,0 0.823,0.09 1.285,0.271 l 0.204,-0.938 c -0.319,-0.146 -0.582,-0.24 -0.788,-0.281 -0.148,-0.03 -0.298,-0.051 -0.451,-0.07 -0.154,-0.018 -0.316,-0.026 -0.486,-0.026 -0.873,0 -1.578,0.24 -2.113,0.722 -0.655,0.592 -0.983,1.37 -0.983,2.339 0,0.871 0.297,1.599 0.891,2.183 0.556,0.541 1.291,0.815 2.205,0.815 C -1.104,0.558 -0.496,0.371 0,0"
             style="fill:#ede82c;fill-opacity:1;fill-rule:nonzero;stroke:none"
             id="path456" /></g><g
           id="g458"
           transform="translate(700.3086,62.5527)"><path
             d="m 0,0 c 0,-0.531 -0.061,-0.94 -0.176,-1.228 -0.117,-0.292 -0.33,-0.539 -0.631,-0.746 -0.404,-0.28 -0.953,-0.422 -1.642,-0.422 -0.69,0 -1.242,0.142 -1.656,0.422 -0.299,0.207 -0.51,0.454 -0.627,0.738 C -4.844,-0.958 -4.9,-0.542 -4.9,0 l 0,3.56 1.105,0 0,-3.623 c 0,-0.866 0.459,-1.299 1.379,-1.299 0.867,0 1.301,0.433 1.301,1.299 l 0,3.623 L 0,3.56 0,0 z"
             style="fill:#ede82c;fill-opacity:1;fill-rule:nonzero;stroke:none"
             id="path460" /></g><g
           id="g462"
           transform="translate(705.252,60.2695)"><path
             d="m 0,0 -3.506,0 0,5.843 1.115,0 0,-4.896 L 0,0.947 0,0 z"
             style="fill:#ede82c;fill-opacity:1;fill-rule:nonzero;stroke:none"
             id="path464" /></g><g
           id="g466"
           transform="translate(711.3926,63.2051)"><path
             d="M 0,0 C 0,-0.812 -0.27,-1.505 -0.805,-2.075 -1.34,-2.648 -2.129,-2.936 -3.168,-2.936 l -2.156,0 0,5.843 2.164,0 c 1.045,0 1.83,-0.285 2.363,-0.851 C -0.266,1.487 0,0.803 0,0 m -1.203,-0.008 c 0,0.721 -0.225,1.247 -0.672,1.584 -0.313,0.23 -0.779,0.346 -1.396,0.346 l -0.885,0 0,-3.875 0.885,0 c 0.658,0 1.169,0.167 1.527,0.505 0.361,0.336 0.541,0.818 0.541,1.44"
             style="fill:#ede82c;fill-opacity:1;fill-rule:nonzero;stroke:none"
             id="path468" /></g><g
           id="g470"
           transform="translate(716.8574,60.2695)"><path
             d="m 0,0 -1.17,0 -0.457,1.444 -1.957,0 L -4.059,0 -5.23,0 l 2.115,5.843 1.002,0 L 0,0 z m -1.93,2.391 -0.679,2.112 -0.674,-2.112 1.353,0 z"
             style="fill:#ede82c;fill-opacity:1;fill-rule:nonzero;stroke:none"
             id="path472" /></g><g
           id="g474"
           transform="translate(722.9512,63.2051)"><path
             d="m 0,0 c 0,-0.812 -0.27,-1.505 -0.809,-2.075 -0.533,-0.573 -1.322,-0.861 -2.357,-0.861 l -2.158,0 0,5.843 2.166,0 c 1.043,0 1.828,-0.285 2.359,-0.851 C -0.264,1.487 0,0.803 0,0 m -1.203,-0.008 c 0,0.721 -0.223,1.247 -0.674,1.584 -0.311,0.23 -0.777,0.346 -1.398,0.346 l -0.881,0 0,-3.875 0.881,0 c 0.662,0 1.173,0.167 1.533,0.505 0.357,0.336 0.539,0.818 0.539,1.44"
             style="fill:#ede82c;fill-opacity:1;fill-rule:nonzero;stroke:none"
             id="path476" /></g><g
           id="g478"
           transform="translate(727.6367,60.2695)"><path
             d="m 0,0 -3.67,0 0,5.843 3.555,0 0,-0.951 -2.444,0 0,-1.442 2,0 0,-0.946 -2,0 0,-1.557 L 0,0.947 0,0 z"
             style="fill:#ede82c;fill-opacity:1;fill-rule:nonzero;stroke:none"
             id="path480" /></g><g
           id="g482"
           transform="translate(736.2051,63.2051)"><path
             d="m 0,0 c 0,-0.812 -0.266,-1.505 -0.803,-2.075 -0.539,-0.573 -1.326,-0.861 -2.359,-0.861 l -2.162,0 0,5.843 2.17,0 c 1.043,0 1.828,-0.285 2.361,-0.851 C -0.264,1.487 0,0.803 0,0 m -1.201,-0.008 c 0,0.721 -0.225,1.247 -0.672,1.584 -0.313,0.23 -0.779,0.346 -1.398,0.346 l -0.883,0 0,-3.875 0.883,0 c 0.662,0 1.171,0.167 1.529,0.505 0.361,0.336 0.541,0.818 0.541,1.44"
             style="fill:#ede82c;fill-opacity:1;fill-rule:nonzero;stroke:none"
             id="path484" /></g><g
           id="g486"
           transform="translate(740.8945,60.2695)"><path
             d="m 0,0 -3.672,0 0,5.843 3.557,0 0,-0.951 -2.442,0 0,-1.442 1.998,0 0,-0.946 -1.998,0 0,-1.557 L 0,0.947 0,0 z"
             style="fill:#ede82c;fill-opacity:1;fill-rule:nonzero;stroke:none"
             id="path488" /></g><g
           id="g490"
           transform="translate(747.8594,60.2695)"><path
             d="m 0,0 -3.668,0 0,5.843 3.557,0 0,-0.951 -2.442,0 0,-1.442 2,0 0,-0.946 -2,0 0,-1.557 L 0,0.947 0,0 z"
             style="fill:#ede82c;fill-opacity:1;fill-rule:nonzero;stroke:none"
             id="path492" /></g><g
           id="g494"
           transform="translate(754.0156,60.2178)"><path
             d="M 0,0 -1.168,0 -3.672,3.776 C -3.684,3.794 -3.699,3.823 -3.719,3.862 -3.744,3.9 -3.766,3.949 -3.795,4.007 -3.809,4.031 -3.818,4.05 -3.83,4.07 -3.842,4.086 -3.855,4.107 -3.869,4.133 -3.904,4.195 -3.928,4.263 -3.947,4.334 l 0,-4.282 -1.061,0 0,5.843 1.283,0 2.452,-3.843 C -1.27,2.04 -1.25,1.999 -1.219,1.932 -1.186,1.865 -1.166,1.824 -1.158,1.814 l 0.051,-0.151 0.054,-0.103 0,4.335 L 0,5.895 0,0 z"
             style="fill:#ede82c;fill-opacity:1;fill-rule:nonzero;stroke:none"
             id="path496" /></g><g
           id="g498"
           transform="translate(760.4902,60.4922)"><path
             d="m 0,0 c -0.076,-0.018 -0.164,-0.04 -0.264,-0.063 -0.099,-0.024 -0.207,-0.049 -0.328,-0.08 -0.543,-0.128 -1.031,-0.192 -1.469,-0.192 -0.966,0 -1.755,0.279 -2.369,0.838 -0.607,0.567 -0.91,1.301 -0.91,2.202 0,0.897 0.322,1.641 0.967,2.231 0.557,0.517 1.32,0.779 2.277,0.779 0.45,0 0.856,-0.046 1.221,-0.134 0.119,-0.032 0.25,-0.07 0.395,-0.12 0.144,-0.05 0.302,-0.111 0.474,-0.188 L -0.271,4.343 C -0.33,4.366 -0.4,4.39 -0.48,4.419 c -0.079,0.026 -0.168,0.056 -0.27,0.093 -0.416,0.139 -0.82,0.212 -1.205,0.212 -0.647,0 -1.182,-0.186 -1.602,-0.549 -0.41,-0.361 -0.617,-0.831 -0.617,-1.414 0,-0.599 0.223,-1.1 0.666,-1.505 0.445,-0.402 0.994,-0.6 1.635,-0.6 0.205,0 0.461,0.038 0.76,0.122 l 0,1.612 L 0,2.39 0,0 z"
             style="fill:#ede82c;fill-opacity:1;fill-rule:nonzero;stroke:none"
             id="path500" /></g><g
           id="g502"
           transform="translate(765.6094,60.2695)"><path
             d="m 0,0 -3.672,0 0,5.843 3.557,0 0,-0.951 -2.442,0 0,-1.442 1.998,0 0,-0.946 -1.998,0 0,-1.557 L 0,0.947 0,0 z"
             style="fill:#ede82c;fill-opacity:1;fill-rule:nonzero;stroke:none"
             id="path504" /></g><g
           id="g506"
           transform="translate(771.7637,60.2178)"><path
             d="M 0,0 -1.17,0 -3.674,3.776 C -3.686,3.794 -3.699,3.823 -3.721,3.862 -3.742,3.9 -3.766,3.949 -3.795,4.007 -3.807,4.031 -3.82,4.05 -3.834,4.07 -3.846,4.086 -3.855,4.107 -3.867,4.133 -3.902,4.195 -3.928,4.263 -3.945,4.334 l 0,-4.282 -1.063,0 0,5.843 1.281,0 2.452,-3.843 C -1.27,2.04 -1.25,1.999 -1.219,1.932 -1.187,1.865 -1.166,1.824 -1.16,1.814 l 0.051,-0.151 0.054,-0.103 0,4.335 L 0,5.895 0,0 z"
             style="fill:#ede82c;fill-opacity:1;fill-rule:nonzero;stroke:none"
             id="path508" /></g><g
           id="g510"
           transform="translate(778.6445,60.2695)"><path
             d="m 0,0 -1.115,0 0,2.504 -2.996,0 0,-2.504 -1.114,0 0,5.843 1.114,0 0,-2.337 2.996,0 0,2.337 L 0,5.843 0,0 z"
             style="fill:#ede82c;fill-opacity:1;fill-rule:nonzero;stroke:none"
             id="path512" /></g><g
           id="g514"
           transform="translate(784.6816,60.2695)"><path
             d="m 0,0 -1.166,0 -0.463,1.444 -1.953,0 L -4.059,0 l -1.168,0 2.114,5.843 1,0 L 0,0 z m -1.928,2.391 -0.685,2.112 -0.668,-2.112 1.353,0 z"
             style="fill:#ede82c;fill-opacity:1;fill-rule:nonzero;stroke:none"
             id="path516" /></g><g
           id="g518"
           transform="translate(789.7324,60.2695)"><path
             d="m 0,0 -1.221,0 -1.336,2.339 -0.556,0 0,-2.339 -1.117,0 0,5.843 1.947,0 c 0.213,0 0.398,-0.01 0.556,-0.028 0.159,-0.011 0.299,-0.037 0.42,-0.069 0.121,-0.032 0.233,-0.076 0.328,-0.136 0.096,-0.052 0.19,-0.121 0.28,-0.205 0.316,-0.293 0.478,-0.716 0.478,-1.263 0,-0.462 -0.107,-0.827 -0.318,-1.099 C -0.721,2.802 -1.029,2.624 -1.451,2.504 L 0,0 z m -1.373,4.113 c 0,0.284 -0.076,0.485 -0.231,0.603 -0.154,0.118 -0.412,0.176 -0.785,0.176 l -0.724,0 0,-1.609 0.724,0 c 0.68,0 1.016,0.275 1.016,0.83"
             style="fill:#ede82c;fill-opacity:1;fill-rule:nonzero;stroke:none"
             id="path520" /></g><path
           d="m 791.766,60.27 -1.117,0 0,5.843 1.117,0 0,-5.843 z"
           style="fill:#ede82c;fill-opacity:1;fill-rule:nonzero;stroke:none"
           id="path522" /><g
           id="g524"
           transform="translate(797.7812,60.2695)"><path
             d="m 0,0 -1.168,0 -0.459,1.444 -1.957,0 L -4.059,0 l -1.168,0 2.114,5.843 0.998,0 L 0,0 z m -1.926,2.391 -0.685,2.112 -0.67,-2.112 1.355,0 z"
             style="fill:#ede82c;fill-opacity:1;fill-rule:nonzero;stroke:none"
             id="path526" /></g><g
           id="g528"
           transform="translate(680.334,92.3301)"><path
             d="m 0,0 -2.471,0 0,0.4 7.114,0 c 2.017,0 3.617,-0.385 4.804,-1.152 1.192,-0.768 1.787,-2.01 1.787,-3.728 0,-1.634 -0.629,-2.858 -1.886,-3.666 -1.254,-0.808 -2.741,-1.213 -4.453,-1.213 -1,0 -1.782,0.139 -2.348,0.421 l 0,-7.861 2.547,0 0,-0.397 -7.565,0 0,0.397 2.471,0 L 0,0 z m 2.547,-8.435 c 0.217,-0.133 0.496,-0.255 0.836,-0.363 0.34,-0.109 0.703,-0.162 1.086,-0.162 1.049,0 1.99,0.328 2.82,0.988 0.834,0.66 1.248,1.748 1.248,3.268 0,1.615 -0.369,2.808 -1.109,3.564 C 6.686,-0.379 5.568,0 4.07,0 l -1.523,0 0,-8.435"
             style="fill:#ede82c;fill-opacity:1;fill-rule:nonzero;stroke:none"
             id="path530" /></g><g
           id="g532"
           transform="translate(701.7031,93.1025)"><path
             d="m 0,0 c 2.109,0 3.955,-0.895 5.527,-2.689 1.573,-1.795 2.36,-3.955 2.36,-6.482 0,-2.542 -0.78,-4.708 -2.336,-6.493 -1.553,-1.786 -3.406,-2.68 -5.551,-2.68 -2.115,0 -3.959,0.895 -5.531,2.693 -1.573,1.795 -2.358,3.953 -2.358,6.48 0,2.542 0.776,4.707 2.332,6.493 C -4,-0.892 -2.15,0 0,0 m 0,-17.946 c 1.346,0 2.393,0.47 3.141,1.411 0.752,0.938 1.255,2.049 1.513,3.34 0.258,1.287 0.387,2.629 0.387,4.024 0,1.444 -0.121,2.799 -0.363,4.064 -0.241,1.261 -0.737,2.363 -1.485,3.302 -0.75,0.937 -1.814,1.408 -3.193,1.408 -1.35,0 -2.398,-0.471 -3.146,-1.408 -0.75,-0.939 -1.252,-2.053 -1.51,-3.341 -0.258,-1.287 -0.389,-2.628 -0.389,-4.025 0,-1.447 0.123,-2.8 0.361,-4.062 0.243,-1.264 0.739,-2.364 1.489,-3.302 0.746,-0.941 1.812,-1.411 3.195,-1.411"
             style="fill:#ede82c;fill-opacity:1;fill-rule:nonzero;stroke:none"
             id="path534" /></g><g
           id="g536"
           transform="translate(713.8613,92.3301)"><path
             d="m 0,0 -2.496,0 0,0.4 7.66,0 c 1.785,0 3.227,-0.309 4.334,-0.927 1.106,-0.617 1.658,-1.786 1.658,-3.504 0,-1.353 -0.547,-2.327 -1.644,-2.93 -1.102,-0.601 -2.332,-0.984 -3.698,-1.15 1.581,-0.166 2.727,-0.521 3.432,-1.062 0.709,-0.541 1.154,-1.593 1.338,-3.156 l 0.35,-3.047 c 0.082,-0.632 0.242,-1.05 0.484,-1.259 0.242,-0.211 0.512,-0.313 0.812,-0.313 0.266,0 0.608,0.084 1.022,0.25 l 0.152,-0.325 c -0.265,-0.099 -0.562,-0.178 -0.884,-0.234 -0.329,-0.061 -0.715,-0.089 -1.163,-0.089 -1.382,0 -2.267,0.32 -2.658,0.958 -0.39,0.642 -0.697,1.82 -0.912,3.534 l -0.174,1.498 C 7.514,-10.393 7.234,-9.649 6.777,-9.134 6.318,-8.62 5.449,-8.36 4.166,-8.36 l -1.621,0 0,-8.439 2.547,0 0,-0.397 -7.588,0 0,0.397 2.496,0 L 0,0 z m 2.545,-7.962 1.248,0 c 1.549,0 2.715,0.306 3.494,0.917 0.783,0.605 1.176,1.612 1.176,3.014 0,1.201 -0.301,2.174 -0.901,2.918 C 6.965,-0.372 5.857,0 4.244,0 l -1.699,0 0,-7.962"
             style="fill:#ede82c;fill-opacity:1;fill-rule:nonzero;stroke:none"
             id="path538" /></g><g
           id="g540"
           transform="translate(734.4844,92.3301)"><path
             d="m 0,0 -0.521,0 c -2.266,0 -3.739,-0.286 -4.42,-0.861 -0.682,-0.575 -1.026,-1.874 -1.026,-3.904 l -0.398,0 0,5.165 15.277,0 0,-5.165 -0.402,0 c 0,2.01 -0.338,3.31 -1.022,3.893 C 6.805,-0.292 5.342,0 3.094,0 l -0.547,0 0,-16.799 2.572,0 0,-0.397 -7.691,0 0,0.397 2.572,0 L 0,0"
             style="fill:#ede82c;fill-opacity:1;fill-rule:nonzero;stroke:none"
             id="path542" /></g><g
           id="g544"
           transform="translate(753.1113,93.1025)"><path
             d="m 0,0 c 2.115,0 3.957,-0.895 5.529,-2.689 1.573,-1.795 2.358,-3.955 2.358,-6.482 0,-2.542 -0.778,-4.708 -2.332,-6.493 -1.557,-1.786 -3.409,-2.68 -5.555,-2.68 -2.113,0 -3.955,0.895 -5.527,2.693 -1.575,1.795 -2.362,3.953 -2.362,6.48 0,2.542 0.782,4.707 2.336,6.493 C -3.998,-0.892 -2.146,0 0,0 m 0,-17.946 c 1.35,0 2.396,0.47 3.145,1.411 0.751,0.938 1.253,2.049 1.511,3.34 0.258,1.287 0.387,2.629 0.387,4.024 0,1.444 -0.121,2.799 -0.361,4.064 -0.241,1.261 -0.737,2.363 -1.487,3.302 -0.748,0.937 -1.814,1.408 -3.195,1.408 -1.35,0 -2.396,-0.471 -3.143,-1.408 -0.752,-0.939 -1.255,-2.053 -1.511,-3.341 -0.258,-1.287 -0.387,-2.628 -0.387,-4.025 0,-1.447 0.117,-2.8 0.361,-4.062 0.243,-1.264 0.737,-2.364 1.485,-3.302 0.75,-0.941 1.814,-1.411 3.195,-1.411"
             style="fill:#ede82c;fill-opacity:1;fill-rule:nonzero;stroke:none"
             id="path546" /></g><g
           id="g548"
           transform="translate(670.6523,75.457)"><path
             d="m 0,0 c -0.344,-0.343 -0.762,-0.512 -1.254,-0.512 -0.498,0 -0.916,0.169 -1.258,0.512 -0.343,0.343 -0.513,0.763 -0.513,1.256 0,0.494 0.17,0.914 0.513,1.258 0.342,0.34 0.76,0.511 1.258,0.511 0.492,0 0.91,-0.171 1.254,-0.511 C 0.34,2.17 0.512,1.75 0.512,1.256 0.512,0.763 0.34,0.343 0,0 m -3.961,16.848 -0.65,0 c -0.45,0 -0.778,-0.171 -0.985,-0.51 -0.209,-0.34 -0.312,-0.868 -0.312,-1.584 l 0,-9.321 c 0,-1.895 -0.545,-3.383 -1.635,-4.463 -1.09,-1.079 -2.742,-1.619 -4.957,-1.619 -2.047,0 -3.68,0.552 -4.904,1.658 -1.223,1.103 -1.834,2.62 -1.834,4.548 l 0,11.291 -1.946,0 0,0.449 7.86,0 0,-0.449 -2.02,0 0,-10.968 c 0,-1.827 0.303,-3.221 0.91,-4.186 0.608,-0.965 1.768,-1.598 3.459,-1.446 1.334,0.124 2.098,0.432 2.948,1.297 0.847,0.863 1.273,2.11 1.273,3.739 l 0,9.47 c 0,0.749 -0.121,1.285 -0.363,1.607 -0.24,0.324 -0.43,0.487 -1.065,0.487 l -0.722,0 0,0.449 4.943,0 0,-0.449 z m -21.537,-21.684 30.252,0 0,26.61 -30.252,0 0,-26.61 z"
             style="fill:#ede82c;fill-opacity:1;fill-rule:nonzero;stroke:none"
             id="path550" /></g><path
           d="m 804.74,112.412 -767.591,0 0,3.311 767.591,0 0,-3.311 z"
           style="fill:#ede82c;fill-opacity:1;fill-rule:nonzero;stroke:none"
           id="path552" /><g
           id="g554"
           transform="translate(445.7979,82.2969)"><path
             d="M 0,0 C 0.318,-0.074 0.857,-0.074 1.299,-0.074 4.705,-0.1 6.935,1.764 6.935,5.709 6.935,9.262 4.926,10.953 1.69,10.953 0.882,10.953 0.318,10.879 0,10.807 L 0,0 z m -3.726,13.453 c 1.373,0.244 3.163,0.367 5.025,0.367 3.161,0 5.22,-0.513 6.788,-1.715 C 9.802,10.83 10.88,8.771 10.88,5.832 10.88,2.67 9.729,0.49 8.16,-0.857 6.421,-2.305 3.749,-2.99 0.515,-2.99 c -1.936,0 -3.333,0.123 -4.241,0.244 l 0,16.199 z"
             style="fill:#ede82c;fill-opacity:1;fill-rule:nonzero;stroke:none"
             id="path556" /></g><g
           id="g558"
           transform="translate(468.959,86.4629)"><path
             d="m 0,0 -6.078,0 0,-3.922 6.788,0 0,-3.062 -10.513,0 0,16.515 10.17,0 0,-3.062 -6.445,0 0,-3.432 L 0,3.037 0,0 z"
             style="fill:#ede82c;fill-opacity:1;fill-rule:nonzero;stroke:none"
             id="path560" /></g><g
           id="g562"
           transform="translate(482.0469,86.4629)"><path
             d="m 0,0 -6.078,0 0,-3.922 6.789,0 0,-3.062 -10.514,0 0,16.515 10.17,0 0,-3.062 -6.445,0 0,-3.432 L 0,3.037 0,0 z"
             style="fill:#ede82c;fill-opacity:1;fill-rule:nonzero;stroke:none"
             id="path564" /></g><g
           id="g566"
           transform="translate(497.4141,79.9199)"><path
             d="m 0,0 c -0.662,-0.32 -2.23,-0.711 -4.215,-0.711 -5.711,0 -8.65,3.578 -8.65,8.307 0,5.636 4.017,8.748 9.017,8.748 1.936,0 3.407,-0.391 4.069,-0.735 l -0.785,-2.941 c -0.735,0.318 -1.79,0.613 -3.137,0.613 -2.941,0 -5.244,-1.789 -5.244,-5.488 0,-3.309 1.961,-5.393 5.269,-5.393 1.152,0 2.377,0.221 3.137,0.539 L 0,0 z"
             style="fill:#ede82c;fill-opacity:1;fill-rule:nonzero;stroke:none"
             id="path568" /></g><g
           id="g570"
           transform="translate(443.127,66.1816)"><path
             d="M 0,0 C 0.159,-0.037 0.429,-0.037 0.648,-0.037 2.352,-0.049 3.467,0.881 3.467,2.854 3.467,4.631 2.463,5.477 0.846,5.477 0.441,5.477 0.159,5.439 0,5.402 L 0,0 z M -1.863,6.727 C -1.177,6.85 -0.282,6.91 0.648,6.91 2.229,6.91 3.259,6.652 4.043,6.053 4.9,5.416 5.439,4.387 5.439,2.916 5.439,1.336 4.864,0.244 4.08,-0.43 3.21,-1.152 1.875,-1.496 0.257,-1.496 c -0.968,0 -1.666,0.062 -2.12,0.123 l 0,8.1 z"
             style="fill:#ede82c;fill-opacity:1;fill-rule:nonzero;stroke:none"
             id="path572" /></g><g
           id="g574"
           transform="translate(454.707,68.2637)"><path
             d="m 0,0 -3.039,0 0,-1.961 3.394,0 0,-1.531 -5.256,0 0,8.26 5.085,0 0,-1.534 -3.223,0 0,-1.714 L 0,1.52 0,0 z"
             style="fill:#ede82c;fill-opacity:1;fill-rule:nonzero;stroke:none"
             id="path576" /></g><g
           id="g578"
           transform="translate(458.1875,69.1699)"><path
             d="m 0,0 c 0.16,-0.035 0.355,-0.049 0.625,-0.049 0.992,0 1.605,0.504 1.605,1.336 C 2.23,2.047 1.715,2.5 0.771,2.5 0.393,2.5 0.135,2.477 0,2.439 L 0,0 z m -1.85,3.75 c 0.577,0.098 1.385,0.172 2.524,0.172 1.152,0 1.985,-0.221 2.537,-0.674 C 3.737,2.844 4.08,2.158 4.08,1.348 4.08,0.527 3.823,-0.158 3.333,-0.611 2.695,-1.199 1.74,-1.482 0.637,-1.482 0.393,-1.482 0.172,-1.469 0,-1.434 l 0,-2.964 -1.85,0 0,8.148 z"
             style="fill:#ede82c;fill-opacity:1;fill-rule:nonzero;stroke:none"
             id="path580" /></g><g
           id="g582"
           transform="translate(466.6562,68.2891)"><path
             d="M 0,0 -0.516,1.752 C -0.65,2.242 -0.797,2.867 -0.92,3.344 l -0.036,0 C -1.066,2.854 -1.201,2.229 -1.324,1.752 L -1.826,0 0,0 z m -2.096,-1.396 -0.576,-2.122 -1.935,0 2.523,8.26 2.439,0 2.573,-8.26 -2.01,0 -0.637,2.122 -2.377,0 z"
             style="fill:#ede82c;fill-opacity:1;fill-rule:nonzero;stroke:none"
             id="path584" /></g><g
           id="g586"
           transform="translate(472.5381,69.3672)"><path
             d="M 0,0 0.735,0 C 1.667,0 2.218,0.465 2.218,1.187 2.218,1.936 1.703,2.328 0.846,2.328 0.392,2.328 0.135,2.303 0,2.266 L 0,0 z M -1.851,3.541 C -1.249,3.65 -0.367,3.725 0.638,3.725 1.862,3.725 2.72,3.541 3.309,3.063 3.811,2.67 4.081,2.096 4.081,1.336 4.081,0.293 3.333,-0.43 2.622,-0.687 l 0,-0.036 c 0.576,-0.234 0.895,-0.773 1.104,-1.533 0.256,-0.943 0.502,-2.021 0.661,-2.34 l -1.911,0 c -0.123,0.233 -0.331,0.907 -0.565,1.924 -0.232,1.041 -0.588,1.311 -1.359,1.324 l -0.552,0 0,-3.248 -1.851,0 0,8.137 z"
             style="fill:#ede82c;fill-opacity:1;fill-rule:nonzero;stroke:none"
             id="path588" /></g><g
           id="g590"
           transform="translate(479.4746,71.4629)"><path
             d="m 0,0 -2.23,0 0,1.568 6.347,0 0,-1.568 -2.255,0 0,-6.691 L 0,-6.691 0,0 z"
             style="fill:#ede82c;fill-opacity:1;fill-rule:nonzero;stroke:none"
             id="path592" /></g><g
           id="g594"
           transform="translate(491.5195,67.9336)"><path
             d="m 0,0 c -0.037,0.992 -0.073,2.18 -0.073,3.395 l -0.025,0 C -0.367,2.34 -0.711,1.164 -1.029,0.195 l -1.004,-3.222 -1.459,0 -0.882,3.185 c -0.27,0.981 -0.539,2.145 -0.747,3.237 l -0.025,0 C -5.183,2.279 -5.231,1.004 -5.281,-0.025 l -0.158,-3.137 -1.729,0 0.527,8.26 2.488,0 0.808,-2.77 c 0.27,-0.943 0.515,-1.973 0.699,-2.941 l 0.048,0 c 0.221,0.955 0.503,2.035 0.786,2.965 l 0.869,2.746 2.451,0 0.441,-8.26 -1.814,0 L 0,0 z"
             style="fill:#ede82c;fill-opacity:1;fill-rule:nonzero;stroke:none"
             id="path596" /></g><g
           id="g598"
           transform="translate(499.8164,68.2637)"><path
             d="m 0,0 -3.038,0 0,-1.961 3.393,0 0,-1.531 -5.255,0 0,8.26 5.084,0 0,-1.534 -3.222,0 0,-1.714 L 0,1.52 0,0 z"
             style="fill:#ede82c;fill-opacity:1;fill-rule:nonzero;stroke:none"
             id="path600" /></g><g
           id="g602"
           transform="translate(501.4473,64.7715)"><path
             d="m 0,0 0,8.26 2.182,0 1.714,-3.028 C 4.387,4.363 4.864,3.334 5.244,2.402 l 0.025,0 C 5.158,3.492 5.121,4.607 5.121,5.857 l 0,2.403 1.716,0 0,-8.26 -1.96,0 -1.765,3.186 C 2.622,4.08 2.07,5.135 1.679,6.102 l -0.049,0 C 1.691,5 1.715,3.836 1.715,2.488 L 1.715,0 0,0 z"
             style="fill:#ede82c;fill-opacity:1;fill-rule:nonzero;stroke:none"
             id="path604" /></g><g
           id="g606"
           transform="translate(511.5078,71.4629)"><path
             d="m 0,0 -2.23,0 0,1.568 6.347,0 0,-1.568 -2.254,0 0,-6.691 L 0,-6.691 0,0 z"
             style="fill:#ede82c;fill-opacity:1;fill-rule:nonzero;stroke:none"
             id="path608" /></g><g
           id="g610"
           transform="translate(522.6836,66.1191)"><path
             d="M 0,0 C 1.262,0 1.985,1.189 1.985,2.807 1.985,4.289 1.287,5.562 0,5.562 -1.286,5.562 -2.01,4.314 -2.01,2.77 -2.01,1.213 -1.262,0 -0.012,0 L 0,0 z m -0.086,-1.482 c -2.437,0 -3.884,1.851 -3.884,4.203 0,2.474 1.593,4.326 4.019,4.326 2.537,0 3.922,-1.901 3.922,-4.18 0,-2.719 -1.63,-4.349 -4.044,-4.349 l -0.013,0 z"
             style="fill:#ede82c;fill-opacity:1;fill-rule:nonzero;stroke:none"
             id="path612" /></g><g
           id="g614"
           transform="translate(527.8926,73.0313)"><path
             d="m 0,0 5.036,0 0,-1.533 -3.173,0 0,-1.887 2.965,0 0,-1.519 -2.965,0 0,-3.321 L 0,-8.26 0,0 z"
             style="fill:#ede82c;fill-opacity:1;fill-rule:nonzero;stroke:none"
             id="path616" /></g><g
           id="g618"
           transform="translate(541.7275,68.2637)"><path
             d="m 0,0 -3.038,0 0,-1.961 3.393,0 0,-1.531 -5.256,0 0,8.26 5.085,0 0,-1.534 -3.222,0 0,-1.714 L 0,1.52 0,0 z"
             style="fill:#ede82c;fill-opacity:1;fill-rule:nonzero;stroke:none"
             id="path620" /></g><g
           id="g622"
           transform="translate(543.3701,73.0313)"><path
             d="m 0,0 1.862,0 0,-6.691 3.284,0 0,-1.569 L 0,-8.26 0,0 z"
             style="fill:#ede82c;fill-opacity:1;fill-rule:nonzero;stroke:none"
             id="path624" /></g><g
           id="g626"
           transform="translate(554.5332,68.2637)"><path
             d="m 0,0 -3.038,0 0,-1.961 3.393,0 0,-1.531 -5.255,0 0,8.26 5.084,0 0,-1.534 -3.222,0 0,-1.714 L 0,1.52 0,0 z"
             style="fill:#ede82c;fill-opacity:1;fill-rule:nonzero;stroke:none"
             id="path628" /></g><g
           id="g630"
           transform="translate(562.2168,64.9922)"><path
             d="m 0,0 c -0.33,-0.158 -1.115,-0.355 -2.107,-0.355 -2.855,0 -4.326,1.789 -4.326,4.154 0,2.818 2.01,4.375 4.509,4.375 0.969,0 1.703,-0.197 2.034,-0.369 L -0.281,6.336 c -0.367,0.158 -0.895,0.305 -1.569,0.305 -1.47,0 -2.623,-0.895 -2.623,-2.745 0,-1.654 0.981,-2.695 2.635,-2.695 0.576,0 1.19,0.11 1.568,0.27 L 0,0 z"
             style="fill:#ede82c;fill-opacity:1;fill-rule:nonzero;stroke:none"
             id="path632" /></g><g
           id="g634"
           transform="translate(565.0605,71.4629)"><path
             d="m 0,0 -2.23,0 0,1.568 6.347,0 0,-1.568 -2.254,0 0,-6.691 L 0,-6.691 0,0 z"
             style="fill:#ede82c;fill-opacity:1;fill-rule:nonzero;stroke:none"
             id="path636" /></g><g
           id="g638"
           transform="translate(572.0215,69.3672)"><path
             d="M 0,0 0.734,0 C 1.666,0 2.217,0.465 2.217,1.187 2.217,1.936 1.703,2.328 0.846,2.328 0.392,2.328 0.135,2.303 0,2.266 L 0,0 z M -1.851,3.541 C -1.25,3.65 -0.367,3.725 0.637,3.725 1.862,3.725 2.72,3.541 3.309,3.063 3.811,2.67 4.08,2.096 4.08,1.336 4.08,0.293 3.332,-0.43 2.621,-0.687 l 0,-0.036 c 0.576,-0.234 0.895,-0.773 1.104,-1.533 0.257,-0.943 0.502,-2.021 0.662,-2.34 l -1.912,0 c -0.123,0.233 -0.33,0.907 -0.564,1.924 -0.233,1.041 -0.589,1.311 -1.36,1.324 l -0.551,0 0,-3.248 -1.851,0 0,8.137 z"
             style="fill:#ede82c;fill-opacity:1;fill-rule:nonzero;stroke:none"
             id="path640" /></g><path
           d="m 579.312,64.771 -1.862,0 0,8.26 1.862,0 0,-8.26 z"
           style="fill:#ede82c;fill-opacity:1;fill-rule:nonzero;stroke:none"
           id="path642" /><g
           id="g644"
           transform="translate(586.9834,64.9922)"><path
             d="m 0,0 c -0.331,-0.158 -1.114,-0.355 -2.107,-0.355 -2.855,0 -4.326,1.789 -4.326,4.154 0,2.818 2.01,4.375 4.51,4.375 0.967,0 1.703,-0.197 2.033,-0.369 L -0.282,6.336 c -0.367,0.158 -0.894,0.305 -1.569,0.305 -1.469,0 -2.621,-0.895 -2.621,-2.745 0,-1.654 0.981,-2.695 2.634,-2.695 0.576,0 1.189,0.11 1.568,0.27 L 0,0 z"
             style="fill:#ede82c;fill-opacity:1;fill-rule:nonzero;stroke:none"
             id="path646" /></g><g
           id="g648"
           transform="translate(592.3516,68.2891)"><path
             d="M 0,0 -0.516,1.752 C -0.65,2.242 -0.797,2.867 -0.92,3.344 l -0.036,0 C -1.066,2.854 -1.201,2.229 -1.324,1.752 L -1.826,0 0,0 z m -2.096,-1.396 -0.576,-2.122 -1.935,0 2.523,8.26 2.439,0 2.573,-8.26 -2.01,0 -0.637,2.122 -2.377,0 z"
             style="fill:#ede82c;fill-opacity:1;fill-rule:nonzero;stroke:none"
             id="path650" /></g><g
           id="g652"
           transform="translate(596.3955,73.0313)"><path
             d="m 0,0 1.862,0 0,-6.691 3.284,0 0,-1.569 L 0,-8.26 0,0 z"
             style="fill:#ede82c;fill-opacity:1;fill-rule:nonzero;stroke:none"
             id="path654" /></g><g
           id="g656"
           transform="translate(445.2715,53.584)"><path
             d="M 0,0 -0.516,1.752 C -0.65,2.242 -0.797,2.867 -0.92,3.344 l -0.036,0 C -1.066,2.854 -1.201,2.229 -1.324,1.752 L -1.826,0 0,0 z m -2.096,-1.396 -0.576,-2.122 -1.935,0 2.523,8.26 2.439,0 2.573,-8.26 -2.01,0 -0.637,2.122 -2.377,0 z"
             style="fill:#ede82c;fill-opacity:1;fill-rule:nonzero;stroke:none"
             id="path658" /></g><g
           id="g660"
           transform="translate(449.3027,50.0664)"><path
             d="m 0,0 0,8.26 2.182,0 1.714,-3.028 C 4.387,4.363 4.865,3.334 5.244,2.402 l 0.026,0 C 5.159,3.492 5.122,4.607 5.122,5.857 l 0,2.403 1.716,0 L 6.838,0 4.877,0 3.113,3.186 C 2.623,4.08 2.071,5.135 1.68,6.102 l -0.049,0 C 1.691,5 1.716,3.836 1.716,2.488 L 1.716,0 0,0 z"
             style="fill:#ede82c;fill-opacity:1;fill-rule:nonzero;stroke:none"
             id="path662" /></g><g
           id="g664"
           transform="translate(459.6211,51.4766)"><path
             d="M 0,0 C 0.16,-0.037 0.43,-0.037 0.649,-0.037 2.353,-0.049 3.468,0.881 3.468,2.854 3.468,4.631 2.463,5.477 0.846,5.477 0.441,5.477 0.16,5.439 0,5.402 L 0,0 z M -1.862,6.727 C -1.176,6.85 -0.281,6.91 0.649,6.91 2.23,6.91 3.26,6.652 4.043,6.053 4.901,5.416 5.44,4.387 5.44,2.916 5.44,1.336 4.865,0.244 4.08,-0.43 3.211,-1.152 1.875,-1.496 0.258,-1.496 c -0.969,0 -1.666,0.062 -2.12,0.123 l 0,8.1 z"
             style="fill:#ede82c;fill-opacity:1;fill-rule:nonzero;stroke:none"
             id="path666" /></g><g
           id="g668"
           transform="translate(474.8164,50.2871)"><path
             d="m 0,0 c -0.33,-0.158 -1.115,-0.355 -2.107,-0.355 -2.855,0 -4.326,1.789 -4.326,4.154 0,2.818 2.01,4.375 4.509,4.375 0.969,0 1.703,-0.197 2.034,-0.369 L -0.281,6.336 c -0.367,0.158 -0.895,0.305 -1.569,0.305 -1.47,0 -2.623,-0.895 -2.623,-2.745 0,-1.654 0.981,-2.695 2.635,-2.695 0.576,0 1.19,0.11 1.568,0.27 L 0,0 z"
             style="fill:#ede82c;fill-opacity:1;fill-rule:nonzero;stroke:none"
             id="path670" /></g><g
           id="g672"
           transform="translate(479.2656,51.4141)"><path
             d="M 0,0 C 1.262,0 1.984,1.189 1.984,2.807 1.984,4.289 1.286,5.562 0,5.562 -1.287,5.562 -2.01,4.314 -2.01,2.77 -2.01,1.213 -1.262,0 -0.012,0 L 0,0 z m -0.086,-1.482 c -2.438,0 -3.885,1.851 -3.885,4.203 0,2.474 1.594,4.326 4.02,4.326 2.536,0 3.921,-1.901 3.921,-4.18 0,-2.719 -1.63,-4.349 -4.044,-4.349 l -0.012,0 z"
             style="fill:#ede82c;fill-opacity:1;fill-rule:nonzero;stroke:none"
             id="path674" /></g><g
           id="g676"
           transform="translate(491.4463,53.2285)"><path
             d="m 0,0 c -0.037,0.992 -0.073,2.18 -0.073,3.395 l -0.026,0 C -0.368,2.34 -0.711,1.164 -1.029,0.195 l -1.005,-3.222 -1.458,0 -0.882,3.185 c -0.27,0.981 -0.539,2.145 -0.748,3.237 l -0.024,0 C -5.183,2.279 -5.231,1.004 -5.281,-0.025 l -0.159,-3.137 -1.728,0 0.526,8.26 2.489,0 0.808,-2.77 c 0.27,-0.943 0.514,-1.973 0.698,-2.941 l 0.049,0 c 0.22,0.955 0.503,2.035 0.785,2.965 l 0.869,2.746 2.451,0 0.441,-8.26 -1.813,0 L 0,0 z"
             style="fill:#ede82c;fill-opacity:1;fill-rule:nonzero;stroke:none"
             id="path678" /></g><g
           id="g680"
           transform="translate(496.6797,54.4648)"><path
             d="m 0,0 c 0.16,-0.035 0.355,-0.049 0.625,-0.049 0.992,0 1.605,0.504 1.605,1.336 C 2.23,2.047 1.715,2.5 0.771,2.5 0.393,2.5 0.135,2.477 0,2.439 L 0,0 z m -1.85,3.75 c 0.577,0.098 1.385,0.172 2.524,0.172 1.152,0 1.985,-0.221 2.537,-0.674 C 3.737,2.844 4.08,2.158 4.08,1.348 4.08,0.527 3.823,-0.158 3.333,-0.611 2.695,-1.199 1.74,-1.482 0.637,-1.482 0.393,-1.482 0.172,-1.469 0,-1.434 l 0,-2.964 -1.85,0 0,8.148 z"
             style="fill:#ede82c;fill-opacity:1;fill-rule:nonzero;stroke:none"
             id="path682" /></g><g
           id="g684"
           transform="translate(503.8115,58.3262)"><path
             d="m 0,0 0,-4.742 c 0,-1.434 0.552,-2.156 1.495,-2.156 0.981,0 1.52,0.685 1.52,2.156 l 0,4.742 1.862,0 0,-4.633 c 0,-2.549 -1.286,-3.762 -3.443,-3.762 -2.083,0 -3.296,1.165 -3.296,3.788 L -1.862,0 0,0 z"
             style="fill:#ede82c;fill-opacity:1;fill-rule:nonzero;stroke:none"
             id="path686" /></g><g
           id="g688"
           transform="translate(511.9121,56.7578)"><path
             d="m 0,0 -2.23,0 0,1.568 6.347,0 0,-1.568 -2.254,0 0,-6.691 L 0,-6.691 0,0 z"
             style="fill:#ede82c;fill-opacity:1;fill-rule:nonzero;stroke:none"
             id="path690" /></g><g
           id="g692"
           transform="translate(521.9355,53.5586)"><path
             d="m 0,0 -3.038,0 0,-1.961 3.393,0 0,-1.531 -5.255,0 0,8.26 5.084,0 0,-1.534 -3.222,0 0,-1.714 L 0,1.52 0,0 z"
             style="fill:#ede82c;fill-opacity:1;fill-rule:nonzero;stroke:none"
             id="path694" /></g><g
           id="g696"
           transform="translate(525.416,54.6621)"><path
             d="M 0,0 0.736,0 C 1.667,0 2.219,0.465 2.219,1.187 2.219,1.936 1.703,2.328 0.846,2.328 0.393,2.328 0.135,2.303 0,2.266 L 0,0 z m -1.85,3.541 c 0.601,0.109 1.483,0.184 2.488,0.184 1.225,0 2.083,-0.184 2.671,-0.662 C 3.812,2.67 4.081,2.096 4.081,1.336 4.081,0.293 3.334,-0.43 2.623,-0.687 l 0,-0.036 c 0.576,-0.234 0.895,-0.773 1.103,-1.533 0.256,-0.943 0.503,-2.021 0.661,-2.34 l -1.911,0 C 2.354,-4.363 2.145,-3.689 1.912,-2.672 1.68,-1.631 1.324,-1.361 0.553,-1.348 l -0.553,0 0,-3.248 -1.85,0 0,8.137 z"
             style="fill:#ede82c;fill-opacity:1;fill-rule:nonzero;stroke:none"
             id="path698" /></g><g
           id="g700"
           transform="translate(538.2227,53.5586)"><path
             d="m 0,0 -3.039,0 0,-1.961 3.394,0 0,-1.531 -5.256,0 0,8.26 5.085,0 0,-1.534 -3.223,0 0,-1.714 L 0,1.52 0,0 z"
             style="fill:#ede82c;fill-opacity:1;fill-rule:nonzero;stroke:none"
             id="path702" /></g><g
           id="g704"
           transform="translate(539.8535,50.0664)"><path
             d="m 0,0 0,8.26 2.181,0 1.715,-3.028 C 4.387,4.363 4.863,3.334 5.244,2.402 l 0.025,0 C 5.158,3.492 5.121,4.607 5.121,5.857 l 0,2.403 1.716,0 L 6.837,0 4.876,0 3.111,3.186 C 2.621,4.08 2.07,5.135 1.678,6.102 l -0.049,0 C 1.69,5 1.715,3.836 1.715,2.488 L 1.715,0 0,0 z"
             style="fill:#ede82c;fill-opacity:1;fill-rule:nonzero;stroke:none"
             id="path706" /></g><g
           id="g708"
           transform="translate(555.207,50.4473)"><path
             d="m 0,0 c -0.576,-0.197 -1.666,-0.467 -2.757,-0.467 -1.507,0 -2.597,0.381 -3.357,1.104 -0.747,0.722 -1.164,1.801 -1.164,3.013 0.012,2.745 2.009,4.313 4.717,4.313 1.067,0 1.887,-0.207 2.291,-0.391 L -0.662,6.064 c -0.453,0.209 -1.004,0.356 -1.911,0.356 -1.556,0 -2.745,-0.883 -2.745,-2.672 0,-1.715 1.079,-2.707 2.61,-2.707 0.417,0 0.76,0.049 0.907,0.109 l 0,1.741 -1.275,0 0,1.459 L 0,4.35 0,0 z"
             style="fill:#ede82c;fill-opacity:1;fill-rule:nonzero;stroke:none"
             id="path710" /></g><path
           d="m 558.541,50.066 -1.862,0 0,8.26 1.862,0 0,-8.26 z"
           style="fill:#ede82c;fill-opacity:1;fill-rule:nonzero;stroke:none"
           id="path712" /><g
           id="g714"
           transform="translate(560.1582,50.0664)"><path
             d="m 0,0 0,8.26 2.182,0 1.714,-3.028 C 4.387,4.363 4.865,3.334 5.244,2.402 l 0.026,0 C 5.159,3.492 5.122,4.607 5.122,5.857 l 0,2.403 1.716,0 L 6.838,0 4.877,0 3.113,3.186 C 2.623,4.08 2.071,5.135 1.68,6.102 l -0.049,0 C 1.691,5 1.716,3.836 1.716,2.488 L 1.716,0 0,0 z"
             style="fill:#ede82c;fill-opacity:1;fill-rule:nonzero;stroke:none"
             id="path716" /></g><g
           id="g718"
           transform="translate(573.5283,53.5586)"><path
             d="m 0,0 -3.038,0 0,-1.961 3.393,0 0,-1.531 -5.256,0 0,8.26 5.085,0 0,-1.534 -3.222,0 0,-1.714 L 0,1.52 0,0 z"
             style="fill:#ede82c;fill-opacity:1;fill-rule:nonzero;stroke:none"
             id="path720" /></g><g
           id="g722"
           transform="translate(580.0723,53.5586)"><path
             d="m 0,0 -3.039,0 0,-1.961 3.394,0 0,-1.531 -5.256,0 0,8.26 5.085,0 0,-1.534 -3.223,0 0,-1.714 L 0,1.52 0,0 z"
             style="fill:#ede82c;fill-opacity:1;fill-rule:nonzero;stroke:none"
             id="path724" /></g><g
           id="g726"
           transform="translate(583.5527,54.6621)"><path
             d="M 0,0 0.735,0 C 1.666,0 2.218,0.465 2.218,1.187 2.218,1.936 1.703,2.328 0.846,2.328 0.393,2.328 0.135,2.303 0,2.266 L 0,0 z m -1.85,3.541 c 0.6,0.109 1.483,0.184 2.487,0.184 1.226,0 2.084,-0.184 2.672,-0.662 C 3.811,2.67 4.08,2.096 4.08,1.336 4.08,0.293 3.333,-0.43 2.622,-0.687 l 0,-0.036 c 0.576,-0.234 0.895,-0.773 1.103,-1.533 0.257,-0.943 0.503,-2.021 0.662,-2.34 l -1.912,0 c -0.122,0.233 -0.33,0.907 -0.563,1.924 -0.233,1.041 -0.589,1.311 -1.36,1.324 l -0.552,0 0,-3.248 -1.85,0 0,8.137 z"
             style="fill:#ede82c;fill-opacity:1;fill-rule:nonzero;stroke:none"
             id="path728" /></g><path
           d="m 590.845,50.066 -1.862,0 0,8.26 1.862,0 0,-8.26 z"
           style="fill:#ede82c;fill-opacity:1;fill-rule:nonzero;stroke:none"
           id="path730" /><g
           id="g732"
           transform="translate(592.4619,50.0664)"><path
             d="m 0,0 0,8.26 2.181,0 1.715,-3.028 C 4.387,4.363 4.864,3.334 5.244,2.402 l 0.025,0 C 5.159,3.492 5.122,4.607 5.122,5.857 l 0,2.403 1.715,0 0,-8.26 -1.96,0 -1.765,3.186 C 2.622,4.08 2.071,5.135 1.679,6.102 l -0.049,0 C 1.69,5 1.716,3.836 1.716,2.488 L 1.716,0 0,0 z"
             style="fill:#ede82c;fill-opacity:1;fill-rule:nonzero;stroke:none"
             id="path734" /></g><g
           id="g736"
           transform="translate(607.8164,50.4473)"><path
             d="m 0,0 c -0.576,-0.197 -1.666,-0.467 -2.757,-0.467 -1.507,0 -2.597,0.381 -3.357,1.104 -0.747,0.722 -1.164,1.801 -1.164,3.013 0.012,2.745 2.009,4.313 4.717,4.313 1.067,0 1.887,-0.207 2.291,-0.391 L -0.662,6.064 c -0.453,0.209 -1.004,0.356 -1.911,0.356 -1.556,0 -2.745,-0.883 -2.745,-2.672 0,-1.715 1.079,-2.707 2.61,-2.707 0.417,0 0.76,0.049 0.907,0.109 l 0,1.741 -1.275,0 0,1.459 L 0,4.35 0,0 z"
             style="fill:#ede82c;fill-opacity:1;fill-rule:nonzero;stroke:none"
             id="path738" /></g></g></g><text
       transform="matrix(1,0,0,-1,37.1489,161.5088)"
       id="text740"><tspan
         style="fill:#ede82c;fill-opacity:1;fill-rule:nonzero;stroke:none;font-family:DIN Black;font-variant:normal;font-weight:900;font-stretch:normal;font-size:21;writing-mode:lr;-inkscape-font-specification:DIN-Black"
         x="0 11.676 23.352 28.014 41.727 55.44 69.132 75.831 87.927 92.589 104.265 115.941 127.617 139.293 143.955 151.599 156.261 167.937 179.613 191.646 203.322"
         y="0"
         sodipodi:role="line"
         id="tspan742">30 ABRIL 2014 | 14h30</tspan><tspan
         style="fill:#ede82c;fill-opacity:1;fill-rule:nonzero;stroke:none;font-family:DIN Black;font-variant:normal;font-weight:900;font-stretch:normal;font-size:21;writing-mode:lr;-inkscape-font-specification:DIN-Black"
         x="0 13.587 27.279 40.992 55.692 69.363 82.131 86.793 100.506 114.366 128.037 134.736 146.601 160.041 173.733 180.432"
         y="25.2"
         sodipodi:role="line"
         id="tspan744">GRANDE AUDITÓRIO</tspan><tspan
         style="fill:#ede82c;fill-opacity:1;fill-rule:nonzero;stroke:none;font-family:DIN Black;font-variant:normal;font-weight:900;font-stretch:normal;font-size:21;writing-mode:lr;-inkscape-font-specification:DIN-Black"
         x="0 11.256 24.759 37.548 51.408 63.504 76.965 90.678 104.349 117.117 121.779 135.45 148.218 152.88 165.648 180.348 193.935 206.703 221.403 235.683 249.396 263.088 269.787"
         y="82.026"
         sodipodi:role="line"
         id="tspan746">FACULDADE DE ENGENHARIA</tspan><tspan
         style="fill:#ede82c;fill-opacity:1;fill-rule:nonzero;stroke:none;font-family:DIN Black;font-variant:normal;font-weight:900;font-stretch:normal;font-size:21;writing-mode:lr;-inkscape-font-specification:DIN-Black"
         x="0 13.461 27.174 31.836 45.696 60.396 67.095 79.716 92.484 106.176 118.629 125.328 138.789 152.502 166.173 178.941 183.603 197.274 210.714 215.376 228.543 241.983 255.675 267.54"
         y="107.226"
         sodipodi:role="line"
         id="tspan748">DA UNIVERSIDADE DO PORTO</tspan></text>
</g></svg>