<?xml version="1.0" encoding="UTF-8" standalone="no"?>
<!-- Created with Inkscape (http://www.inkscape.org/) -->

<svg
   xmlns:dc="http://purl.org/dc/elements/1.1/"
   xmlns:cc="http://creativecommons.org/ns#"
   xmlns:rdf="http://www.w3.org/1999/02/22-rdf-syntax-ns#"
   xmlns:svg="http://www.w3.org/2000/svg"
   xmlns="http://www.w3.org/2000/svg"
   xmlns:sodipodi="http://sodipodi.sourceforge.net/DTD/sodipodi-0.dtd"
   xmlns:inkscape="http://www.inkscape.org/namespaces/inkscape"
   width="36.476379"
   height="36.464947"
   id="svg3930"
   version="1.1"
   inkscape:version="0.48.2 r9819"
   sodipodi:docname="New document 6">
  <defs
     id="defs3932" />
  <sodipodi:namedview
     id="base"
     pagecolor="#ffffff"
     bordercolor="#666666"
     borderopacity="1.0"
     inkscape:pageopacity="0.0"
     inkscape:pageshadow="2"
     inkscape:zoom="0.35"
     inkscape:cx="-166.76181"
     inkscape:cy="-221.76752"
     inkscape:document-units="px"
     inkscape:current-layer="layer1"
     showgrid="false"
     fit-margin-top="0"
     fit-margin-left="0"
     fit-margin-right="0"
     fit-margin-bottom="0"
     inkscape:window-width="483"
     inkscape:window-height="454"
     inkscape:window-x="506"
     inkscape:window-y="260"
     inkscape:window-maximized="0" />
  <metadata
     id="metadata3935">
    <rdf:RDF>
      <cc:Work
         rdf:about="">
        <dc:format>image/svg+xml</dc:format>
        <dc:type
           rdf:resource="http://purl.org/dc/dcmitype/StillImage" />
        <dc:title></dc:title>
      </cc:Work>
    </rdf:RDF>
  </metadata>
  <g
     inkscape:label="Layer 1"
     inkscape:groupmode="layer"
     id="layer1"
     transform="translate(-541.76181,-274.12971)">
    <g
       transform="matrix(1.25,0,0,-1.25,481.76245,578.73766)"
       id="g3877">
      <g
         transform="translate(49.9546,238.8857)"
         id="g712">
        <path
           inkscape:connector-curvature="0"
           id="path714"
           style="fill:#fdb82f;fill-opacity:1;fill-rule:nonzero;stroke:none"
           d="m 0,0 c -0.149,-0.236 -0.118,-0.521 -0.129,-0.785 0.02,-1.506 -0.008,-3.02 0.011,-4.526 -0.011,-1.837 -0.011,-3.675 0,-5.516 -0.011,-2.124 -0.011,-4.258 0,-6.381 -0.019,-1.405 0.009,-2.822 -0.011,-4.229 0.011,-0.275 -0.02,-0.559 0.098,-0.815 0.139,-0.256 0.452,-0.284 0.709,-0.296 7.64,0.012 15.282,0 22.923,0 0.481,0.02 0.963,-0.05 1.434,0.069 0.344,0.12 0.363,0.542 0.363,0.846 -0.008,1.476 0,2.95 -0.008,4.425 0.008,2.192 0.008,4.395 0,6.59 0.008,1.769 0.008,3.538 0,5.307 0.019,1.506 -0.011,3.02 0.008,4.526 -0.008,0.264 0.021,0.549 -0.127,0.785 -0.207,0.267 -0.59,0.227 -0.884,0.235 -1.18,-0.008 -2.361,0.012 -3.551,-0.008 -0.019,-0.63 0.02,-1.27 -0.019,-1.897 -0.01,-0.403 -0.354,-0.768 -0.758,-0.816 -0.491,-0.08 -1.013,0.312 -1.043,0.816 -0.028,0.627 0.012,1.267 -0.019,1.897 -1.809,0.008 -3.628,0.02 -5.448,0 -0.021,-0.63 0.021,-1.27 -0.021,-1.897 -0.007,-0.474 -0.479,-0.856 -0.942,-0.827 -0.432,0.03 -0.835,0.384 -0.845,0.827 -0.04,0.627 0,1.267 -0.021,1.897 -1.819,0.02 -3.637,0.02 -5.446,0 C 6.245,-0.403 6.282,-1.043 6.252,-1.67 6.232,-2.073 5.889,-2.41 5.506,-2.478 5.004,-2.584 4.464,-2.183 4.455,-1.67 c -0.041,0.627 0,1.267 -0.021,1.897 -1.189,0.02 -2.371,0 -3.55,0.008 C 0.58,0.227 0.206,0.267 0,0 M 4.464,4.014 C 4.493,4.444 4.896,4.79 5.318,4.8 5.761,4.818 6.195,4.465 6.232,4.014 c 0.069,-0.65 0.013,-1.3 0.033,-1.95 1.818,-0.008 3.636,-0.008 5.455,0 0.021,0.65 -0.029,1.3 0.031,1.95 0.029,0.402 0.363,0.726 0.766,0.776 0.473,0.078 0.963,-0.296 1.004,-0.776 0.058,-0.65 0.007,-1.3 0.028,-1.95 1.82,-0.008 3.639,-0.008 5.459,0 0.02,0.65 -0.041,1.3 0.029,1.95 0.027,0.451 0.472,0.804 0.915,0.786 0.423,-0.01 0.816,-0.356 0.855,-0.786 0.059,-0.65 0.01,-1.3 0.029,-1.95 1.151,-0.008 2.302,0 3.453,0 0.441,0 0.895,0 1.315,-0.146 0.887,-0.305 1.555,-1.171 1.594,-2.114 0.039,-1.111 0,-2.233 0.02,-3.343 0,-5.831 -0.01,-11.674 0,-17.504 0.03,-0.768 -0.01,-1.573 -0.374,-2.272 -0.521,-0.58 -1.24,-1.061 -2.065,-1.04 -7.728,-0.011 -15.468,0 -23.206,-0.011 -0.728,0.011 -1.504,-0.09 -2.174,0.265 -0.363,0.206 -0.698,0.482 -0.983,0.786 -0.354,0.699 -0.393,1.504 -0.363,2.272 0.009,5.83 0,11.673 0,17.504 0.021,1.08 -0.011,2.163 0.009,3.254 0.012,0.914 0.61,1.79 1.455,2.144 0.463,0.205 0.973,0.205 1.465,0.205 1.15,-0.008 2.302,-0.008 3.452,0 0.021,0.65 -0.03,1.3 0.03,1.95" />
      </g>
      <g
         transform="translate(54.3989,232.7607)"
         id="g716">
        <path
           inkscape:connector-curvature="0"
           id="path718"
           style="fill:#fdb82f;fill-opacity:1;fill-rule:nonzero;stroke:none"
           d="M 0,0 C 1.2,-0.01 2.409,-0.01 3.618,0 3.659,-0.916 3.639,-1.83 3.627,-2.744 2.419,-2.754 1.2,-2.754 -0.01,-2.744 0,-1.83 -0.01,-0.916 0,0" />
      </g>
      <g
         transform="translate(60.7803,232.7607)"
         id="g720">
        <path
           inkscape:connector-curvature="0"
           id="path722"
           style="fill:#fdb82f;fill-opacity:1;fill-rule:nonzero;stroke:none"
           d="M 0,0 C 1.21,-0.01 2.409,-0.01 3.619,0 3.64,-0.916 3.628,-1.83 3.628,-2.744 2.42,-2.754 1.2,-2.754 -0.009,-2.744 -0.009,-1.83 -0.031,-0.916 0,0" />
      </g>
      <g
         transform="translate(67.1626,232.7607)"
         id="g724">
        <path
           inkscape:connector-curvature="0"
           id="path726"
           style="fill:#fdb82f;fill-opacity:1;fill-rule:nonzero;stroke:none"
           d="m 0,0 c 1.209,-0.01 2.419,-0.01 3.618,0 0.01,-0.916 0,-1.83 0.01,-2.744 -1.209,-0.01 -2.429,-0.01 -3.638,0 C -0.02,-1.83 -0.04,-0.916 0,0" />
      </g>
      <g
         transform="translate(54.4092,228.2168)"
         id="g728">
        <path
           inkscape:connector-curvature="0"
           id="path730"
           style="fill:#fdb82f;fill-opacity:1;fill-rule:nonzero;stroke:none"
           d="m 0,0 c 1.2,-0.06 2.409,0 3.617,-0.029 0.012,-0.935 0.041,-1.859 -0.028,-2.784 -1.2,0.11 -2.4,0.031 -3.599,0.041 0,0.923 -0.011,1.848 0.01,2.772" />
      </g>
      <g
         transform="translate(60.771,228.1875)"
         id="g732">
        <path
           inkscape:connector-curvature="0"
           id="path734"
           style="fill:#fdb82f;fill-opacity:1;fill-rule:nonzero;stroke:none"
           d="m 0,0 c 1.209,0.009 2.429,0.009 3.638,0 0.011,-0.914 0,-1.829 -0.01,-2.743 -1.21,0.01 -2.409,0.01 -3.619,0 C -0.009,-1.829 -0.009,-0.914 0,0" />
      </g>
      <g
         transform="translate(67.1523,228.1875)"
         id="g736">
        <path
           inkscape:connector-curvature="0"
           id="path738"
           style="fill:#fdb82f;fill-opacity:1;fill-rule:nonzero;stroke:none"
           d="M 0,0 C 1.209,0.029 2.418,-0.03 3.619,0.029 3.639,-0.895 3.639,-1.819 3.628,-2.743 2.43,-2.753 1.22,-2.674 0.028,-2.783 -0.021,-1.858 -0.021,-0.935 0,0" />
      </g>
      <g
         transform="translate(54.3887,223.6348)"
         id="g740">
        <path
           inkscape:connector-curvature="0"
           id="path742"
           style="fill:#fdb82f;fill-opacity:1;fill-rule:nonzero;stroke:none"
           d="M 0,0 3.638,0 C 3.649,-0.903 3.669,-1.819 3.628,-2.724 2.419,-2.742 1.21,-2.724 0,-2.733 l 0,0.776 C 0,-1.308 0.01,-0.658 0,0" />
      </g>
      <g
         transform="translate(60.771,223.6348)"
         id="g744">
        <path
           inkscape:connector-curvature="0"
           id="path746"
           style="fill:#fdb82f;fill-opacity:1;fill-rule:nonzero;stroke:none"
           d="m 0,0 c 1.209,-0.009 2.429,-0.009 3.638,0 -0.01,-0.925 0.068,-1.859 -0.069,-2.773 -1.16,0.068 -2.34,0.068 -3.499,0 C -0.07,-1.859 0.009,-0.925 0,0" />
      </g>
      <g
         transform="translate(67.1523,223.6348)"
         id="g748">
        <path
           inkscape:connector-curvature="0"
           id="path750"
           style="fill:#fdb82f;fill-opacity:1;fill-rule:nonzero;stroke:none"
           d="m 0,0 3.639,0 c -0.011,-0.658 0,-1.308 0,-1.957 l 0,-0.776 C 2.43,-2.724 1.22,-2.742 0.01,-2.724 -0.029,-1.819 -0.009,-0.903 0,0" />
      </g>
    </g>
  </g>
</svg>
