<?xml version="1.0" encoding="UTF-8" standalone="no"?>
<!-- Created with Inkscape (http://www.inkscape.org/) -->

<svg
   xmlns:dc="http://purl.org/dc/elements/1.1/"
   xmlns:cc="http://creativecommons.org/ns#"
   xmlns:rdf="http://www.w3.org/1999/02/22-rdf-syntax-ns#"
   xmlns:svg="http://www.w3.org/2000/svg"
   xmlns="http://www.w3.org/2000/svg"
   xmlns:sodipodi="http://sodipodi.sourceforge.net/DTD/sodipodi-0.dtd"
   xmlns:inkscape="http://www.inkscape.org/namespaces/inkscape"
   width="208.93988"
   height="57.915874"
   id="svg4328"
   version="1.1"
   inkscape:version="0.48.4 r9939"
   sodipodi:docname="New document 2">
  <defs
     id="defs4330" />
  <sodipodi:namedview
     id="base"
     pagecolor="#ffffff"
     bordercolor="#666666"
     borderopacity="1.0"
     inkscape:pageopacity="0.0"
     inkscape:pageshadow="2"
     inkscape:zoom="2.8"
     inkscape:cx="142.92333"
     inkscape:cy="9.9747203"
     inkscape:document-units="px"
     inkscape:current-layer="layer1"
     showgrid="false"
     fit-margin-top="0"
     fit-margin-left="0"
     fit-margin-right="0"
     fit-margin-bottom="0"
     inkscape:window-width="1440"
     inkscape:window-height="876"
     inkscape:window-x="0"
     inkscape:window-y="24"
     inkscape:window-maximized="1" />
  <metadata
     id="metadata4333">
    <rdf:RDF>
      <cc:Work
         rdf:about="">
        <dc:format>image/svg+xml</dc:format>
        <dc:type
           rdf:resource="http://purl.org/dc/dcmitype/StillImage" />
        <dc:title></dc:title>
      </cc:Work>
    </rdf:RDF>
  </metadata>
  <g
     inkscape:label="Layer 1"
     inkscape:groupmode="layer"
     id="layer1"
     transform="translate(-178.38723,-454.83282)">
    <g
       transform="matrix(1.25,0,0,-1.25,-372.44339,575.16269)"
       id="g4129">
      <g
         transform="translate(445.7979,82.2969)"
         id="g554">
        <path
           inkscape:connector-curvature="0"
           id="path556"
           style="fill:#fcb514;fill-opacity:1;fill-rule:nonzero;stroke:none"
           d="M 0,0 C 0.318,-0.074 0.857,-0.074 1.299,-0.074 4.705,-0.1 6.935,1.764 6.935,5.709 6.935,9.262 4.926,10.953 1.69,10.953 0.882,10.953 0.318,10.879 0,10.807 L 0,0 z m -3.726,13.453 c 1.373,0.244 3.163,0.367 5.025,0.367 3.161,0 5.22,-0.513 6.788,-1.715 C 9.802,10.83 10.88,8.771 10.88,5.832 10.88,2.67 9.729,0.49 8.16,-0.857 6.421,-2.305 3.749,-2.99 0.515,-2.99 c -1.936,0 -3.333,0.123 -4.241,0.244 l 0,16.199 z" />
      </g>
      <g
         transform="translate(468.959,86.4629)"
         id="g558">
        <path
           inkscape:connector-curvature="0"
           id="path560"
           style="fill:#fcb514;fill-opacity:1;fill-rule:nonzero;stroke:none"
           d="m 0,0 -6.078,0 0,-3.922 6.788,0 0,-3.062 -10.513,0 0,16.515 10.17,0 0,-3.062 -6.445,0 0,-3.432 L 0,3.037 0,0 z" />
      </g>
      <g
         transform="translate(482.0469,86.4629)"
         id="g562">
        <path
           inkscape:connector-curvature="0"
           id="path564"
           style="fill:#fcb514;fill-opacity:1;fill-rule:nonzero;stroke:none"
           d="m 0,0 -6.078,0 0,-3.922 6.789,0 0,-3.062 -10.514,0 0,16.515 10.17,0 0,-3.062 -6.445,0 0,-3.432 L 0,3.037 0,0 z" />
      </g>
      <g
         transform="translate(497.4141,79.9199)"
         id="g566">
        <path
           inkscape:connector-curvature="0"
           id="path568"
           style="fill:#fcb514;fill-opacity:1;fill-rule:nonzero;stroke:none"
           d="m 0,0 c -0.662,-0.32 -2.23,-0.711 -4.215,-0.711 -5.711,0 -8.65,3.578 -8.65,8.307 0,5.636 4.017,8.748 9.017,8.748 1.936,0 3.407,-0.391 4.069,-0.735 l -0.785,-2.941 c -0.735,0.318 -1.79,0.613 -3.137,0.613 -2.941,0 -5.244,-1.789 -5.244,-5.488 0,-3.309 1.961,-5.393 5.269,-5.393 1.152,0 2.377,0.221 3.137,0.539 L 0,0 z" />
      </g>
      <g
         transform="translate(443.127,66.1816)"
         id="g570">
        <path
           inkscape:connector-curvature="0"
           id="path572"
           style="fill:#fcb514;fill-opacity:1;fill-rule:nonzero;stroke:none"
           d="M 0,0 C 0.159,-0.037 0.429,-0.037 0.648,-0.037 2.352,-0.049 3.467,0.881 3.467,2.854 3.467,4.631 2.463,5.477 0.846,5.477 0.441,5.477 0.159,5.439 0,5.402 L 0,0 z M -1.863,6.727 C -1.177,6.85 -0.282,6.91 0.648,6.91 2.229,6.91 3.259,6.652 4.043,6.053 4.9,5.416 5.439,4.387 5.439,2.916 5.439,1.336 4.864,0.244 4.08,-0.43 3.21,-1.152 1.875,-1.496 0.257,-1.496 c -0.968,0 -1.666,0.062 -2.12,0.123 l 0,8.1 z" />
      </g>
      <g
         transform="translate(454.707,68.2637)"
         id="g574">
        <path
           inkscape:connector-curvature="0"
           id="path576"
           style="fill:#fcb514;fill-opacity:1;fill-rule:nonzero;stroke:none"
           d="m 0,0 -3.039,0 0,-1.961 3.394,0 0,-1.531 -5.256,0 0,8.26 5.085,0 0,-1.534 -3.223,0 0,-1.714 L 0,1.52 0,0 z" />
      </g>
      <g
         transform="translate(458.1875,69.1699)"
         id="g578">
        <path
           inkscape:connector-curvature="0"
           id="path580"
           style="fill:#fcb514;fill-opacity:1;fill-rule:nonzero;stroke:none"
           d="m 0,0 c 0.16,-0.035 0.355,-0.049 0.625,-0.049 0.992,0 1.605,0.504 1.605,1.336 C 2.23,2.047 1.715,2.5 0.771,2.5 0.393,2.5 0.135,2.477 0,2.439 L 0,0 z m -1.85,3.75 c 0.577,0.098 1.385,0.172 2.524,0.172 1.152,0 1.985,-0.221 2.537,-0.674 C 3.737,2.844 4.08,2.158 4.08,1.348 4.08,0.527 3.823,-0.158 3.333,-0.611 2.695,-1.199 1.74,-1.482 0.637,-1.482 0.393,-1.482 0.172,-1.469 0,-1.434 l 0,-2.964 -1.85,0 0,8.148 z" />
      </g>
      <g
         transform="translate(466.6562,68.2891)"
         id="g582">
        <path
           inkscape:connector-curvature="0"
           id="path584"
           style="fill:#fcb514;fill-opacity:1;fill-rule:nonzero;stroke:none"
           d="M 0,0 -0.516,1.752 C -0.65,2.242 -0.797,2.867 -0.92,3.344 l -0.036,0 C -1.066,2.854 -1.201,2.229 -1.324,1.752 L -1.826,0 0,0 z m -2.096,-1.396 -0.576,-2.122 -1.935,0 2.523,8.26 2.439,0 2.573,-8.26 -2.01,0 -0.637,2.122 -2.377,0 z" />
      </g>
      <g
         transform="translate(472.5381,69.3672)"
         id="g586">
        <path
           inkscape:connector-curvature="0"
           id="path588"
           style="fill:#fcb514;fill-opacity:1;fill-rule:nonzero;stroke:none"
           d="M 0,0 0.735,0 C 1.667,0 2.218,0.465 2.218,1.187 2.218,1.936 1.703,2.328 0.846,2.328 0.392,2.328 0.135,2.303 0,2.266 L 0,0 z M -1.851,3.541 C -1.249,3.65 -0.367,3.725 0.638,3.725 1.862,3.725 2.72,3.541 3.309,3.063 3.811,2.67 4.081,2.096 4.081,1.336 4.081,0.293 3.333,-0.43 2.622,-0.687 l 0,-0.036 c 0.576,-0.234 0.895,-0.773 1.104,-1.533 0.256,-0.943 0.502,-2.021 0.661,-2.34 l -1.911,0 c -0.123,0.233 -0.331,0.907 -0.565,1.924 -0.232,1.041 -0.588,1.311 -1.359,1.324 l -0.552,0 0,-3.248 -1.851,0 0,8.137 z" />
      </g>
      <g
         transform="translate(479.4746,71.4629)"
         id="g590">
        <path
           inkscape:connector-curvature="0"
           id="path592"
           style="fill:#fcb514;fill-opacity:1;fill-rule:nonzero;stroke:none"
           d="m 0,0 -2.23,0 0,1.568 6.347,0 0,-1.568 -2.255,0 0,-6.691 L 0,-6.691 0,0 z" />
      </g>
      <g
         transform="translate(491.5195,67.9336)"
         id="g594">
        <path
           inkscape:connector-curvature="0"
           id="path596"
           style="fill:#fcb514;fill-opacity:1;fill-rule:nonzero;stroke:none"
           d="m 0,0 c -0.037,0.992 -0.073,2.18 -0.073,3.395 l -0.025,0 C -0.367,2.34 -0.711,1.164 -1.029,0.195 l -1.004,-3.222 -1.459,0 -0.882,3.185 c -0.27,0.981 -0.539,2.145 -0.747,3.237 l -0.025,0 C -5.183,2.279 -5.231,1.004 -5.281,-0.025 l -0.158,-3.137 -1.729,0 0.527,8.26 2.488,0 0.808,-2.77 c 0.27,-0.943 0.515,-1.973 0.699,-2.941 l 0.048,0 c 0.221,0.955 0.503,2.035 0.786,2.965 l 0.869,2.746 2.451,0 0.441,-8.26 -1.814,0 L 0,0 z" />
      </g>
      <g
         transform="translate(499.8164,68.2637)"
         id="g598">
        <path
           inkscape:connector-curvature="0"
           id="path600"
           style="fill:#fcb514;fill-opacity:1;fill-rule:nonzero;stroke:none"
           d="m 0,0 -3.038,0 0,-1.961 3.393,0 0,-1.531 -5.255,0 0,8.26 5.084,0 0,-1.534 -3.222,0 0,-1.714 L 0,1.52 0,0 z" />
      </g>
      <g
         transform="translate(501.4473,64.7715)"
         id="g602">
        <path
           inkscape:connector-curvature="0"
           id="path604"
           style="fill:#fcb514;fill-opacity:1;fill-rule:nonzero;stroke:none"
           d="m 0,0 0,8.26 2.182,0 1.714,-3.028 C 4.387,4.363 4.864,3.334 5.244,2.402 l 0.025,0 C 5.158,3.492 5.121,4.607 5.121,5.857 l 0,2.403 1.716,0 0,-8.26 -1.96,0 -1.765,3.186 C 2.622,4.08 2.07,5.135 1.679,6.102 l -0.049,0 C 1.691,5 1.715,3.836 1.715,2.488 L 1.715,0 0,0 z" />
      </g>
      <g
         transform="translate(511.5078,71.4629)"
         id="g606">
        <path
           inkscape:connector-curvature="0"
           id="path608"
           style="fill:#fcb514;fill-opacity:1;fill-rule:nonzero;stroke:none"
           d="m 0,0 -2.23,0 0,1.568 6.347,0 0,-1.568 -2.254,0 0,-6.691 L 0,-6.691 0,0 z" />
      </g>
      <g
         transform="translate(522.6836,66.1191)"
         id="g610">
        <path
           inkscape:connector-curvature="0"
           id="path612"
           style="fill:#fcb514;fill-opacity:1;fill-rule:nonzero;stroke:none"
           d="M 0,0 C 1.262,0 1.985,1.189 1.985,2.807 1.985,4.289 1.287,5.562 0,5.562 -1.286,5.562 -2.01,4.314 -2.01,2.77 -2.01,1.213 -1.262,0 -0.012,0 L 0,0 z m -0.086,-1.482 c -2.437,0 -3.884,1.851 -3.884,4.203 0,2.474 1.593,4.326 4.019,4.326 2.537,0 3.922,-1.901 3.922,-4.18 0,-2.719 -1.63,-4.349 -4.044,-4.349 l -0.013,0 z" />
      </g>
      <g
         transform="translate(527.8926,73.0313)"
         id="g614">
        <path
           inkscape:connector-curvature="0"
           id="path616"
           style="fill:#fcb514;fill-opacity:1;fill-rule:nonzero;stroke:none"
           d="m 0,0 5.036,0 0,-1.533 -3.173,0 0,-1.887 2.965,0 0,-1.519 -2.965,0 0,-3.321 L 0,-8.26 0,0 z" />
      </g>
      <g
         transform="translate(541.7275,68.2637)"
         id="g618">
        <path
           inkscape:connector-curvature="0"
           id="path620"
           style="fill:#fcb514;fill-opacity:1;fill-rule:nonzero;stroke:none"
           d="m 0,0 -3.038,0 0,-1.961 3.393,0 0,-1.531 -5.256,0 0,8.26 5.085,0 0,-1.534 -3.222,0 0,-1.714 L 0,1.52 0,0 z" />
      </g>
      <g
         transform="translate(543.3701,73.0313)"
         id="g622">
        <path
           inkscape:connector-curvature="0"
           id="path624"
           style="fill:#fcb514;fill-opacity:1;fill-rule:nonzero;stroke:none"
           d="m 0,0 1.862,0 0,-6.691 3.284,0 0,-1.569 L 0,-8.26 0,0 z" />
      </g>
      <g
         transform="translate(554.5332,68.2637)"
         id="g626">
        <path
           inkscape:connector-curvature="0"
           id="path628"
           style="fill:#fcb514;fill-opacity:1;fill-rule:nonzero;stroke:none"
           d="m 0,0 -3.038,0 0,-1.961 3.393,0 0,-1.531 -5.255,0 0,8.26 5.084,0 0,-1.534 -3.222,0 0,-1.714 L 0,1.52 0,0 z" />
      </g>
      <g
         transform="translate(562.2168,64.9922)"
         id="g630">
        <path
           inkscape:connector-curvature="0"
           id="path632"
           style="fill:#fcb514;fill-opacity:1;fill-rule:nonzero;stroke:none"
           d="m 0,0 c -0.33,-0.158 -1.115,-0.355 -2.107,-0.355 -2.855,0 -4.326,1.789 -4.326,4.154 0,2.818 2.01,4.375 4.509,4.375 0.969,0 1.703,-0.197 2.034,-0.369 L -0.281,6.336 c -0.367,0.158 -0.895,0.305 -1.569,0.305 -1.47,0 -2.623,-0.895 -2.623,-2.745 0,-1.654 0.981,-2.695 2.635,-2.695 0.576,0 1.19,0.11 1.568,0.27 L 0,0 z" />
      </g>
      <g
         transform="translate(565.0605,71.4629)"
         id="g634">
        <path
           inkscape:connector-curvature="0"
           id="path636"
           style="fill:#fcb514;fill-opacity:1;fill-rule:nonzero;stroke:none"
           d="m 0,0 -2.23,0 0,1.568 6.347,0 0,-1.568 -2.254,0 0,-6.691 L 0,-6.691 0,0 z" />
      </g>
      <g
         transform="translate(572.0215,69.3672)"
         id="g638">
        <path
           inkscape:connector-curvature="0"
           id="path640"
           style="fill:#fcb514;fill-opacity:1;fill-rule:nonzero;stroke:none"
           d="M 0,0 0.734,0 C 1.666,0 2.217,0.465 2.217,1.187 2.217,1.936 1.703,2.328 0.846,2.328 0.392,2.328 0.135,2.303 0,2.266 L 0,0 z M -1.851,3.541 C -1.25,3.65 -0.367,3.725 0.637,3.725 1.862,3.725 2.72,3.541 3.309,3.063 3.811,2.67 4.08,2.096 4.08,1.336 4.08,0.293 3.332,-0.43 2.621,-0.687 l 0,-0.036 c 0.576,-0.234 0.895,-0.773 1.104,-1.533 0.257,-0.943 0.502,-2.021 0.662,-2.34 l -1.912,0 c -0.123,0.233 -0.33,0.907 -0.564,1.924 -0.233,1.041 -0.589,1.311 -1.36,1.324 l -0.551,0 0,-3.248 -1.851,0 0,8.137 z" />
      </g>
      <path
         inkscape:connector-curvature="0"
         id="path642"
         style="fill:#fcb514;fill-opacity:1;fill-rule:nonzero;stroke:none"
         d="m 579.312,64.771 -1.862,0 0,8.26 1.862,0 0,-8.26 z" />
      <g
         transform="translate(586.9834,64.9922)"
         id="g644">
        <path
           inkscape:connector-curvature="0"
           id="path646"
           style="fill:#fcb514;fill-opacity:1;fill-rule:nonzero;stroke:none"
           d="m 0,0 c -0.331,-0.158 -1.114,-0.355 -2.107,-0.355 -2.855,0 -4.326,1.789 -4.326,4.154 0,2.818 2.01,4.375 4.51,4.375 0.967,0 1.703,-0.197 2.033,-0.369 L -0.282,6.336 c -0.367,0.158 -0.894,0.305 -1.569,0.305 -1.469,0 -2.621,-0.895 -2.621,-2.745 0,-1.654 0.981,-2.695 2.634,-2.695 0.576,0 1.189,0.11 1.568,0.27 L 0,0 z" />
      </g>
      <g
         transform="translate(592.3516,68.2891)"
         id="g648">
        <path
           inkscape:connector-curvature="0"
           id="path650"
           style="fill:#fcb514;fill-opacity:1;fill-rule:nonzero;stroke:none"
           d="M 0,0 -0.516,1.752 C -0.65,2.242 -0.797,2.867 -0.92,3.344 l -0.036,0 C -1.066,2.854 -1.201,2.229 -1.324,1.752 L -1.826,0 0,0 z m -2.096,-1.396 -0.576,-2.122 -1.935,0 2.523,8.26 2.439,0 2.573,-8.26 -2.01,0 -0.637,2.122 -2.377,0 z" />
      </g>
      <g
         transform="translate(596.3955,73.0313)"
         id="g652">
        <path
           inkscape:connector-curvature="0"
           id="path654"
           style="fill:#fcb514;fill-opacity:1;fill-rule:nonzero;stroke:none"
           d="m 0,0 1.862,0 0,-6.691 3.284,0 0,-1.569 L 0,-8.26 0,0 z" />
      </g>
      <g
         transform="translate(445.2715,53.584)"
         id="g656">
        <path
           inkscape:connector-curvature="0"
           id="path658"
           style="fill:#fcb514;fill-opacity:1;fill-rule:nonzero;stroke:none"
           d="M 0,0 -0.516,1.752 C -0.65,2.242 -0.797,2.867 -0.92,3.344 l -0.036,0 C -1.066,2.854 -1.201,2.229 -1.324,1.752 L -1.826,0 0,0 z m -2.096,-1.396 -0.576,-2.122 -1.935,0 2.523,8.26 2.439,0 2.573,-8.26 -2.01,0 -0.637,2.122 -2.377,0 z" />
      </g>
      <g
         transform="translate(449.3027,50.0664)"
         id="g660">
        <path
           inkscape:connector-curvature="0"
           id="path662"
           style="fill:#fcb514;fill-opacity:1;fill-rule:nonzero;stroke:none"
           d="m 0,0 0,8.26 2.182,0 1.714,-3.028 C 4.387,4.363 4.865,3.334 5.244,2.402 l 0.026,0 C 5.159,3.492 5.122,4.607 5.122,5.857 l 0,2.403 1.716,0 L 6.838,0 4.877,0 3.113,3.186 C 2.623,4.08 2.071,5.135 1.68,6.102 l -0.049,0 C 1.691,5 1.716,3.836 1.716,2.488 L 1.716,0 0,0 z" />
      </g>
      <g
         transform="translate(459.6211,51.4766)"
         id="g664">
        <path
           inkscape:connector-curvature="0"
           id="path666"
           style="fill:#fcb514;fill-opacity:1;fill-rule:nonzero;stroke:none"
           d="M 0,0 C 0.16,-0.037 0.43,-0.037 0.649,-0.037 2.353,-0.049 3.468,0.881 3.468,2.854 3.468,4.631 2.463,5.477 0.846,5.477 0.441,5.477 0.16,5.439 0,5.402 L 0,0 z M -1.862,6.727 C -1.176,6.85 -0.281,6.91 0.649,6.91 2.23,6.91 3.26,6.652 4.043,6.053 4.901,5.416 5.44,4.387 5.44,2.916 5.44,1.336 4.865,0.244 4.08,-0.43 3.211,-1.152 1.875,-1.496 0.258,-1.496 c -0.969,0 -1.666,0.062 -2.12,0.123 l 0,8.1 z" />
      </g>
      <g
         transform="translate(474.8164,50.2871)"
         id="g668">
        <path
           inkscape:connector-curvature="0"
           id="path670"
           style="fill:#fcb514;fill-opacity:1;fill-rule:nonzero;stroke:none"
           d="m 0,0 c -0.33,-0.158 -1.115,-0.355 -2.107,-0.355 -2.855,0 -4.326,1.789 -4.326,4.154 0,2.818 2.01,4.375 4.509,4.375 0.969,0 1.703,-0.197 2.034,-0.369 L -0.281,6.336 c -0.367,0.158 -0.895,0.305 -1.569,0.305 -1.47,0 -2.623,-0.895 -2.623,-2.745 0,-1.654 0.981,-2.695 2.635,-2.695 0.576,0 1.19,0.11 1.568,0.27 L 0,0 z" />
      </g>
      <g
         transform="translate(479.2656,51.4141)"
         id="g672">
        <path
           inkscape:connector-curvature="0"
           id="path674"
           style="fill:#fcb514;fill-opacity:1;fill-rule:nonzero;stroke:none"
           d="M 0,0 C 1.262,0 1.984,1.189 1.984,2.807 1.984,4.289 1.286,5.562 0,5.562 -1.287,5.562 -2.01,4.314 -2.01,2.77 -2.01,1.213 -1.262,0 -0.012,0 L 0,0 z m -0.086,-1.482 c -2.438,0 -3.885,1.851 -3.885,4.203 0,2.474 1.594,4.326 4.02,4.326 2.536,0 3.921,-1.901 3.921,-4.18 0,-2.719 -1.63,-4.349 -4.044,-4.349 l -0.012,0 z" />
      </g>
      <g
         transform="translate(491.4463,53.2285)"
         id="g676">
        <path
           inkscape:connector-curvature="0"
           id="path678"
           style="fill:#fcb514;fill-opacity:1;fill-rule:nonzero;stroke:none"
           d="m 0,0 c -0.037,0.992 -0.073,2.18 -0.073,3.395 l -0.026,0 C -0.368,2.34 -0.711,1.164 -1.029,0.195 l -1.005,-3.222 -1.458,0 -0.882,3.185 c -0.27,0.981 -0.539,2.145 -0.748,3.237 l -0.024,0 C -5.183,2.279 -5.231,1.004 -5.281,-0.025 l -0.159,-3.137 -1.728,0 0.526,8.26 2.489,0 0.808,-2.77 c 0.27,-0.943 0.514,-1.973 0.698,-2.941 l 0.049,0 c 0.22,0.955 0.503,2.035 0.785,2.965 l 0.869,2.746 2.451,0 0.441,-8.26 -1.813,0 L 0,0 z" />
      </g>
      <g
         transform="translate(496.6797,54.4648)"
         id="g680">
        <path
           inkscape:connector-curvature="0"
           id="path682"
           style="fill:#fcb514;fill-opacity:1;fill-rule:nonzero;stroke:none"
           d="m 0,0 c 0.16,-0.035 0.355,-0.049 0.625,-0.049 0.992,0 1.605,0.504 1.605,1.336 C 2.23,2.047 1.715,2.5 0.771,2.5 0.393,2.5 0.135,2.477 0,2.439 L 0,0 z m -1.85,3.75 c 0.577,0.098 1.385,0.172 2.524,0.172 1.152,0 1.985,-0.221 2.537,-0.674 C 3.737,2.844 4.08,2.158 4.08,1.348 4.08,0.527 3.823,-0.158 3.333,-0.611 2.695,-1.199 1.74,-1.482 0.637,-1.482 0.393,-1.482 0.172,-1.469 0,-1.434 l 0,-2.964 -1.85,0 0,8.148 z" />
      </g>
      <g
         transform="translate(503.8115,58.3262)"
         id="g684">
        <path
           inkscape:connector-curvature="0"
           id="path686"
           style="fill:#fcb514;fill-opacity:1;fill-rule:nonzero;stroke:none"
           d="m 0,0 0,-4.742 c 0,-1.434 0.552,-2.156 1.495,-2.156 0.981,0 1.52,0.685 1.52,2.156 l 0,4.742 1.862,0 0,-4.633 c 0,-2.549 -1.286,-3.762 -3.443,-3.762 -2.083,0 -3.296,1.165 -3.296,3.788 L -1.862,0 0,0 z" />
      </g>
      <g
         transform="translate(511.9121,56.7578)"
         id="g688">
        <path
           inkscape:connector-curvature="0"
           id="path690"
           style="fill:#fcb514;fill-opacity:1;fill-rule:nonzero;stroke:none"
           d="m 0,0 -2.23,0 0,1.568 6.347,0 0,-1.568 -2.254,0 0,-6.691 L 0,-6.691 0,0 z" />
      </g>
      <g
         transform="translate(521.9355,53.5586)"
         id="g692">
        <path
           inkscape:connector-curvature="0"
           id="path694"
           style="fill:#fcb514;fill-opacity:1;fill-rule:nonzero;stroke:none"
           d="m 0,0 -3.038,0 0,-1.961 3.393,0 0,-1.531 -5.255,0 0,8.26 5.084,0 0,-1.534 -3.222,0 0,-1.714 L 0,1.52 0,0 z" />
      </g>
      <g
         transform="translate(525.416,54.6621)"
         id="g696">
        <path
           inkscape:connector-curvature="0"
           id="path698"
           style="fill:#fcb514;fill-opacity:1;fill-rule:nonzero;stroke:none"
           d="M 0,0 0.736,0 C 1.667,0 2.219,0.465 2.219,1.187 2.219,1.936 1.703,2.328 0.846,2.328 0.393,2.328 0.135,2.303 0,2.266 L 0,0 z m -1.85,3.541 c 0.601,0.109 1.483,0.184 2.488,0.184 1.225,0 2.083,-0.184 2.671,-0.662 C 3.812,2.67 4.081,2.096 4.081,1.336 4.081,0.293 3.334,-0.43 2.623,-0.687 l 0,-0.036 c 0.576,-0.234 0.895,-0.773 1.103,-1.533 0.256,-0.943 0.503,-2.021 0.661,-2.34 l -1.911,0 C 2.354,-4.363 2.145,-3.689 1.912,-2.672 1.68,-1.631 1.324,-1.361 0.553,-1.348 l -0.553,0 0,-3.248 -1.85,0 0,8.137 z" />
      </g>
      <g
         transform="translate(538.2227,53.5586)"
         id="g700">
        <path
           inkscape:connector-curvature="0"
           id="path702"
           style="fill:#fcb514;fill-opacity:1;fill-rule:nonzero;stroke:none"
           d="m 0,0 -3.039,0 0,-1.961 3.394,0 0,-1.531 -5.256,0 0,8.26 5.085,0 0,-1.534 -3.223,0 0,-1.714 L 0,1.52 0,0 z" />
      </g>
      <g
         transform="translate(539.8535,50.0664)"
         id="g704">
        <path
           inkscape:connector-curvature="0"
           id="path706"
           style="fill:#fcb514;fill-opacity:1;fill-rule:nonzero;stroke:none"
           d="m 0,0 0,8.26 2.181,0 1.715,-3.028 C 4.387,4.363 4.863,3.334 5.244,2.402 l 0.025,0 C 5.158,3.492 5.121,4.607 5.121,5.857 l 0,2.403 1.716,0 L 6.837,0 4.876,0 3.111,3.186 C 2.621,4.08 2.07,5.135 1.678,6.102 l -0.049,0 C 1.69,5 1.715,3.836 1.715,2.488 L 1.715,0 0,0 z" />
      </g>
      <g
         transform="translate(555.207,50.4473)"
         id="g708">
        <path
           inkscape:connector-curvature="0"
           id="path710"
           style="fill:#fcb514;fill-opacity:1;fill-rule:nonzero;stroke:none"
           d="m 0,0 c -0.576,-0.197 -1.666,-0.467 -2.757,-0.467 -1.507,0 -2.597,0.381 -3.357,1.104 -0.747,0.722 -1.164,1.801 -1.164,3.013 0.012,2.745 2.009,4.313 4.717,4.313 1.067,0 1.887,-0.207 2.291,-0.391 L -0.662,6.064 c -0.453,0.209 -1.004,0.356 -1.911,0.356 -1.556,0 -2.745,-0.883 -2.745,-2.672 0,-1.715 1.079,-2.707 2.61,-2.707 0.417,0 0.76,0.049 0.907,0.109 l 0,1.741 -1.275,0 0,1.459 L 0,4.35 0,0 z" />
      </g>
      <path
         inkscape:connector-curvature="0"
         id="path712"
         style="fill:#fcb514;fill-opacity:1;fill-rule:nonzero;stroke:none"
         d="m 558.541,50.066 -1.862,0 0,8.26 1.862,0 0,-8.26 z" />
      <g
         transform="translate(560.1582,50.0664)"
         id="g714">
        <path
           inkscape:connector-curvature="0"
           id="path716"
           style="fill:#fcb514;fill-opacity:1;fill-rule:nonzero;stroke:none"
           d="m 0,0 0,8.26 2.182,0 1.714,-3.028 C 4.387,4.363 4.865,3.334 5.244,2.402 l 0.026,0 C 5.159,3.492 5.122,4.607 5.122,5.857 l 0,2.403 1.716,0 L 6.838,0 4.877,0 3.113,3.186 C 2.623,4.08 2.071,5.135 1.68,6.102 l -0.049,0 C 1.691,5 1.716,3.836 1.716,2.488 L 1.716,0 0,0 z" />
      </g>
      <g
         transform="translate(573.5283,53.5586)"
         id="g718">
        <path
           inkscape:connector-curvature="0"
           id="path720"
           style="fill:#fcb514;fill-opacity:1;fill-rule:nonzero;stroke:none"
           d="m 0,0 -3.038,0 0,-1.961 3.393,0 0,-1.531 -5.256,0 0,8.26 5.085,0 0,-1.534 -3.222,0 0,-1.714 L 0,1.52 0,0 z" />
      </g>
      <g
         transform="translate(580.0723,53.5586)"
         id="g722">
        <path
           inkscape:connector-curvature="0"
           id="path724"
           style="fill:#fcb514;fill-opacity:1;fill-rule:nonzero;stroke:none"
           d="m 0,0 -3.039,0 0,-1.961 3.394,0 0,-1.531 -5.256,0 0,8.26 5.085,0 0,-1.534 -3.223,0 0,-1.714 L 0,1.52 0,0 z" />
      </g>
      <g
         transform="translate(583.5527,54.6621)"
         id="g726">
        <path
           inkscape:connector-curvature="0"
           id="path728"
           style="fill:#fcb514;fill-opacity:1;fill-rule:nonzero;stroke:none"
           d="M 0,0 0.735,0 C 1.666,0 2.218,0.465 2.218,1.187 2.218,1.936 1.703,2.328 0.846,2.328 0.393,2.328 0.135,2.303 0,2.266 L 0,0 z m -1.85,3.541 c 0.6,0.109 1.483,0.184 2.487,0.184 1.226,0 2.084,-0.184 2.672,-0.662 C 3.811,2.67 4.08,2.096 4.08,1.336 4.08,0.293 3.333,-0.43 2.622,-0.687 l 0,-0.036 c 0.576,-0.234 0.895,-0.773 1.103,-1.533 0.257,-0.943 0.503,-2.021 0.662,-2.34 l -1.912,0 c -0.122,0.233 -0.33,0.907 -0.563,1.924 -0.233,1.041 -0.589,1.311 -1.36,1.324 l -0.552,0 0,-3.248 -1.85,0 0,8.137 z" />
      </g>
      <path
         inkscape:connector-curvature="0"
         id="path730"
         style="fill:#fcb514;fill-opacity:1;fill-rule:nonzero;stroke:none"
         d="m 590.845,50.066 -1.862,0 0,8.26 1.862,0 0,-8.26 z" />
      <g
         transform="translate(592.4619,50.0664)"
         id="g732">
        <path
           inkscape:connector-curvature="0"
           id="path734"
           style="fill:#fcb514;fill-opacity:1;fill-rule:nonzero;stroke:none"
           d="m 0,0 0,8.26 2.181,0 1.715,-3.028 C 4.387,4.363 4.864,3.334 5.244,2.402 l 0.025,0 C 5.159,3.492 5.122,4.607 5.122,5.857 l 0,2.403 1.715,0 0,-8.26 -1.96,0 -1.765,3.186 C 2.622,4.08 2.071,5.135 1.679,6.102 l -0.049,0 C 1.69,5 1.716,3.836 1.716,2.488 L 1.716,0 0,0 z" />
      </g>
      <g
         transform="translate(607.8164,50.4473)"
         id="g736">
        <path
           inkscape:connector-curvature="0"
           id="path738"
           style="fill:#fcb514;fill-opacity:1;fill-rule:nonzero;stroke:none"
           d="m 0,0 c -0.576,-0.197 -1.666,-0.467 -2.757,-0.467 -1.507,0 -2.597,0.381 -3.357,1.104 -0.747,0.722 -1.164,1.801 -1.164,3.013 0.012,2.745 2.009,4.313 4.717,4.313 1.067,0 1.887,-0.207 2.291,-0.391 L -0.662,6.064 c -0.453,0.209 -1.004,0.356 -1.911,0.356 -1.556,0 -2.745,-0.883 -2.745,-2.672 0,-1.715 1.079,-2.707 2.61,-2.707 0.417,0 0.76,0.049 0.907,0.109 l 0,1.741 -1.275,0 0,1.459 L 0,4.35 0,0 z" />
      </g>
    </g>
  </g>
</svg>
