<?xml version="1.0" encoding="UTF-8" standalone="no"?>
<!-- Created with Inkscape (http://www.inkscape.org/) -->

<svg
   xmlns:dc="http://purl.org/dc/elements/1.1/"
   xmlns:cc="http://creativecommons.org/ns#"
   xmlns:rdf="http://www.w3.org/1999/02/22-rdf-syntax-ns#"
   xmlns:svg="http://www.w3.org/2000/svg"
   xmlns="http://www.w3.org/2000/svg"
   xmlns:sodipodi="http://sodipodi.sourceforge.net/DTD/sodipodi-0.dtd"
   xmlns:inkscape="http://www.inkscape.org/namespaces/inkscape"
   width="8.3525"
   height="18.016813"
   id="svg4020"
   version="1.1"
   inkscape:version="0.48.2 r9819"
   sodipodi:docname="New document 9">
  <defs
     id="defs4022">
    <clipPath
       clipPathUnits="userSpaceOnUse"
       id="clipPath768">
      <path
         inkscape:connector-curvature="0"
         d="m 0,1190.55 841.89,0 L 841.89,0 0,0 0,1190.55 z"
         id="path770" />
    </clipPath>
  </defs>
  <sodipodi:namedview
     id="base"
     pagecolor="#ffffff"
     bordercolor="#666666"
     borderopacity="1.0"
     inkscape:pageopacity="0.0"
     inkscape:pageshadow="2"
     inkscape:zoom="0.7"
     inkscape:cx="-43.479284"
     inkscape:cy="-23.748216"
     inkscape:document-units="px"
     inkscape:current-layer="layer1"
     showgrid="false"
     fit-margin-top="0"
     fit-margin-left="0"
     fit-margin-right="0"
     fit-margin-bottom="0"
     inkscape:window-width="483"
     inkscape:window-height="454"
     inkscape:window-x="20"
     inkscape:window-y="20"
     inkscape:window-maximized="0" />
  <metadata
     id="metadata4025">
    <rdf:RDF>
      <cc:Work
         rdf:about="">
        <dc:format>image/svg+xml</dc:format>
        <dc:type
           rdf:resource="http://purl.org/dc/dcmitype/StillImage" />
        <dc:title></dc:title>
      </cc:Work>
    </rdf:RDF>
  </metadata>
  <g
     inkscape:label="Layer 1"
     inkscape:groupmode="layer"
     id="layer1"
     transform="translate(-181.53803,-234.78235)">
    <g
       transform="matrix(1.25,0,0,-1.25,122.39141,342.42929)"
       id="g764">
      <g
         id="g766"
         clip-path="url(#clipPath768)">
        <g
           id="g772"
           transform="translate(51.1953,86.0381)">
          <path
             inkscape:connector-curvature="0"
             d="m 0,0 c 0.915,0.116 1.842,0.068 2.765,0.077 l 0,-2.46 C 2.23,-2.396 1.695,-2.339 1.165,-2.426 0.918,-2.464 0.63,-2.605 0.595,-2.883 0.535,-3.479 0.57,-4.074 0.564,-4.668 l 2.24,0 c -0.086,-0.82 -0.18,-1.641 -0.262,-2.46 l -1.978,0 0,-7.206 -2.976,0 0,7.206 -1.466,0 0,2.46 1.466,0 c 0.034,0.983 -0.121,1.997 0.199,2.946 0.15,0.493 0.452,0.946 0.875,1.243 C -0.946,-0.209 -0.475,-0.062 0,0"
             style="fill:#fdb82f;fill-opacity:1;fill-rule:nonzero;stroke:none"
             id="path774" />
        </g>
      </g>
    </g>
  </g>
</svg>
