<?xml version="1.0" encoding="UTF-8" standalone="no"?>
<!-- Created with Inkscape (http://www.inkscape.org/) -->

<svg
   xmlns:dc="http://purl.org/dc/elements/1.1/"
   xmlns:cc="http://creativecommons.org/ns#"
   xmlns:rdf="http://www.w3.org/1999/02/22-rdf-syntax-ns#"
   xmlns:svg="http://www.w3.org/2000/svg"
   xmlns="http://www.w3.org/2000/svg"
   xmlns:sodipodi="http://sodipodi.sourceforge.net/DTD/sodipodi-0.dtd"
   xmlns:inkscape="http://www.inkscape.org/namespaces/inkscape"
   width="190.78363"
   height="59.124249"
   id="svg5277"
   version="1.1"
   inkscape:version="0.48.4 r9939"
   sodipodi:docname="New document 8">
  <defs
     id="defs5279" />
  <sodipodi:namedview
     id="base"
     pagecolor="#ffffff"
     bordercolor="#666666"
     borderopacity="1.0"
     inkscape:pageopacity="0.0"
     inkscape:pageshadow="2"
     inkscape:zoom="0.35"
     inkscape:cx="95.391815"
     inkscape:cy="29.562127"
     inkscape:document-units="px"
     inkscape:current-layer="layer1"
     showgrid="false"
     fit-margin-top="0"
     fit-margin-left="0"
     fit-margin-right="0"
     fit-margin-bottom="0"
     inkscape:window-width="1440"
     inkscape:window-height="876"
     inkscape:window-x="0"
     inkscape:window-y="24"
     inkscape:window-maximized="1" />
  <metadata
     id="metadata5282">
    <rdf:RDF>
      <cc:Work
         rdf:about="">
        <dc:format>image/svg+xml</dc:format>
        <dc:type
           rdf:resource="http://purl.org/dc/dcmitype/StillImage" />
        <dc:title></dc:title>
      </cc:Work>
    </rdf:RDF>
  </metadata>
  <g
     inkscape:label="Layer 1"
     inkscape:groupmode="layer"
     id="layer1"
     transform="translate(-279.60818,-502.80006)">
    <g
       transform="matrix(1.25,0,0,-1.25,-526.83469,624.33881)"
       id="g5070">
      <g
         transform="translate(691.4687,50.0459)"
         id="g378">
        <path
           inkscape:connector-curvature="0"
           id="path380"
           style="fill:#fcb514;fill-opacity:1;fill-rule:nonzero;stroke:none"
           d="M 0,0 -0.84,0 -3.785,4.555 C -3.797,4.58 -3.814,4.607 -3.834,4.641 -3.854,4.673 -3.877,4.71 -3.9,4.759 -3.943,4.831 -3.996,4.95 -4.061,5.112 l 0,-5.057 -0.724,0 0,5.837 0.945,0 2.895,-4.449 c 0.015,-0.03 0.029,-0.052 0.043,-0.072 0.013,-0.017 0.025,-0.039 0.035,-0.067 0.012,-0.027 0.027,-0.058 0.041,-0.101 0.012,-0.039 0.035,-0.097 0.066,-0.166 0.004,-0.014 0.012,-0.023 0.012,-0.036 0.002,-0.013 0.01,-0.03 0.023,-0.054 l 0,4.945 L 0,5.892 0,0 z" />
      </g>
      <g
         transform="translate(650.9844,65.0293)"
         id="g358">
        <path
           inkscape:connector-curvature="0"
           id="path360"
           style="fill:#fcb514;fill-opacity:1;fill-rule:nonzero;stroke:none"
           d="m 0,0 -4.539,0 0,-3.554 3.754,0 0,-1.099 -3.754,0 0,-4.635 -1.291,0 0,10.371 5.83,0 L 0,0 z" />
      </g>
      <g
         transform="translate(658.0137,55.7412)"
         id="g362">
        <path
           inkscape:connector-curvature="0"
           id="path364"
           style="fill:#fcb514;fill-opacity:1;fill-rule:nonzero;stroke:none"
           d="m 0,0 -5.973,0 0,10.371 5.832,0 0,-1.083 -4.541,0 0,-3.458 3.756,0 0,-1.086 -3.756,0 0,-3.662 L 0,1.082 0,0 z" />
      </g>
      <g
         transform="translate(667.0137,59.292)"
         id="g366">
        <path
           inkscape:connector-curvature="0"
           id="path368"
           style="fill:#fcb514;fill-opacity:1;fill-rule:nonzero;stroke:none"
           d="m 0,0 c 0,-1.29 -0.398,-2.252 -1.195,-2.892 -0.772,-0.639 -1.723,-0.96 -2.842,-0.96 -1.111,0 -2.068,0.327 -2.877,0.978 -0.797,0.64 -1.193,1.595 -1.193,2.874 l 0,6.82 1.287,0 0,-6.427 c 0,-0.661 0.039,-1.122 0.111,-1.385 0.086,-0.291 0.244,-0.564 0.486,-0.815 0.536,-0.597 1.258,-0.895 2.168,-0.895 0.912,0 1.635,0.298 2.168,0.895 0.242,0.251 0.407,0.524 0.491,0.815 0.072,0.263 0.105,0.724 0.105,1.385 l 0,6.427 L 0,6.82 0,0 z" />
      </g>
      <g
         transform="translate(675.4434,63.0469)"
         id="g370">
        <path
           inkscape:connector-curvature="0"
           id="path372"
           style="fill:#fcb514;fill-opacity:1;fill-rule:nonzero;stroke:none"
           d="M 0,0 C 0,-0.533 -0.088,-1.017 -0.26,-1.454 -0.434,-1.888 -0.68,-2.258 -1,-2.562 -1.318,-2.866 -1.707,-3.098 -2.162,-3.26 c -0.453,-0.161 -0.967,-0.244 -1.531,-0.244 -0.137,0 -0.338,0.012 -0.606,0.029 -0.267,0.023 -0.599,0.055 -0.996,0.095 l 0,-3.926 -1.287,0 0,10.371 3.252,0 c 1.15,0 1.994,-0.273 2.529,-0.819 C -0.27,1.703 0,0.952 0,0 m -1.336,-0.08 c 0,0.692 -0.195,1.231 -0.584,1.62 -0.289,0.292 -0.822,0.442 -1.601,0.442 l -1.774,0 0,-4.277 c 0.574,-0.06 1.035,-0.092 1.383,-0.092 0.586,0 1.035,0.066 1.348,0.202 0.38,0.157 0.677,0.423 0.896,0.794 0.223,0.374 0.332,0.81 0.332,1.311" />
      </g>
      <g
         transform="translate(684.9141,52.1006)"
         id="g374">
        <path
           inkscape:connector-curvature="0"
           id="path376"
           style="fill:#fcb514;fill-opacity:1;fill-rule:nonzero;stroke:none"
           d="m 0,0 c 0,-0.728 -0.227,-1.269 -0.676,-1.629 -0.435,-0.359 -0.969,-0.54 -1.599,-0.54 -0.625,0 -1.163,0.183 -1.62,0.548 -0.447,0.359 -0.669,0.899 -0.669,1.621 l 0,3.837 0.722,0 0,-3.618 c 0,-0.372 0.022,-0.629 0.067,-0.779 0.043,-0.163 0.134,-0.318 0.271,-0.458 0.301,-0.337 0.707,-0.505 1.219,-0.505 0.515,0 0.92,0.168 1.223,0.505 0.134,0.14 0.226,0.295 0.271,0.458 0.043,0.15 0.062,0.407 0.062,0.779 l 0,3.618 L 0,3.837 0,0 z" />
      </g>
      <path
         inkscape:connector-curvature="0"
         id="path382"
         style="fill:#fcb514;fill-opacity:1;fill-rule:nonzero;stroke:none"
         d="m 694.111,50.101 -0.723,0 0,5.837 0.723,0 0,-5.837 z" />
      <g
         transform="translate(700.1621,55.9375)"
         id="g384">
        <path
           inkscape:connector-curvature="0"
           id="path386"
           style="fill:#fcb514;fill-opacity:1;fill-rule:nonzero;stroke:none"
           d="m 0,0 -2.266,-5.988 -0.443,0 L -5.008,0 -4.23,0 -2.504,-4.554 c 0.027,-0.078 0.049,-0.173 0.063,-0.285 0,0.088 0.015,0.183 0.054,0.285 L -0.727,0 0,0 z" />
      </g>
      <g
         transform="translate(704.5742,50.1006)"
         id="g388">
        <path
           inkscape:connector-curvature="0"
           id="path390"
           style="fill:#fcb514;fill-opacity:1;fill-rule:nonzero;stroke:none"
           d="m 0,0 -3.363,0 0,5.837 3.283,0 0,-0.61 -2.557,0 0,-1.949 2.114,0 0,-0.607 -2.114,0 0,-2.062 L 0,0.609 0,0 z" />
      </g>
      <g
         transform="translate(709.918,50.1006)"
         id="g392">
        <path
           inkscape:connector-curvature="0"
           id="path394"
           style="fill:#fcb514;fill-opacity:1;fill-rule:nonzero;stroke:none"
           d="m 0,0 -0.832,0 -1.611,2.501 -0.778,0 0,-2.501 -0.726,0 0,5.837 1.777,0 c 0.178,0 0.332,-0.01 0.465,-0.024 C -1.574,5.8 -1.453,5.774 -1.346,5.744 -1.24,5.71 -1.143,5.668 -1.055,5.61 -0.969,5.556 -0.879,5.485 -0.789,5.403 -0.482,5.103 -0.33,4.724 -0.33,4.262 -0.33,3.778 -0.5,3.375 -0.842,3.052 -1.066,2.831 -1.361,2.686 -1.729,2.607 L 0,0 z m -1.107,4.254 c 0,0.364 -0.106,0.632 -0.319,0.804 -0.136,0.11 -0.42,0.169 -0.847,0.169 l -0.948,0 0,-2.117 0.948,0 c 0.777,0 1.166,0.382 1.166,1.144" />
      </g>
      <g
         transform="translate(714.416,55.5488)"
         id="g396">
        <path
           inkscape:connector-curvature="0"
           id="path398"
           style="fill:#fcb514;fill-opacity:1;fill-rule:nonzero;stroke:none"
           d="m 0,0 -0.334,-0.601 c -0.133,0.076 -0.246,0.139 -0.348,0.188 -0.097,0.051 -0.189,0.09 -0.265,0.111 -0.266,0.083 -0.533,0.123 -0.803,0.123 -0.336,0 -0.605,-0.074 -0.811,-0.225 -0.203,-0.149 -0.304,-0.349 -0.304,-0.597 0,-0.218 0.092,-0.406 0.275,-0.565 0.182,-0.16 0.572,-0.4 1.168,-0.719 0.412,-0.218 0.719,-0.414 0.918,-0.591 0.303,-0.257 0.453,-0.615 0.453,-1.061 0,-0.5 -0.174,-0.898 -0.519,-1.19 -0.346,-0.292 -0.811,-0.435 -1.401,-0.435 -0.4,0 -0.763,0.063 -1.082,0.193 -0.177,0.069 -0.433,0.215 -0.75,0.433 l 0.373,0.574 c 0.137,-0.093 0.258,-0.174 0.375,-0.24 0.116,-0.062 0.211,-0.11 0.297,-0.137 0.264,-0.105 0.545,-0.155 0.84,-0.155 0.354,0 0.627,0.078 0.816,0.232 0.194,0.152 0.29,0.372 0.29,0.654 0,0.177 -0.03,0.316 -0.092,0.414 -0.104,0.196 -0.27,0.355 -0.492,0.481 -0.071,0.04 -0.186,0.102 -0.35,0.189 -0.164,0.084 -0.369,0.195 -0.623,0.331 -0.83,0.449 -1.246,0.957 -1.246,1.531 0,0.463 0.176,0.84 0.529,1.125 0.352,0.28 0.818,0.422 1.397,0.422 0.371,0 0.697,-0.047 0.982,-0.142 C -0.514,0.278 -0.275,0.164 0,0" />
      </g>
      <path
         inkscape:connector-curvature="0"
         id="path400"
         style="fill:#fcb514;fill-opacity:1;fill-rule:nonzero;stroke:none"
         d="m 716.582,50.101 -0.727,0 0,5.837 0.727,0 0,-5.837 z" />
      <g
         transform="translate(723.3965,53.0439)"
         id="g402">
        <path
           inkscape:connector-curvature="0"
           id="path404"
           style="fill:#fcb514;fill-opacity:1;fill-rule:nonzero;stroke:none"
           d="m 0,0 c 0,-0.787 -0.264,-1.489 -0.787,-2.097 -0.264,-0.307 -0.565,-0.525 -0.899,-0.652 -0.33,-0.131 -0.752,-0.194 -1.259,-0.194 l -1.94,0 0,5.837 1.949,0 c 0.85,0 1.551,-0.272 2.104,-0.816 C -0.277,1.545 0,0.851 0,0 m -0.76,0.01 c 0,0.641 -0.219,1.182 -0.656,1.618 -0.436,0.439 -0.98,0.655 -1.637,0.655 l -1.105,0 0,-4.617 1.105,0 c 0.715,0 1.239,0.177 1.578,0.529 0.104,0.114 0.204,0.241 0.291,0.388 0.084,0.142 0.163,0.294 0.227,0.454 0.062,0.159 0.109,0.322 0.145,0.485 0.033,0.166 0.052,0.33 0.052,0.488" />
      </g>
      <g
         transform="translate(729.0234,50.1006)"
         id="g406">
        <path
           inkscape:connector-curvature="0"
           id="path408"
           style="fill:#fcb514;fill-opacity:1;fill-rule:nonzero;stroke:none"
           d="m 0,0 -0.775,0 -0.604,1.724 -2.361,0 L -4.342,0 l -0.777,0 2.174,6.005 0.779,0 L 0,0 z m -1.609,2.388 -0.946,2.67 -0.955,-2.67 1.901,0 z" />
      </g>
      <g
         transform="translate(734.9395,53.0439)"
         id="g410">
        <path
           inkscape:connector-curvature="0"
           id="path412"
           style="fill:#fcb514;fill-opacity:1;fill-rule:nonzero;stroke:none"
           d="M 0,0 C 0,-0.787 -0.264,-1.489 -0.787,-2.097 -1.055,-2.404 -1.352,-2.622 -1.684,-2.749 -2.018,-2.88 -2.438,-2.943 -2.943,-2.943 l -1.942,0 0,5.837 1.946,0 c 0.849,0 1.552,-0.272 2.107,-0.816 C -0.277,1.545 0,0.851 0,0 m -0.762,0.01 c 0,0.641 -0.215,1.182 -0.654,1.618 -0.439,0.439 -0.982,0.655 -1.637,0.655 l -1.105,0 0,-4.617 1.105,0 c 0.715,0 1.241,0.177 1.574,0.529 0.106,0.114 0.206,0.241 0.292,0.388 0.089,0.142 0.166,0.294 0.226,0.454 0.061,0.159 0.111,0.322 0.147,0.485 0.035,0.166 0.052,0.33 0.052,0.488" />
      </g>
      <g
         transform="translate(739.7012,50.1006)"
         id="g414">
        <path
           inkscape:connector-curvature="0"
           id="path416"
           style="fill:#fcb514;fill-opacity:1;fill-rule:nonzero;stroke:none"
           d="m 0,0 -3.361,0 0,5.837 3.279,0 0,-0.61 -2.557,0 0,-1.949 2.116,0 0,-0.607 -2.116,0 0,-2.062 L 0,0.609 0,0 z" />
      </g>
      <g
         transform="translate(748.1953,53.0439)"
         id="g418">
        <path
           inkscape:connector-curvature="0"
           id="path420"
           style="fill:#fcb514;fill-opacity:1;fill-rule:nonzero;stroke:none"
           d="M 0,0 C 0,-0.787 -0.262,-1.489 -0.787,-2.097 -1.053,-2.404 -1.348,-2.622 -1.682,-2.749 -2.018,-2.88 -2.439,-2.943 -2.945,-2.943 l -1.938,0 0,5.837 1.945,0 c 0.85,0 1.551,-0.272 2.106,-0.816 C -0.275,1.545 0,0.851 0,0 m -0.76,0.01 c 0,0.641 -0.22,1.182 -0.654,1.618 -0.436,0.439 -0.984,0.655 -1.637,0.655 l -1.109,0 0,-4.617 1.109,0 c 0.713,0 1.24,0.177 1.574,0.529 0.106,0.114 0.206,0.241 0.293,0.388 0.088,0.142 0.161,0.294 0.225,0.454 0.063,0.159 0.109,0.322 0.145,0.485 0.035,0.166 0.054,0.33 0.054,0.488" />
      </g>
      <g
         transform="translate(754.9355,53.0186)"
         id="g422">
        <path
           inkscape:connector-curvature="0"
           id="path424"
           style="fill:#fcb514;fill-opacity:1;fill-rule:nonzero;stroke:none"
           d="m 0,0 c 0,-0.878 -0.275,-1.605 -0.828,-2.177 -0.553,-0.571 -1.25,-0.855 -2.096,-0.855 -0.851,0 -1.553,0.284 -2.107,0.855 -0.557,0.572 -0.832,1.299 -0.832,2.177 0,0.871 0.275,1.596 0.832,2.168 0.554,0.572 1.256,0.857 2.107,0.857 0.846,0 1.543,-0.285 2.096,-0.857 C -0.275,1.607 0,0.882 0,0 m -0.793,0 c 0,0.648 -0.211,1.209 -0.631,1.681 -0.418,0.472 -0.92,0.708 -1.5,0.708 -0.594,0 -1.096,-0.236 -1.515,-0.708 C -4.857,1.209 -5.068,0.648 -5.068,0 c 0,-0.662 0.211,-1.227 0.629,-1.7 0.412,-0.465 0.916,-0.697 1.515,-0.697 0.586,0 1.088,0.232 1.5,0.697 0.42,0.473 0.631,1.038 0.631,1.7" />
      </g>
      <g
         transform="translate(762.2598,54.2109)"
         id="g426">
        <path
           inkscape:connector-curvature="0"
           id="path428"
           style="fill:#fcb514;fill-opacity:1;fill-rule:nonzero;stroke:none"
           d="M 0,0 C 0,-0.3 -0.049,-0.571 -0.146,-0.816 -0.244,-1.06 -0.381,-1.271 -0.562,-1.439 -0.74,-1.61 -0.959,-1.741 -1.215,-1.833 c -0.256,-0.092 -0.547,-0.138 -0.863,-0.138 -0.076,0 -0.19,0.006 -0.34,0.018 -0.152,0.012 -0.338,0.028 -0.562,0.052 l 0,-2.209 -0.729,0 0,5.837 1.834,0 c 0.65,0 1.123,-0.154 1.422,-0.463 C -0.148,0.961 0,0.538 0,0 m -0.752,-0.043 c 0,0.391 -0.109,0.693 -0.324,0.909 -0.168,0.168 -0.467,0.25 -0.904,0.25 l -1,0 0,-2.404 c 0.326,-0.038 0.585,-0.054 0.777,-0.054 0.332,0 0.584,0.037 0.762,0.115 0.214,0.089 0.38,0.235 0.505,0.445 0.122,0.211 0.184,0.456 0.184,0.739" />
      </g>
      <g
         transform="translate(768.8086,53.0186)"
         id="g430">
        <path
           inkscape:connector-curvature="0"
           id="path432"
           style="fill:#fcb514;fill-opacity:1;fill-rule:nonzero;stroke:none"
           d="m 0,0 c 0,-0.878 -0.275,-1.605 -0.83,-2.177 -0.549,-0.571 -1.246,-0.855 -2.1,-0.855 -0.847,0 -1.549,0.284 -2.103,0.855 -0.553,0.572 -0.83,1.299 -0.83,2.177 0,0.871 0.277,1.596 0.83,2.168 0.554,0.572 1.256,0.857 2.103,0.857 0.854,0 1.551,-0.285 2.1,-0.857 C -0.275,1.607 0,0.882 0,0 m -0.797,0 c 0,0.648 -0.209,1.209 -0.627,1.681 -0.42,0.472 -0.918,0.708 -1.506,0.708 -0.586,0 -1.09,-0.236 -1.509,-0.708 C -4.857,1.209 -5.07,0.648 -5.07,0 c 0,-0.662 0.213,-1.227 0.631,-1.7 0.414,-0.465 0.916,-0.697 1.509,-0.697 0.594,0 1.094,0.232 1.506,0.697 0.418,0.473 0.627,1.038 0.627,1.7" />
      </g>
      <g
         transform="translate(774.1582,50.1006)"
         id="g434">
        <path
           inkscape:connector-curvature="0"
           id="path436"
           style="fill:#fcb514;fill-opacity:1;fill-rule:nonzero;stroke:none"
           d="m 0,0 -0.834,0 -1.609,2.501 -0.778,0 0,-2.501 -0.726,0 0,5.837 1.779,0 c 0.178,0 0.332,-0.01 0.463,-0.024 C -1.574,5.8 -1.451,5.774 -1.348,5.744 -1.242,5.71 -1.143,5.668 -1.053,5.61 -0.965,5.556 -0.879,5.485 -0.787,5.403 -0.482,5.103 -0.328,4.724 -0.328,4.262 -0.328,3.778 -0.5,3.375 -0.844,3.052 -1.064,2.831 -1.361,2.686 -1.725,2.607 L 0,0 z m -1.107,4.254 c 0,0.364 -0.108,0.632 -0.319,0.804 -0.135,0.11 -0.418,0.169 -0.849,0.169 l -0.946,0 0,-2.117 0.946,0 c 0.777,0 1.168,0.382 1.168,1.144" />
      </g>
      <g
         transform="translate(779.0996,55.3271)"
         id="g438">
        <path
           inkscape:connector-curvature="0"
           id="path440"
           style="fill:#fcb514;fill-opacity:1;fill-rule:nonzero;stroke:none"
           d="m 0,0 -1.945,0 0,-5.227 -0.725,0 0,5.227 -1.949,0 0,0.61 L 0,0.61 0,0 z" />
      </g>
      <g
         transform="translate(785.4805,53.0186)"
         id="g442">
        <path
           inkscape:connector-curvature="0"
           id="path444"
           style="fill:#fcb514;fill-opacity:1;fill-rule:nonzero;stroke:none"
           d="m 0,0 c 0,-0.878 -0.281,-1.605 -0.836,-2.177 -0.545,-0.571 -1.248,-0.855 -2.094,-0.855 -0.849,0 -1.552,0.284 -2.105,0.855 -0.555,0.572 -0.834,1.299 -0.834,2.177 0,0.871 0.279,1.596 0.834,2.168 0.553,0.572 1.256,0.857 2.105,0.857 0.846,0 1.549,-0.285 2.094,-0.857 C -0.281,1.607 0,0.882 0,0 m -0.799,0 c 0,0.648 -0.209,1.209 -0.627,1.681 -0.42,0.472 -0.922,0.708 -1.504,0.708 -0.591,0 -1.093,-0.236 -1.513,-0.708 C -4.861,1.209 -5.07,0.648 -5.07,0 c 0,-0.662 0.209,-1.227 0.627,-1.7 0.41,-0.465 0.916,-0.697 1.513,-0.697 0.586,0 1.09,0.232 1.504,0.697 0.418,0.473 0.627,1.038 0.627,1.7" />
      </g>
      <g
         transform="translate(683.9492,65.1611)"
         id="g446">
        <path
           inkscape:connector-curvature="0"
           id="path448"
           style="fill:#fcb514;fill-opacity:1;fill-rule:nonzero;stroke:none"
           d="m 0,0 -2.504,0 0,-1.502 2.051,0 0,-0.937 -2.051,0 0,-2.453 -1.115,0 0,5.843 L 0,0.951 0,0 z" />
      </g>
      <g
         transform="translate(689.3867,60.2695)"
         id="g450">
        <path
           inkscape:connector-curvature="0"
           id="path452"
           style="fill:#fcb514;fill-opacity:1;fill-rule:nonzero;stroke:none"
           d="m 0,0 -1.166,0 -0.461,1.444 -1.955,0 L -4.059,0 l -1.166,0 2.112,5.843 1,0 L 0,0 z m -1.928,2.391 -0.681,2.112 -0.674,-2.112 1.355,0 z" />
      </g>
      <g
         transform="translate(694.5605,65.6582)"
         id="g454">
        <path
           inkscape:connector-curvature="0"
           id="path456"
           style="fill:#fcb514;fill-opacity:1;fill-rule:nonzero;stroke:none"
           d="m 0,0 -0.424,-0.886 c -0.377,0.274 -0.826,0.411 -1.347,0.411 -0.563,0 -1.026,-0.184 -1.387,-0.545 -0.36,-0.35 -0.539,-0.806 -0.539,-1.359 0,-0.626 0.191,-1.131 0.576,-1.513 0.377,-0.379 0.889,-0.565 1.527,-0.565 0.397,0 0.823,0.09 1.285,0.271 l 0.204,-0.938 c -0.319,-0.146 -0.582,-0.24 -0.788,-0.281 -0.148,-0.03 -0.298,-0.051 -0.451,-0.07 -0.154,-0.018 -0.316,-0.026 -0.486,-0.026 -0.873,0 -1.578,0.24 -2.113,0.722 -0.655,0.592 -0.983,1.37 -0.983,2.339 0,0.871 0.297,1.599 0.891,2.183 0.556,0.541 1.291,0.815 2.205,0.815 C -1.104,0.558 -0.496,0.371 0,0" />
      </g>
      <g
         transform="translate(700.3086,62.5527)"
         id="g458">
        <path
           inkscape:connector-curvature="0"
           id="path460"
           style="fill:#fcb514;fill-opacity:1;fill-rule:nonzero;stroke:none"
           d="m 0,0 c 0,-0.531 -0.061,-0.94 -0.176,-1.228 -0.117,-0.292 -0.33,-0.539 -0.631,-0.746 -0.404,-0.28 -0.953,-0.422 -1.642,-0.422 -0.69,0 -1.242,0.142 -1.656,0.422 -0.299,0.207 -0.51,0.454 -0.627,0.738 C -4.844,-0.958 -4.9,-0.542 -4.9,0 l 0,3.56 1.105,0 0,-3.623 c 0,-0.866 0.459,-1.299 1.379,-1.299 0.867,0 1.301,0.433 1.301,1.299 l 0,3.623 L 0,3.56 0,0 z" />
      </g>
      <g
         transform="translate(705.252,60.2695)"
         id="g462">
        <path
           inkscape:connector-curvature="0"
           id="path464"
           style="fill:#fcb514;fill-opacity:1;fill-rule:nonzero;stroke:none"
           d="m 0,0 -3.506,0 0,5.843 1.115,0 0,-4.896 L 0,0.947 0,0 z" />
      </g>
      <g
         transform="translate(711.3926,63.2051)"
         id="g466">
        <path
           inkscape:connector-curvature="0"
           id="path468"
           style="fill:#fcb514;fill-opacity:1;fill-rule:nonzero;stroke:none"
           d="M 0,0 C 0,-0.812 -0.27,-1.505 -0.805,-2.075 -1.34,-2.648 -2.129,-2.936 -3.168,-2.936 l -2.156,0 0,5.843 2.164,0 c 1.045,0 1.83,-0.285 2.363,-0.851 C -0.266,1.487 0,0.803 0,0 m -1.203,-0.008 c 0,0.721 -0.225,1.247 -0.672,1.584 -0.313,0.23 -0.779,0.346 -1.396,0.346 l -0.885,0 0,-3.875 0.885,0 c 0.658,0 1.169,0.167 1.527,0.505 0.361,0.336 0.541,0.818 0.541,1.44" />
      </g>
      <g
         transform="translate(716.8574,60.2695)"
         id="g470">
        <path
           inkscape:connector-curvature="0"
           id="path472"
           style="fill:#fcb514;fill-opacity:1;fill-rule:nonzero;stroke:none"
           d="m 0,0 -1.17,0 -0.457,1.444 -1.957,0 L -4.059,0 -5.23,0 l 2.115,5.843 1.002,0 L 0,0 z m -1.93,2.391 -0.679,2.112 -0.674,-2.112 1.353,0 z" />
      </g>
      <g
         transform="translate(722.9512,63.2051)"
         id="g474">
        <path
           inkscape:connector-curvature="0"
           id="path476"
           style="fill:#fcb514;fill-opacity:1;fill-rule:nonzero;stroke:none"
           d="m 0,0 c 0,-0.812 -0.27,-1.505 -0.809,-2.075 -0.533,-0.573 -1.322,-0.861 -2.357,-0.861 l -2.158,0 0,5.843 2.166,0 c 1.043,0 1.828,-0.285 2.359,-0.851 C -0.264,1.487 0,0.803 0,0 m -1.203,-0.008 c 0,0.721 -0.223,1.247 -0.674,1.584 -0.311,0.23 -0.777,0.346 -1.398,0.346 l -0.881,0 0,-3.875 0.881,0 c 0.662,0 1.173,0.167 1.533,0.505 0.357,0.336 0.539,0.818 0.539,1.44" />
      </g>
      <g
         transform="translate(727.6367,60.2695)"
         id="g478">
        <path
           inkscape:connector-curvature="0"
           id="path480"
           style="fill:#fcb514;fill-opacity:1;fill-rule:nonzero;stroke:none"
           d="m 0,0 -3.67,0 0,5.843 3.555,0 0,-0.951 -2.444,0 0,-1.442 2,0 0,-0.946 -2,0 0,-1.557 L 0,0.947 0,0 z" />
      </g>
      <g
         transform="translate(736.2051,63.2051)"
         id="g482">
        <path
           inkscape:connector-curvature="0"
           id="path484"
           style="fill:#fcb514;fill-opacity:1;fill-rule:nonzero;stroke:none"
           d="m 0,0 c 0,-0.812 -0.266,-1.505 -0.803,-2.075 -0.539,-0.573 -1.326,-0.861 -2.359,-0.861 l -2.162,0 0,5.843 2.17,0 c 1.043,0 1.828,-0.285 2.361,-0.851 C -0.264,1.487 0,0.803 0,0 m -1.201,-0.008 c 0,0.721 -0.225,1.247 -0.672,1.584 -0.313,0.23 -0.779,0.346 -1.398,0.346 l -0.883,0 0,-3.875 0.883,0 c 0.662,0 1.171,0.167 1.529,0.505 0.361,0.336 0.541,0.818 0.541,1.44" />
      </g>
      <g
         transform="translate(740.8945,60.2695)"
         id="g486">
        <path
           inkscape:connector-curvature="0"
           id="path488"
           style="fill:#fcb514;fill-opacity:1;fill-rule:nonzero;stroke:none"
           d="m 0,0 -3.672,0 0,5.843 3.557,0 0,-0.951 -2.442,0 0,-1.442 1.998,0 0,-0.946 -1.998,0 0,-1.557 L 0,0.947 0,0 z" />
      </g>
      <g
         transform="translate(747.8594,60.2695)"
         id="g490">
        <path
           inkscape:connector-curvature="0"
           id="path492"
           style="fill:#fcb514;fill-opacity:1;fill-rule:nonzero;stroke:none"
           d="m 0,0 -3.668,0 0,5.843 3.557,0 0,-0.951 -2.442,0 0,-1.442 2,0 0,-0.946 -2,0 0,-1.557 L 0,0.947 0,0 z" />
      </g>
      <g
         transform="translate(754.0156,60.2178)"
         id="g494">
        <path
           inkscape:connector-curvature="0"
           id="path496"
           style="fill:#fcb514;fill-opacity:1;fill-rule:nonzero;stroke:none"
           d="M 0,0 -1.168,0 -3.672,3.776 C -3.684,3.794 -3.699,3.823 -3.719,3.862 -3.744,3.9 -3.766,3.949 -3.795,4.007 -3.809,4.031 -3.818,4.05 -3.83,4.07 -3.842,4.086 -3.855,4.107 -3.869,4.133 -3.904,4.195 -3.928,4.263 -3.947,4.334 l 0,-4.282 -1.061,0 0,5.843 1.283,0 2.452,-3.843 C -1.27,2.04 -1.25,1.999 -1.219,1.932 -1.186,1.865 -1.166,1.824 -1.158,1.814 l 0.051,-0.151 0.054,-0.103 0,4.335 L 0,5.895 0,0 z" />
      </g>
      <g
         transform="translate(760.4902,60.4922)"
         id="g498">
        <path
           inkscape:connector-curvature="0"
           id="path500"
           style="fill:#fcb514;fill-opacity:1;fill-rule:nonzero;stroke:none"
           d="m 0,0 c -0.076,-0.018 -0.164,-0.04 -0.264,-0.063 -0.099,-0.024 -0.207,-0.049 -0.328,-0.08 -0.543,-0.128 -1.031,-0.192 -1.469,-0.192 -0.966,0 -1.755,0.279 -2.369,0.838 -0.607,0.567 -0.91,1.301 -0.91,2.202 0,0.897 0.322,1.641 0.967,2.231 0.557,0.517 1.32,0.779 2.277,0.779 0.45,0 0.856,-0.046 1.221,-0.134 0.119,-0.032 0.25,-0.07 0.395,-0.12 0.144,-0.05 0.302,-0.111 0.474,-0.188 L -0.271,4.343 C -0.33,4.366 -0.4,4.39 -0.48,4.419 c -0.079,0.026 -0.168,0.056 -0.27,0.093 -0.416,0.139 -0.82,0.212 -1.205,0.212 -0.647,0 -1.182,-0.186 -1.602,-0.549 -0.41,-0.361 -0.617,-0.831 -0.617,-1.414 0,-0.599 0.223,-1.1 0.666,-1.505 0.445,-0.402 0.994,-0.6 1.635,-0.6 0.205,0 0.461,0.038 0.76,0.122 l 0,1.612 L 0,2.39 0,0 z" />
      </g>
      <g
         transform="translate(765.6094,60.2695)"
         id="g502">
        <path
           inkscape:connector-curvature="0"
           id="path504"
           style="fill:#fcb514;fill-opacity:1;fill-rule:nonzero;stroke:none"
           d="m 0,0 -3.672,0 0,5.843 3.557,0 0,-0.951 -2.442,0 0,-1.442 1.998,0 0,-0.946 -1.998,0 0,-1.557 L 0,0.947 0,0 z" />
      </g>
      <g
         transform="translate(771.7637,60.2178)"
         id="g506">
        <path
           inkscape:connector-curvature="0"
           id="path508"
           style="fill:#fcb514;fill-opacity:1;fill-rule:nonzero;stroke:none"
           d="M 0,0 -1.17,0 -3.674,3.776 C -3.686,3.794 -3.699,3.823 -3.721,3.862 -3.742,3.9 -3.766,3.949 -3.795,4.007 -3.807,4.031 -3.82,4.05 -3.834,4.07 -3.846,4.086 -3.855,4.107 -3.867,4.133 -3.902,4.195 -3.928,4.263 -3.945,4.334 l 0,-4.282 -1.063,0 0,5.843 1.281,0 2.452,-3.843 C -1.27,2.04 -1.25,1.999 -1.219,1.932 -1.187,1.865 -1.166,1.824 -1.16,1.814 l 0.051,-0.151 0.054,-0.103 0,4.335 L 0,5.895 0,0 z" />
      </g>
      <g
         transform="translate(778.6445,60.2695)"
         id="g510">
        <path
           inkscape:connector-curvature="0"
           id="path512"
           style="fill:#fcb514;fill-opacity:1;fill-rule:nonzero;stroke:none"
           d="m 0,0 -1.115,0 0,2.504 -2.996,0 0,-2.504 -1.114,0 0,5.843 1.114,0 0,-2.337 2.996,0 0,2.337 L 0,5.843 0,0 z" />
      </g>
      <g
         transform="translate(784.6816,60.2695)"
         id="g514">
        <path
           inkscape:connector-curvature="0"
           id="path516"
           style="fill:#fcb514;fill-opacity:1;fill-rule:nonzero;stroke:none"
           d="m 0,0 -1.166,0 -0.463,1.444 -1.953,0 L -4.059,0 l -1.168,0 2.114,5.843 1,0 L 0,0 z m -1.928,2.391 -0.685,2.112 -0.668,-2.112 1.353,0 z" />
      </g>
      <g
         transform="translate(789.7324,60.2695)"
         id="g518">
        <path
           inkscape:connector-curvature="0"
           id="path520"
           style="fill:#fcb514;fill-opacity:1;fill-rule:nonzero;stroke:none"
           d="m 0,0 -1.221,0 -1.336,2.339 -0.556,0 0,-2.339 -1.117,0 0,5.843 1.947,0 c 0.213,0 0.398,-0.01 0.556,-0.028 0.159,-0.011 0.299,-0.037 0.42,-0.069 0.121,-0.032 0.233,-0.076 0.328,-0.136 0.096,-0.052 0.19,-0.121 0.28,-0.205 0.316,-0.293 0.478,-0.716 0.478,-1.263 0,-0.462 -0.107,-0.827 -0.318,-1.099 C -0.721,2.802 -1.029,2.624 -1.451,2.504 L 0,0 z m -1.373,4.113 c 0,0.284 -0.076,0.485 -0.231,0.603 -0.154,0.118 -0.412,0.176 -0.785,0.176 l -0.724,0 0,-1.609 0.724,0 c 0.68,0 1.016,0.275 1.016,0.83" />
      </g>
      <path
         inkscape:connector-curvature="0"
         id="path522"
         style="fill:#fcb514;fill-opacity:1;fill-rule:nonzero;stroke:none"
         d="m 791.766,60.27 -1.117,0 0,5.843 1.117,0 0,-5.843 z" />
      <g
         transform="translate(797.7812,60.2695)"
         id="g524">
        <path
           inkscape:connector-curvature="0"
           id="path526"
           style="fill:#fcb514;fill-opacity:1;fill-rule:nonzero;stroke:none"
           d="m 0,0 -1.168,0 -0.459,1.444 -1.957,0 L -4.059,0 l -1.168,0 2.114,5.843 0.998,0 L 0,0 z m -1.926,2.391 -0.685,2.112 -0.67,-2.112 1.355,0 z" />
      </g>
      <g
         transform="translate(680.334,92.3301)"
         id="g528">
        <path
           inkscape:connector-curvature="0"
           id="path530"
           style="fill:#fcb514;fill-opacity:1;fill-rule:nonzero;stroke:none"
           d="m 0,0 -2.471,0 0,0.4 7.114,0 c 2.017,0 3.617,-0.385 4.804,-1.152 1.192,-0.768 1.787,-2.01 1.787,-3.728 0,-1.634 -0.629,-2.858 -1.886,-3.666 -1.254,-0.808 -2.741,-1.213 -4.453,-1.213 -1,0 -1.782,0.139 -2.348,0.421 l 0,-7.861 2.547,0 0,-0.397 -7.565,0 0,0.397 2.471,0 L 0,0 z m 2.547,-8.435 c 0.217,-0.133 0.496,-0.255 0.836,-0.363 0.34,-0.109 0.703,-0.162 1.086,-0.162 1.049,0 1.99,0.328 2.82,0.988 0.834,0.66 1.248,1.748 1.248,3.268 0,1.615 -0.369,2.808 -1.109,3.564 C 6.686,-0.379 5.568,0 4.07,0 l -1.523,0 0,-8.435" />
      </g>
      <g
         transform="translate(701.7031,93.1025)"
         id="g532">
        <path
           inkscape:connector-curvature="0"
           id="path534"
           style="fill:#fcb514;fill-opacity:1;fill-rule:nonzero;stroke:none"
           d="m 0,0 c 2.109,0 3.955,-0.895 5.527,-2.689 1.573,-1.795 2.36,-3.955 2.36,-6.482 0,-2.542 -0.78,-4.708 -2.336,-6.493 -1.553,-1.786 -3.406,-2.68 -5.551,-2.68 -2.115,0 -3.959,0.895 -5.531,2.693 -1.573,1.795 -2.358,3.953 -2.358,6.48 0,2.542 0.776,4.707 2.332,6.493 C -4,-0.892 -2.15,0 0,0 m 0,-17.946 c 1.346,0 2.393,0.47 3.141,1.411 0.752,0.938 1.255,2.049 1.513,3.34 0.258,1.287 0.387,2.629 0.387,4.024 0,1.444 -0.121,2.799 -0.363,4.064 -0.241,1.261 -0.737,2.363 -1.485,3.302 -0.75,0.937 -1.814,1.408 -3.193,1.408 -1.35,0 -2.398,-0.471 -3.146,-1.408 -0.75,-0.939 -1.252,-2.053 -1.51,-3.341 -0.258,-1.287 -0.389,-2.628 -0.389,-4.025 0,-1.447 0.123,-2.8 0.361,-4.062 0.243,-1.264 0.739,-2.364 1.489,-3.302 0.746,-0.941 1.812,-1.411 3.195,-1.411" />
      </g>
      <g
         transform="translate(713.8613,92.3301)"
         id="g536">
        <path
           inkscape:connector-curvature="0"
           id="path538"
           style="fill:#fcb514;fill-opacity:1;fill-rule:nonzero;stroke:none"
           d="m 0,0 -2.496,0 0,0.4 7.66,0 c 1.785,0 3.227,-0.309 4.334,-0.927 1.106,-0.617 1.658,-1.786 1.658,-3.504 0,-1.353 -0.547,-2.327 -1.644,-2.93 -1.102,-0.601 -2.332,-0.984 -3.698,-1.15 1.581,-0.166 2.727,-0.521 3.432,-1.062 0.709,-0.541 1.154,-1.593 1.338,-3.156 l 0.35,-3.047 c 0.082,-0.632 0.242,-1.05 0.484,-1.259 0.242,-0.211 0.512,-0.313 0.812,-0.313 0.266,0 0.608,0.084 1.022,0.25 l 0.152,-0.325 c -0.265,-0.099 -0.562,-0.178 -0.884,-0.234 -0.329,-0.061 -0.715,-0.089 -1.163,-0.089 -1.382,0 -2.267,0.32 -2.658,0.958 -0.39,0.642 -0.697,1.82 -0.912,3.534 l -0.174,1.498 C 7.514,-10.393 7.234,-9.649 6.777,-9.134 6.318,-8.62 5.449,-8.36 4.166,-8.36 l -1.621,0 0,-8.439 2.547,0 0,-0.397 -7.588,0 0,0.397 2.496,0 L 0,0 z m 2.545,-7.962 1.248,0 c 1.549,0 2.715,0.306 3.494,0.917 0.783,0.605 1.176,1.612 1.176,3.014 0,1.201 -0.301,2.174 -0.901,2.918 C 6.965,-0.372 5.857,0 4.244,0 l -1.699,0 0,-7.962" />
      </g>
      <g
         transform="translate(734.4844,92.3301)"
         id="g540">
        <path
           inkscape:connector-curvature="0"
           id="path542"
           style="fill:#fcb514;fill-opacity:1;fill-rule:nonzero;stroke:none"
           d="m 0,0 -0.521,0 c -2.266,0 -3.739,-0.286 -4.42,-0.861 -0.682,-0.575 -1.026,-1.874 -1.026,-3.904 l -0.398,0 0,5.165 15.277,0 0,-5.165 -0.402,0 c 0,2.01 -0.338,3.31 -1.022,3.893 C 6.805,-0.292 5.342,0 3.094,0 l -0.547,0 0,-16.799 2.572,0 0,-0.397 -7.691,0 0,0.397 2.572,0 L 0,0" />
      </g>
      <g
         transform="translate(753.1113,93.1025)"
         id="g544">
        <path
           inkscape:connector-curvature="0"
           id="path546"
           style="fill:#fcb514;fill-opacity:1;fill-rule:nonzero;stroke:none"
           d="m 0,0 c 2.115,0 3.957,-0.895 5.529,-2.689 1.573,-1.795 2.358,-3.955 2.358,-6.482 0,-2.542 -0.778,-4.708 -2.332,-6.493 -1.557,-1.786 -3.409,-2.68 -5.555,-2.68 -2.113,0 -3.955,0.895 -5.527,2.693 -1.575,1.795 -2.362,3.953 -2.362,6.48 0,2.542 0.782,4.707 2.336,6.493 C -3.998,-0.892 -2.146,0 0,0 m 0,-17.946 c 1.35,0 2.396,0.47 3.145,1.411 0.751,0.938 1.253,2.049 1.511,3.34 0.258,1.287 0.387,2.629 0.387,4.024 0,1.444 -0.121,2.799 -0.361,4.064 -0.241,1.261 -0.737,2.363 -1.487,3.302 -0.748,0.937 -1.814,1.408 -3.195,1.408 -1.35,0 -2.396,-0.471 -3.143,-1.408 -0.752,-0.939 -1.255,-2.053 -1.511,-3.341 -0.258,-1.287 -0.387,-2.628 -0.387,-4.025 0,-1.447 0.117,-2.8 0.361,-4.062 0.243,-1.264 0.737,-2.364 1.485,-3.302 0.75,-0.941 1.814,-1.411 3.195,-1.411" />
      </g>
      <g
         transform="translate(670.6523,75.457)"
         id="g548">
        <path
           inkscape:connector-curvature="0"
           id="path550"
           style="fill:#fcb514;fill-opacity:1;fill-rule:nonzero;stroke:none"
           d="m 0,0 c -0.344,-0.343 -0.762,-0.512 -1.254,-0.512 -0.498,0 -0.916,0.169 -1.258,0.512 -0.343,0.343 -0.513,0.763 -0.513,1.256 0,0.494 0.17,0.914 0.513,1.258 0.342,0.34 0.76,0.511 1.258,0.511 0.492,0 0.91,-0.171 1.254,-0.511 C 0.34,2.17 0.512,1.75 0.512,1.256 0.512,0.763 0.34,0.343 0,0 m -3.961,16.848 -0.65,0 c -0.45,0 -0.778,-0.171 -0.985,-0.51 -0.209,-0.34 -0.312,-0.868 -0.312,-1.584 l 0,-9.321 c 0,-1.895 -0.545,-3.383 -1.635,-4.463 -1.09,-1.079 -2.742,-1.619 -4.957,-1.619 -2.047,0 -3.68,0.552 -4.904,1.658 -1.223,1.103 -1.834,2.62 -1.834,4.548 l 0,11.291 -1.946,0 0,0.449 7.86,0 0,-0.449 -2.02,0 0,-10.968 c 0,-1.827 0.303,-3.221 0.91,-4.186 0.608,-0.965 1.768,-1.598 3.459,-1.446 1.334,0.124 2.098,0.432 2.948,1.297 0.847,0.863 1.273,2.11 1.273,3.739 l 0,9.47 c 0,0.749 -0.121,1.285 -0.363,1.607 -0.24,0.324 -0.43,0.487 -1.065,0.487 l -0.722,0 0,0.449 4.943,0 0,-0.449 z m -21.537,-21.684 30.252,0 0,26.61 -30.252,0 0,-26.61 z" />
      </g>
    </g>
  </g>
</svg>
