<?xml version="1.0" encoding="UTF-8" standalone="no"?>
<!-- Generator: Adobe Illustrator 16.0.0, SVG Export Plug-In . SVG Version: 6.00 Build 0)  -->

<svg
   xmlns:dc="http://purl.org/dc/elements/1.1/"
   xmlns:cc="http://creativecommons.org/ns#"
   xmlns:rdf="http://www.w3.org/1999/02/22-rdf-syntax-ns#"
   xmlns:svg="http://www.w3.org/2000/svg"
   xmlns="http://www.w3.org/2000/svg"
   xmlns:sodipodi="http://sodipodi.sourceforge.net/DTD/sodipodi-0.dtd"
   xmlns:inkscape="http://www.inkscape.org/namespaces/inkscape"
   version="1.1"
   id="Layer_1"
   x="0px"
   y="0px"
   width="566.62903"
   height="497.948"
   viewBox="0 0 566.62902 497.948"
   enable-background="new 0 0 841.89 589.091"
   xml:space="preserve"
   inkscape:version="0.48.4 r9939"
   sodipodi:docname="logo.svg"><metadata
     id="metadata81"><rdf:RDF><cc:Work
         rdf:about=""><dc:format>image/svg+xml</dc:format><dc:type
           rdf:resource="http://purl.org/dc/dcmitype/StillImage" /></cc:Work></rdf:RDF></metadata><defs
     id="defs79" /><sodipodi:namedview
     pagecolor="#ffffff"
     bordercolor="#666666"
     borderopacity="1"
     objecttolerance="10"
     gridtolerance="10"
     guidetolerance="10"
     inkscape:pageopacity="0"
     inkscape:pageshadow="2"
     inkscape:window-width="1366"
     inkscape:window-height="744"
     id="namedview77"
     showgrid="false"
     fit-margin-bottom="-0.2"
     fit-margin-top="0"
     fit-margin-left="0"
     fit-margin-right="0"
     inkscape:zoom="0.69367731"
     inkscape:cx="271.82598"
     inkscape:cy="176.2817"
     inkscape:window-x="0"
     inkscape:window-y="24"
     inkscape:window-maximized="1"
     inkscape:current-layer="Layer_1" /><g
     id="g3"
     transform="translate(-137.631,-45.472)"><g
       id="g5"><g
         id="g7"><path
           d="m 246.855,427.219 c -4.062,0 -6.898,-1.113 -9.625,-3.838 l 4.006,-3.951 c 1.391,1.391 2.727,2.393 5.619,2.393 4.45,0 7.177,-2.727 7.177,-7.9 v -26.648 h 6.009 v 27.094 c 0,8.233 -5.897,12.85 -13.186,12.85 z"
           id="path9"
           inkscape:connector-curvature="0"
           style="fill:#ece70c" /><path
           d="m 293.089,422.991 c -2.727,2.727 -6.231,4.229 -10.459,4.229 -4.229,0 -7.678,-1.502 -10.403,-4.229 -3.895,-3.895 -3.839,-8.289 -3.839,-15.91 0,-7.623 -0.056,-12.018 3.839,-15.912 2.726,-2.727 6.175,-4.229 10.403,-4.229 4.228,0 7.732,1.502 10.459,4.229 3.895,3.895 3.783,8.289 3.783,15.912 0,7.621 0.111,12.015 -3.783,15.91 z m -4.563,-28.205 c -1.391,-1.502 -3.561,-2.449 -5.896,-2.449 -2.337,0 -4.507,0.947 -5.897,2.449 -1.947,2.113 -2.337,4.338 -2.337,12.295 0,7.955 0.39,10.18 2.337,12.295 1.391,1.502 3.561,2.447 5.897,2.447 2.336,0 4.506,-0.945 5.896,-2.447 1.947,-2.115 2.337,-4.34 2.337,-12.295 0,-7.957 -0.389,-10.182 -2.337,-12.295 z"
           id="path11"
           inkscape:connector-curvature="0"
           style="fill:#ece70c" /><path
           d="m 327.64,426.885 -8.346,-16.689 h -7.511 v 16.689 h -6.008 v -39.611 h 15.354 c 7.511,0 12.295,4.84 12.295,11.572 0,5.674 -3.449,9.291 -7.899,10.516 l 9.124,17.523 h -7.009 z m -6.955,-34.215 h -8.901 v 12.406 h 8.901 c 4.006,0 6.732,-2.281 6.732,-6.176 0,-3.892 -2.727,-6.23 -6.732,-6.23 z"
           id="path13"
           inkscape:connector-curvature="0"
           style="fill:#ece70c" /><path
           d="m 366.529,426.885 -18.304,-27.873 v 27.873 h -6.008 v -39.611 h 5.508 l 18.303,27.816 v -27.816 h 6.009 v 39.611 h -5.508 z"
           id="path15"
           inkscape:connector-curvature="0"
           style="fill:#ece70c" /><path
           d="m 405.142,426.885 -2.727,-7.955 h -15.633 l -2.727,7.955 h -6.397 l 14.521,-39.611 h 4.84 l 14.521,39.611 h -6.398 z m -10.404,-30.654 -6.176,17.58 h 12.184 l -6.008,-17.58 z"
           id="path17"
           inkscape:connector-curvature="0"
           style="fill:#ece70c" /><path
           d="m 441.306,423.159 c -2.504,2.502 -6.12,3.727 -10.237,3.727 H 417.16 v -39.611 h 13.908 c 4.117,0 7.733,1.225 10.237,3.729 4.283,4.283 4.005,10.068 4.005,15.799 0,5.731 0.279,12.071 -4.004,16.356 z m -4.118,-27.819 c -1.669,-1.834 -3.895,-2.67 -6.731,-2.67 h -7.288 v 28.818 h 7.288 c 2.837,0 5.063,-0.834 6.731,-2.67 2.059,-2.281 2.114,-6.564 2.114,-12.018 10e-4,-5.45 -0.055,-9.178 -2.114,-11.46 z"
           id="path19"
           inkscape:connector-curvature="0"
           style="fill:#ece70c" /><path
           d="m 476.412,426.885 -2.726,-7.955 h -15.633 l -2.727,7.955 h -6.397 l 14.521,-39.611 h 4.84 l 14.521,39.611 h -6.399 z m -10.403,-30.654 -6.175,17.58 h 12.184 l -6.009,-17.58 z"
           id="path21"
           inkscape:connector-curvature="0"
           style="fill:#ece70c" /><path
           d="m 498.946,427.219 c -5.952,0 -10.236,-1.391 -14.02,-5.229 l 4.006,-3.951 c 2.893,2.893 6.063,3.783 10.125,3.783 5.174,0 8.179,-2.225 8.179,-6.064 0,-1.725 -0.501,-3.17 -1.559,-4.117 -1.001,-0.945 -2.002,-1.334 -4.339,-1.668 l -4.674,-0.668 c -3.227,-0.445 -5.785,-1.557 -7.51,-3.172 -1.947,-1.836 -2.894,-4.338 -2.894,-7.564 0,-6.898 5.008,-11.629 13.241,-11.629 5.229,0 8.901,1.336 12.295,4.508 l -3.839,3.783 c -2.447,-2.338 -5.285,-3.061 -8.623,-3.061 -4.673,0 -7.232,2.67 -7.232,6.176 0,1.445 0.445,2.725 1.502,3.672 1.002,0.889 2.615,1.557 4.451,1.836 l 4.506,0.666 c 3.672,0.557 5.73,1.447 7.399,2.949 2.17,1.893 3.227,4.729 3.227,8.123 10e-4,7.287 -5.951,11.627 -14.241,11.627 z"
           id="path23"
           inkscape:connector-curvature="0"
           style="fill:#ece70c" /><path
           d="m 558.755,423.159 c -2.504,2.502 -6.12,3.727 -10.237,3.727 H 534.61 v -39.611 h 13.908 c 4.117,0 7.733,1.225 10.237,3.729 4.283,4.283 4.005,10.068 4.005,15.799 0,5.731 0.278,12.071 -4.005,16.356 z m -4.117,-27.819 c -1.669,-1.834 -3.895,-2.67 -6.731,-2.67 h -7.288 v 28.818 h 7.288 c 2.837,0 5.063,-0.834 6.731,-2.67 2.059,-2.281 2.114,-6.564 2.114,-12.018 0,-5.45 -0.056,-9.178 -2.114,-11.46 z"
           id="path25"
           inkscape:connector-curvature="0"
           style="fill:#ece70c" /><path
           d="m 571.663,426.885 v -39.611 h 25.313 v 5.396 h -19.305 v 11.572 h 16.467 v 5.34 h -16.467 v 11.906 h 19.305 v 5.396 h -25.313 z"
           id="path27"
           inkscape:connector-curvature="0"
           style="fill:#ece70c" /></g></g><g
       id="g29"><g
         id="g31"><path
           d="m 137.631,492.792 v -52.813 h 35.9 v 11.572 h -22.92 v 8.826 h 19.582 v 11.57 h -19.582 v 9.271 h 22.92 v 11.572 h -35.9 z"
           id="path33"
           inkscape:connector-curvature="0"
           style="fill:#ece70c" /><path
           d="m 182.724,492.792 v -52.813 h 12.98 v 41.24 h 22.178 v 11.572 h -35.158 z"
           id="path35"
           inkscape:connector-curvature="0"
           style="fill:#ece70c" /><path
           d="m 225.442,492.792 v -52.813 h 35.899 v 11.572 h -22.919 v 8.826 h 19.581 v 11.57 h -19.581 v 9.271 h 22.919 v 11.572 h -35.899 z"
           id="path37"
           inkscape:connector-curvature="0"
           style="fill:#ece70c" /><path
           d="m 288.854,493.237 c -6.156,0 -10.829,-2.078 -14.686,-5.936 -5.563,-5.563 -5.341,-12.98 -5.341,-20.916 0,-7.938 -0.223,-15.354 5.341,-20.916 3.856,-3.857 8.529,-5.936 14.686,-5.936 10.014,0 18.099,5.564 20.027,17.209 h -13.203 c -0.815,-2.967 -2.447,-5.637 -6.75,-5.637 -2.373,0 -4.153,0.963 -5.118,2.225 -1.187,1.559 -2.002,3.412 -2.002,13.055 0,9.643 0.815,11.496 2.002,13.055 0.965,1.26 2.745,2.225 5.118,2.225 4.303,0 5.935,-2.67 6.75,-5.637 h 13.203 c -1.928,11.644 -10.013,17.209 -20.027,17.209 z"
           id="path39"
           inkscape:connector-curvature="0"
           style="fill:#ece70c" /><path
           d="m 337.063,451.551 v 41.24 h -12.979 v -41.24 h -12.98 v -11.572 h 38.94 v 11.572 h -12.981 z"
           id="path41"
           inkscape:connector-curvature="0"
           style="fill:#ece70c" /><path
           d="m 384.308,492.792 -9.347,-19.656 h -4.376 v 19.656 h -12.98 v -52.813 h 20.917 c 11.72,0 18.024,8.309 18.024,16.986 0,7.195 -4.45,11.719 -8.604,13.797 l 11.423,22.029 h -15.057 z m -6.379,-41.167 h -7.344 v 10.68 h 7.344 c 3.56,0 5.637,-2.596 5.637,-5.34 0,-2.744 -2.078,-5.34 -5.637,-5.34 z"
           id="path43"
           inkscape:connector-curvature="0"
           style="fill:#ece70c" /><path
           d="m 439.117,487.301 c -3.857,3.857 -8.308,5.936 -14.761,5.936 -6.453,0 -10.903,-2.078 -14.761,-5.936 -5.563,-5.563 -5.34,-12.98 -5.34,-20.916 0,-7.938 -0.223,-15.354 5.34,-20.916 3.857,-3.857 8.308,-5.936 14.761,-5.936 6.453,0 10.903,2.078 14.761,5.936 5.563,5.563 5.34,12.979 5.34,20.916 0,7.936 0.223,15.354 -5.34,20.916 z m -9.568,-33.896 c -0.965,-1.262 -2.818,-2.299 -5.192,-2.299 -2.374,0 -4.228,1.037 -5.192,2.299 -1.187,1.559 -1.928,3.338 -1.928,12.98 0,9.642 0.741,11.348 1.928,12.906 0.965,1.26 2.818,2.373 5.192,2.373 2.374,0 4.228,-1.113 5.192,-2.373 1.187,-1.559 1.928,-3.264 1.928,-12.906 0,-9.642 -0.742,-11.422 -1.928,-12.98 z"
           id="path45"
           inkscape:connector-curvature="0"
           style="fill:#ece70c" /><path
           d="m 474.79,451.551 v 41.24 h -12.98 v -41.24 h -12.98 v -11.572 h 38.94 v 11.572 h -12.98 z"
           id="path47"
           inkscape:connector-curvature="0"
           style="fill:#ece70c" /><path
           d="m 495.332,492.792 v -52.813 h 35.899 v 11.572 h -22.92 v 8.826 h 19.582 v 11.57 h -19.582 v 9.271 h 22.92 v 11.572 h -35.899 z"
           id="path49"
           inkscape:connector-curvature="0"
           style="fill:#ece70c" /><path
           d="m 558.744,493.237 c -6.156,0 -10.829,-2.078 -14.687,-5.936 -5.563,-5.563 -5.34,-12.98 -5.34,-20.916 0,-7.938 -0.223,-15.354 5.34,-20.916 3.857,-3.857 8.53,-5.936 14.687,-5.936 10.014,0 18.099,5.564 20.026,17.209 h -13.202 c -0.816,-2.967 -2.448,-5.637 -6.75,-5.637 -2.373,0 -4.153,0.963 -5.118,2.225 -1.187,1.559 -2.003,3.412 -2.003,13.055 0,9.643 0.816,11.496 2.003,13.055 0.965,1.26 2.745,2.225 5.118,2.225 4.302,0 5.934,-2.67 6.75,-5.637 h 13.202 c -1.927,11.644 -10.012,17.209 -20.026,17.209 z"
           id="path51"
           inkscape:connector-curvature="0"
           style="fill:#ece70c" /><path
           d="M 615.482,492.792 598.57,466.237 v 26.555 h -12.979 v -52.813 h 11.348 l 16.912,26.555 v -26.555 h 12.98 v 52.813 h -11.349 z"
           id="path53"
           inkscape:connector-curvature="0"
           style="fill:#ece70c" /><path
           d="m 637.507,492.792 v -52.813 h 12.979 v 52.813 h -12.979 z"
           id="path55"
           inkscape:connector-curvature="0"
           style="fill:#ece70c" /><path
           d="m 690.686,492.792 -2.447,-7.863 h -16.244 l -2.597,7.863 h -13.573 l 19.211,-52.813 h 10.014 l 19.21,52.813 h -13.574 z m -10.311,-32.786 -4.747,14.094 h 9.198 l -4.451,-14.094 z"
           id="path57"
           inkscape:connector-curvature="0"
           style="fill:#ece70c" /></g></g><g
       id="g59"><path
         d="m 321.694,347.013 -59.68,-34.55 59.68,-34.552 v 69.102 z m 4.887,-232.437 V 45.472 l 59.681,34.552 -59.681,34.552 z m 0,77.479 v -69.104 l 59.681,34.551 -59.681,34.553 z m 0,77.48 v -69.104 l 59.681,34.552 -59.681,34.552 z m 0,8.375 59.681,34.552 -59.681,34.55 V 277.91 z M 388.704,84.212 v 69.104 l -59.68,-34.552 59.68,-34.552 z m 0,146.583 -59.68,-34.552 59.68,-34.552 v 69.104 z m 0,77.48 -59.68,-34.553 59.68,-34.551 v 69.104 z"
         id="path61"
         inkscape:connector-curvature="0"
         style="fill:#ece70c" /><path
         d="M 412.437,192.404 V 123.3 l 59.68,34.552 -59.68,34.552 z m 0,77.48 V 200.78 l 59.68,34.552 -59.68,34.552 z m 62.122,-116.219 -59.68,-34.552 59.68,-34.551 v 69.103 z m 0,8.375 v 69.104 l -59.68,-34.552 59.68,-34.552 z m 0,146.583 -59.68,-34.551 59.68,-34.551 v 69.102 z m 64.917,-189.511 -60.03,34.552 V 84.561 l 60.03,34.551 z m 0,77.48 -60.03,34.552 V 162.04 l 60.03,34.552 z m -60.031,42.928 60.03,34.551 -60.03,34.551 V 239.52 z m 2.444,-159.147 60.029,-34.552 v 69.104 L 481.889,80.373 z m 60.029,266.989 -60.029,-34.551 60.029,-34.551 v 69.102 z"
         id="path63"
         inkscape:connector-curvature="0"
         style="fill:#ece70c" /></g><g
       id="g65"><g
         id="g67"><path
           d="m 377.558,518.825 v 9.994 h 11.902 v 2.594 h -11.902 v 11.979 h -2.898 v -27.16 h 16.86 v 2.594 h -13.962 z"
           id="path69"
           inkscape:connector-curvature="0"
           style="fill:#ece70c" /><path
           d="m 396.78,543.391 v -27.16 h 16.861 v 2.594 H 399.68 v 9.574 h 11.902 v 2.594 H 399.68 v 9.805 h 13.962 v 2.594 H 396.78 z"
           id="path71"
           inkscape:connector-curvature="0"
           style="fill:#ece70c" /><path
           d="m 428.744,543.62 c -5.494,0 -9.461,-3.777 -9.461,-9.193 v -18.195 h 2.899 v 17.967 c 0,4.119 2.594,6.828 6.562,6.828 3.968,0 6.6,-2.709 6.6,-6.828 v -17.967 h 2.899 v 18.195 c 0,5.415 -4.006,9.193 -9.499,9.193 z"
           id="path73"
           inkscape:connector-curvature="0"
           style="fill:#ece70c" /><path
           d="m 455.825,532.213 h -7.21 v 11.178 h -2.899 v -27.16 h 10.109 c 4.959,0 8.393,3.09 8.393,7.973 0,4.883 -3.434,8.009 -8.393,8.009 z m -0.266,-13.388 h -6.943 v 10.795 h 6.943 c 3.395,0 5.76,-1.832 5.76,-5.416 -0.001,-3.586 -2.366,-5.379 -5.76,-5.379 z"
           id="path75"
           inkscape:connector-curvature="0"
           style="fill:#ece70c" /></g></g></g></svg>