<?xml version="1.0" encoding="UTF-8" standalone="no"?>
<!-- Created with Inkscape (http://www.inkscape.org/) -->

<svg
   xmlns:dc="http://purl.org/dc/elements/1.1/"
   xmlns:cc="http://creativecommons.org/ns#"
   xmlns:rdf="http://www.w3.org/1999/02/22-rdf-syntax-ns#"
   xmlns:svg="http://www.w3.org/2000/svg"
   xmlns="http://www.w3.org/2000/svg"
   xmlns:sodipodi="http://sodipodi.sourceforge.net/DTD/sodipodi-0.dtd"
   xmlns:inkscape="http://www.inkscape.org/namespaces/inkscape"
   width="747.0155"
   height="174.66475"
   id="svg3484"
   version="1.1"
   inkscape:version="0.48.4 r9939"
   sodipodi:docname="logo2.svg">
  <defs
     id="defs3486">
    <clipPath
       clipPathUnits="userSpaceOnUse"
       id="clipPath186">
      <path
         inkscape:connector-curvature="0"
         d="m 0,1190.55 841.89,0 L 841.89,0 0,0 0,1190.55 z"
         id="path188" />
    </clipPath>
  </defs>
  <sodipodi:namedview
     id="base"
     pagecolor="#ffffff"
     bordercolor="#666666"
     borderopacity="1.0"
     inkscape:pageopacity="0.0"
     inkscape:pageshadow="2"
     inkscape:zoom="0.98994949"
     inkscape:cx="355.49805"
     inkscape:cy="72.862129"
     inkscape:document-units="px"
     inkscape:current-layer="layer1"
     showgrid="false"
     fit-margin-top="0"
     fit-margin-left="0"
     fit-margin-right="0"
     fit-margin-bottom="0"
     inkscape:window-width="1366"
     inkscape:window-height="744"
     inkscape:window-x="0"
     inkscape:window-y="24"
     inkscape:window-maximized="1" />
  <metadata
     id="metadata3489">
    <rdf:RDF>
      <cc:Work
         rdf:about="">
        <dc:format>image/svg+xml</dc:format>
        <dc:type
           rdf:resource="http://purl.org/dc/dcmitype/StillImage" />
        <dc:title />
      </cc:Work>
    </rdf:RDF>
  </metadata>
  <g
     inkscape:label="Layer 1"
     inkscape:groupmode="layer"
     id="layer1"
     transform="translate(2.07918,-433.60125)">
    <g
       id="g174"
       transform="matrix(1.25,0,0,-1.25,71.21957,585.65125)">
      <path
         d="M 0,0 -27.621,15.993 0,31.985 0,0 z M 0,35.862 -27.621,51.854 0,67.847 0,35.862 z M 0,103.708 0,71.724 -27.621,87.716 0,103.708 z M -28.754,14.055 -1.129,-1.938 -28.754,-17.93 l 0,31.985 z m 0,3.876 0,31.985 27.625,-15.992 -27.625,-15.993 z m 0,35.862 0,31.985 27.625,-15.992 -27.625,-15.993 z m 0,35.862 0,31.985 27.625,-15.993 -27.625,-15.992 z m -2.262,-107.585 -27.623,15.992 27.623,15.993 0,-31.985 z"
         style="fill:#fcb514;fill-opacity:1;fill-rule:nonzero;stroke:none"
         id="path176"
         inkscape:connector-curvature="0" />
    </g>
    <g
       id="g178"
       transform="matrix(1.25,0,0,-1.25,159.86457,608.266)">
      <path
         d="M 0,0 -27.785,15.992 0,31.984 0,0 z M -27.785,123.578 0,139.57 0,107.585 -27.785,123.578 z m -1.131,-73.662 27.787,-15.993 -27.787,-15.992 0,31.985 z m 27.787,19.869 -27.787,-15.993 0,31.985 27.787,-15.992 z m 0,35.861 -27.787,-15.992 0,31.985 27.787,-15.993 z m -30.049,-87.715 -27.621,15.992 27.621,15.993 0,-31.985 z m 0,67.846 0,-31.985 -27.621,15.993 27.621,15.992 z m 0,3.877 -27.621,15.992 27.621,15.993 0,-31.985 z m -28.754,-53.793 0,31.985 27.625,-15.992 -27.625,-15.993 z m 0,35.862 0,31.985 27.625,-15.993 -27.625,-15.992 z"
         style="fill:#fcb514;fill-opacity:1;fill-rule:nonzero;stroke:none"
         id="path180"
         inkscape:connector-curvature="0" />
    </g>
    <g
       id="g190"
       transform="matrix(1.25,0,0,-1.25,214.82919,496.14138)">
      <path
         d="m 0,0 c -3.066,0 -5.209,0.84 -7.268,2.898 l 3.025,2.983 C -3.192,4.831 -2.185,4.075 0,4.075 c 3.36,0 5.419,2.058 5.419,5.965 l 0,20.121 4.537,0 0,-20.457 C 9.956,3.486 5.503,0 0,0"
         style="fill:#fcb514;fill-opacity:1;fill-rule:nonzero;stroke:none"
         id="path192"
         inkscape:connector-curvature="0" />
    </g>
    <g
       id="g194"
       transform="matrix(1.25,0,0,-1.25,254.16269,465.52862)">
      <path
         d="m 0,0 c -1.051,1.134 -2.688,1.848 -4.453,1.848 -1.765,0 -3.402,-0.714 -4.453,-1.848 -1.47,-1.596 -1.764,-3.276 -1.764,-9.284 0,-6.007 0.294,-7.687 1.764,-9.283 1.051,-1.135 2.688,-1.849 4.453,-1.849 1.765,0 3.402,0.714 4.453,1.849 1.47,1.596 1.764,3.276 1.764,9.283 C 1.764,-3.276 1.47,-1.596 0,0 m 3.444,-21.298 c -2.058,-2.058 -4.705,-3.192 -7.897,-3.192 -3.193,0 -5.797,1.134 -7.856,3.192 -2.94,2.941 -2.898,6.259 -2.898,12.014 0,5.755 -0.042,9.074 2.898,12.014 2.059,2.059 4.663,3.193 7.856,3.193 3.192,0 5.839,-1.134 7.897,-3.193 2.941,-2.94 2.857,-6.259 2.857,-12.014 0,-5.755 0.084,-9.073 -2.857,-12.014"
         style="fill:#fcb514;fill-opacity:1;fill-rule:nonzero;stroke:none"
         id="path196"
         inkscape:connector-curvature="0" />
    </g>
    <g
       id="g198"
       transform="matrix(1.25,0,0,-1.25,284.51669,463.53337)">
      <path
         d="m 0,0 -6.722,0 0,-9.368 6.722,0 c 3.024,0 5.083,1.723 5.083,4.663 C 5.083,-1.764 3.024,0 0,0 m 5.251,-25.834 -6.302,12.602 -5.671,0 0,-12.602 -4.537,0 0,29.909 11.595,0 c 5.671,0 9.283,-3.655 9.283,-8.738 0,-4.284 -2.604,-7.015 -5.965,-7.939 l 6.89,-13.232 -5.293,0 z"
         style="fill:#fcb514;fill-opacity:1;fill-rule:nonzero;stroke:none"
         id="path200"
         inkscape:connector-curvature="0" />
    </g>
    <g
       id="g202"
       transform="matrix(1.25,0,0,-1.25,327.78819,495.8265)">
      <path
         d="m 0,0 -13.82,21.046 0,-21.046 -4.537,0 0,29.909 4.159,0 13.82,-21.003 0,21.003 4.537,0 L 4.159,0 0,0 z"
         style="fill:#fcb514;fill-opacity:1;fill-rule:nonzero;stroke:none"
         id="path204"
         inkscape:connector-curvature="0" />
    </g>
    <g
       id="g206"
       transform="matrix(1.25,0,0,-1.25,354.41532,466.894)">
      <path
         d="m 0,0 -4.663,-13.274 9.2,0 L 0,0 z m 7.855,-23.146 -2.058,6.007 -11.804,0 -2.058,-6.007 -4.831,0 10.963,29.909 3.656,0 10.964,-29.909 -4.832,0 z"
         style="fill:#fcb514;fill-opacity:1;fill-rule:nonzero;stroke:none"
         id="path208"
         inkscape:connector-curvature="0" />
    </g>
    <g
       id="g210"
       transform="matrix(1.25,0,0,-1.25,394.48369,466.0535)">
      <path
         d="m 0,0 c -1.26,1.386 -2.94,2.016 -5.083,2.016 l -5.503,0 0,-21.76 5.503,0 c 2.143,0 3.823,0.631 5.083,2.017 1.555,1.722 1.597,4.956 1.597,9.073 C 1.597,-4.537 1.555,-1.723 0,0 m 3.108,-21.004 c -1.889,-1.89 -4.62,-2.814 -7.729,-2.814 l -10.502,0 0,29.909 10.502,0 c 3.109,0 5.84,-0.924 7.729,-2.815 3.235,-3.234 3.025,-7.603 3.025,-11.93 0,-4.326 0.21,-9.116 -3.025,-12.35"
         style="fill:#fcb514;fill-opacity:1;fill-rule:nonzero;stroke:none"
         id="path212"
         inkscape:connector-curvature="0" />
    </g>
    <g
       id="g214"
       transform="matrix(1.25,0,0,-1.25,421.68832,466.894)">
      <path
         d="m 0,0 -4.663,-13.274 9.2,0 L 0,0 z m 7.855,-23.146 -2.058,6.007 -11.804,0 -2.058,-6.007 -4.831,0 10.963,29.909 3.656,0 10.964,-29.909 -4.832,0 z"
         style="fill:#fcb514;fill-opacity:1;fill-rule:nonzero;stroke:none"
         id="path216"
         inkscape:connector-curvature="0" />
    </g>
    <g
       id="g218"
       transform="matrix(1.25,0,0,-1.25,452.77719,496.14138)">
      <path
         d="m 0,0 c -4.494,0 -7.729,1.05 -10.586,3.949 l 3.025,2.982 c 2.184,-2.184 4.579,-2.856 7.645,-2.856 3.907,0 6.176,1.68 6.176,4.578 0,1.303 -0.378,2.395 -1.177,3.109 -0.756,0.714 -1.512,1.008 -3.276,1.26 l -3.529,0.504 c -2.436,0.336 -4.369,1.177 -5.671,2.395 -1.47,1.386 -2.184,3.276 -2.184,5.713 0,5.209 3.78,8.779 9.998,8.779 3.948,0 6.721,-1.008 9.283,-3.402 L 6.806,24.154 c -1.849,1.764 -3.992,2.311 -6.511,2.311 -3.529,0 -5.462,-2.017 -5.462,-4.663 0,-1.093 0.337,-2.059 1.135,-2.773 0.756,-0.672 1.974,-1.176 3.36,-1.386 L 2.73,17.139 C 5.503,16.719 7.058,16.047 8.318,14.913 9.956,13.484 10.754,11.342 10.754,8.779 10.754,3.276 6.26,0 0,0"
         style="fill:#fcb514;fill-opacity:1;fill-rule:nonzero;stroke:none"
         id="path220"
         inkscape:connector-curvature="0" />
    </g>
    <g
       id="g222"
       transform="matrix(1.25,0,0,-1.25,505.34557,466.0535)">
      <path
         d="m 0,0 c -1.26,1.386 -2.94,2.016 -5.083,2.016 l -5.503,0 0,-21.76 5.503,0 c 2.143,0 3.823,0.631 5.083,2.017 1.555,1.722 1.597,4.956 1.597,9.073 C 1.597,-4.537 1.555,-1.723 0,0 m 3.108,-21.004 c -1.889,-1.89 -4.62,-2.814 -7.729,-2.814 l -10.502,0 0,29.909 10.502,0 c 3.109,0 5.84,-0.924 7.729,-2.815 3.235,-3.234 3.025,-7.603 3.025,-11.93 0,-4.326 0.21,-9.116 -3.025,-12.35"
         style="fill:#fcb514;fill-opacity:1;fill-rule:nonzero;stroke:none"
         id="path224"
         inkscape:connector-curvature="0" />
    </g>
    <g
       id="g226"
       transform="matrix(1.25,0,0,-1.25,521.41607,495.8265)">
      <path
         d="m 0,0 0,29.909 19.114,0 0,-4.075 -14.577,0 0,-8.737 12.435,0 0,-4.033 -12.435,0 0,-8.989 14.577,0 L 19.114,0 0,0 z"
         style="fill:#fcb514;fill-opacity:1;fill-rule:nonzero;stroke:none"
         id="path228"
         inkscape:connector-curvature="0" />
    </g>
    <g
       id="g230"
       transform="matrix(1.25,0,0,-1.25,210.10257,558.03475)">
      <path
         d="m 0,0 0,39.872 27.104,0 0,-8.736 -17.304,0 0,-6.664 14.784,0 0,-8.736 -14.784,0 0,-7 17.304,0 L 27.104,0 0,0 z"
         style="fill:#fcb514;fill-opacity:1;fill-rule:nonzero;stroke:none"
         id="path232"
         inkscape:connector-curvature="0" />
    </g>
    <g
       id="g234"
       transform="matrix(1.25,0,0,-1.25,254.39,558.03475)">
      <path
         d="m 0,0 0,39.872 9.8,0 0,-31.136 16.744,0 L 26.544,0 0,0 z"
         style="fill:#fcb514;fill-opacity:1;fill-rule:nonzero;stroke:none"
         id="path236"
         inkscape:connector-curvature="0" />
    </g>
    <g
       id="g238"
       transform="matrix(1.25,0,0,-1.25,297.9774,558.03475)">
      <path
         d="m 0,0 0,39.872 27.104,0 0,-8.736 -17.304,0 0,-6.664 14.784,0 0,-8.736 -14.784,0 0,-7 17.304,0 L 27.104,0 0,0 z"
         style="fill:#fcb514;fill-opacity:1;fill-rule:nonzero;stroke:none"
         id="path240"
         inkscape:connector-curvature="0" />
    </g>
    <g
       id="g246"
       transform="matrix(1.25,0,0,-1.25,366.76606,519.115)">
      <path
         d="m 0,0 0,-31.136 -9.801,0 0,31.136 -9.8,0 0,8.736 29.401,0 L 9.8,0 0,0 z"
         style="fill:#fcb514;fill-opacity:1;fill-rule:nonzero;stroke:none"
         id="path248"
         inkscape:connector-curvature="0" />
    </g>
    <g
       id="g250"
       transform="matrix(1.25,0,0,-1.25,408.60348,519.18462)">
      <path
         d="m 0,0 -5.544,0 0,-8.064 5.544,0 c 2.688,0 4.256,1.96 4.256,4.032 C 4.256,-1.96 2.688,0 0,0 m 4.815,-31.08 -7.055,14.84 -3.304,0 0,-14.84 -9.8,0 0,39.872 15.792,0 c 8.848,0 13.608,-6.272 13.608,-12.824 0,-5.432 -3.36,-8.848 -6.496,-10.416 l 8.624,-16.632 -11.369,0 z"
         style="fill:#fcb514;fill-opacity:1;fill-rule:nonzero;stroke:none"
         id="path252"
         inkscape:connector-curvature="0" />
    </g>
    <g
       id="g254"
       transform="matrix(1.25,0,0,-1.25,463.11204,520.86487)">
      <path
         d="m 0,0 c -0.728,0.952 -2.128,1.736 -3.92,1.736 -1.792,0 -3.192,-0.784 -3.92,-1.736 -0.896,-1.176 -1.456,-2.52 -1.456,-9.8 0,-7.28 0.56,-8.568 1.456,-9.744 0.728,-0.952 2.128,-1.792 3.92,-1.792 1.792,0 3.192,0.84 3.92,1.792 0.896,1.176 1.456,2.464 1.456,9.744 0,7.28 -0.56,8.624 -1.456,9.8 m 7.224,-25.592 c -2.912,-2.912 -6.272,-4.48 -11.144,-4.48 -4.872,0 -8.232,1.568 -11.143,4.48 -4.201,4.2 -4.033,9.8 -4.033,15.792 0,5.992 -0.168,11.592 4.033,15.792 2.911,2.912 6.271,4.48 11.143,4.48 4.872,0 8.232,-1.568 11.144,-4.48 4.2,-4.2 4.032,-9.8 4.032,-15.792 0,-5.992 0.168,-11.592 -4.032,-15.792"
         style="fill:#fcb514;fill-opacity:1;fill-rule:nonzero;stroke:none"
         id="path256"
         inkscape:connector-curvature="0" />
    </g>
    <g
       id="g258"
       transform="matrix(1.25,0,0,-1.25,512.09184,519.115)">
      <path
         d="m 0,0 0,-31.136 -9.801,0 0,31.136 -9.8,0 0,8.736 29.401,0 L 9.8,0 0,0 z"
         style="fill:#fcb514;fill-opacity:1;fill-rule:nonzero;stroke:none"
         id="path260"
         inkscape:connector-curvature="0" />
    </g>
    <g
       id="g262"
       transform="matrix(1.25,0,0,-1.25,534.74925,558.03475)">
      <path
         d="m 0,0 0,39.872 27.104,0 0,-8.736 -17.304,0 0,-6.664 14.784,0 0,-8.736 -14.784,0 0,-7 17.304,0 L 27.104,0 0,0 z"
         style="fill:#fcb514;fill-opacity:1;fill-rule:nonzero;stroke:none"
         id="path264"
         inkscape:connector-curvature="0" />
    </g>
    <g
       id="g266"
       transform="matrix(1.25,0,0,-1.25,597.93782,558.45463)">
      <path
         d="m 0,0 c -4.648,0 -8.177,1.568 -11.088,4.48 -4.2,4.2 -4.032,9.8 -4.032,15.792 0,5.992 -0.168,11.592 4.032,15.792 2.911,2.912 6.44,4.48 11.088,4.48 7.56,0 13.664,-4.2 15.119,-12.992 l -9.968,0 c -0.615,2.24 -1.847,4.256 -5.095,4.256 -1.792,0 -3.136,-0.728 -3.865,-1.68 -0.895,-1.176 -1.511,-2.576 -1.511,-9.856 0,-7.28 0.616,-8.68 1.511,-9.856 0.729,-0.952 2.073,-1.68 3.865,-1.68 3.248,0 4.48,2.016 5.095,4.256 l 9.968,0 C 13.664,4.2 7.56,0 0,0"
         style="fill:#fcb514;fill-opacity:1;fill-rule:nonzero;stroke:none"
         id="path268"
         inkscape:connector-curvature="0" />
    </g>
    <g
       id="g270"
       transform="matrix(1.25,0,0,-1.25,655.45275,558.03475)">
      <path
         d="m 0,0 -12.768,20.048 0,-20.048 -9.799,0 0,39.872 8.567,0 12.769,-20.048 0,20.048 9.799,0 L 8.568,0 0,0 z"
         style="fill:#fcb514;fill-opacity:1;fill-rule:nonzero;stroke:none"
         id="path272"
         inkscape:connector-curvature="0" />
    </g>
    <path
       d="m 676.57017,508.19475 12.25,0 0,49.84 -12.25,0 0,-49.84 z"
       style="fill:#fcb514;fill-opacity:1;fill-rule:nonzero;stroke:none"
       id="path274"
       inkscape:connector-curvature="0" />
    <g
       id="g276"
       transform="matrix(1.25,0,0,-1.25,722.39758,527.09475)">
      <path
         d="m 0,0 -3.584,-10.64 6.943,0 L 0,0 z m 7.784,-24.752 -1.848,5.936 -12.264,0 -1.96,-5.936 -10.248,0 14.504,39.872 7.559,0 14.504,-39.872 -10.247,0 z"
         style="fill:#fcb514;fill-opacity:1;fill-rule:nonzero;stroke:none"
         id="path278"
         inkscape:connector-curvature="0" />
    </g>
    <g
       id="g280"
       transform="matrix(1.25,0,0,-1.25,211.50769,582.60437)">
      <path
         d="m 0,0 0,-7.548 8.988,0 0,-1.959 -8.988,0 0,-9.046 -2.189,0 0,20.512 12.732,0 L 10.543,0 0,0 z"
         style="fill:#fcb514;fill-opacity:1;fill-rule:nonzero;stroke:none"
         id="path282"
         inkscape:connector-curvature="0" />
    </g>
    <g
       id="g284"
       transform="matrix(1.25,0,0,-1.25,229.64969,605.79537)">
      <path
         d="m 0,0 0,20.512 12.734,0 0,-1.959 -10.545,0 0,-7.231 8.989,0 0,-1.959 -8.989,0 0,-7.404 10.545,0 L 12.734,0 0,0 z"
         style="fill:#fcb514;fill-opacity:1;fill-rule:nonzero;stroke:none"
         id="path286"
         inkscape:connector-curvature="0" />
    </g>
    <g
       id="g288"
       transform="matrix(1.25,0,0,-1.25,259.82307,606.01138)">
      <path
         d="m 0,0 c -4.148,0 -7.145,2.852 -7.145,6.943 l 0,13.742 2.19,0 0,-13.569 c 0,-3.112 1.959,-5.157 4.955,-5.157 2.996,0 4.983,2.045 4.983,5.157 l 0,13.569 2.19,0 0,-13.742 C 7.173,2.852 4.148,0 0,0"
         style="fill:#fcb514;fill-opacity:1;fill-rule:nonzero;stroke:none"
         id="path290"
         inkscape:connector-curvature="0" />
    </g>
    <g
       id="g292"
       transform="matrix(1.25,0,0,-1.25,285.13307,582.60437)">
      <path
         d="m 0,0 -5.244,0 0,-8.153 5.244,0 c 2.563,0 4.35,1.383 4.35,4.091 C 4.35,-1.354 2.563,0 0,0 m 0.201,-10.112 -5.445,0 0,-8.441 -2.19,0 0,20.512 7.635,0 c 3.745,0 6.338,-2.334 6.338,-6.021 0,-3.688 -2.593,-6.05 -6.338,-6.05"
         style="fill:#fcb514;fill-opacity:1;fill-rule:nonzero;stroke:none"
         id="path294"
         inkscape:connector-curvature="0" />
    </g>
  </g>
</svg>
