<?xml version="1.0" encoding="utf-8"?>
<!-- Generator: Adobe Illustrator 16.0.0, SVG Export Plug-In . SVG Version: 6.00 Build 0)  -->
<!DOCTYPE svg PUBLIC "-//W3C//DTD SVG 1.1//EN" "http://www.w3.org/Graphics/SVG/1.1/DTD/svg11.dtd">
<svg version="1.1" xmlns="http://www.w3.org/2000/svg" xmlns:xlink="http://www.w3.org/1999/xlink" x="0px" y="0px" width="349.2px"
	 height="121.332px" viewBox="0 0 349.2 121.332" enable-background="new 0 0 349.2 121.332" xml:space="preserve">
<g id="IEEE_Master_Brand">
	<polygon fill="#fcb514" points="116.043,90.117 116.043,15.249 136.782,15.249 136.782,90.117 116.043,90.117 	"/>
	<polygon fill="#fcb514" points="147.666,90.117 147.666,15.249 204.695,15.249 204.695,29.764 168.403,29.764 168.403,45.213 
		201.791,45.213 201.791,59.731 168.403,59.731 168.403,75.594 204.695,75.594 204.695,90.117 147.666,90.117 	"/>
	<polygon fill="#fcb514" points="216.316,90.117 216.316,15.249 273.331,15.249 273.331,29.764 237.049,29.764 237.049,45.213 
		270.424,45.213 270.424,59.731 237.049,59.731 237.049,75.594 273.331,75.594 273.331,90.117 216.316,90.117 	"/>
	<polygon fill="#fcb514" points="284.943,90.117 284.943,15.249 341.975,15.249 341.975,29.764 305.695,29.764 305.695,45.213 
		339.072,45.213 339.072,59.731 305.695,59.731 305.695,75.594 341.975,75.594 341.975,90.117 284.943,90.117 	"/>
	<rect x="3" y="2.177" fill="none" width="338.975" height="98.818"/>
	<path fill="#fcb514" d="M49.53,16.091c3.306-2.573,7.465-0.437,10.248,1.93c2.913,2.227,5.947,4.75,8.61,7.329l0.484,0.277
		c7.375,6.842,14.224,14.447,19.851,22.488c0.913,1.398,1.718,2.983,1.209,4.841c-1.877,4.69-5.689,8.43-9.024,12.525
		C73.697,73.245,66.09,80.757,57.572,86.75c-1.724,1.218-4.047,2.344-6.111,1.375c-6.27-3.281-11.556-8.656-17.042-13.554
		C28.055,68.669,21.667,61.8,16.844,54.613c-0.716-1.009-0.918-2.252-0.897-3.583c0.62-2.482,2.319-4.523,3.928-6.615
		c5.699-7.263,12.68-14.152,19.729-20.445c0.163-0.162,0.464-0.504,0.718-0.669C43.351,20.686,46.359,18.367,49.53,16.091
		L49.53,16.091z M59.221,8.533l-3.743-5.304C55.02,2.948,54.447,2.487,53.94,2.35c-1.104-0.478-2.295,0.1-3.195,0.784l-6.774,8.822
		C33.105,25.414,20.243,37.981,6.208,47.613c-1.109,0.867-2.759,1.712-3.102,3.142C2.737,52.04,3.407,53.1,4.204,53.899
		c11.238,7.741,21.983,16.93,31.545,27.41c1.698,1.785,3.074,3.557,4.734,5.231c2.797,3.723,6.084,7.474,8.655,11.467
		c0.806,0.844,0.944,2.229,2.205,2.64c0.987,0.342,2.206,0.573,3.147,0l0.937-0.94C67.056,83.233,81.802,68.44,98.278,56.497
		c1.65-1.473,4.798-2.021,4.844-4.755c-0.117-1.261-0.851-2.503-1.934-3.193l-0.271-0.043c-8.479-5.768-16.378-12.291-23.821-19.69
		l-8.225-8.592C65.54,16.528,62.302,12.437,59.221,8.533L59.221,8.533z M50.745,18.116c3.381-2.303,6.413,0.916,9.033,2.756
		c10.127,8.151,19.683,17.481,26.964,28.017c0.919,1.36,1.333,3.472,0.51,5.01c-1.888,3.149-4.435,6.023-6.849,8.941V63
		c-6.021,6.409-12.379,12.998-19.251,18.425c-3.353,2.041-6.431,6.497-10.75,3.737c-9.834-7.187-19.246-16.122-27.224-25.706
		c-1.352-2.107-3.464-3.833-4.405-6.223c-1.313-3.235,1.582-5.558,3.238-7.994C30.146,35.206,40.248,25.368,50.745,18.116
		L50.745,18.116z M52.88,24.728l-0.917,2.941L47.369,40.83c1.15,0.117,2.576,0,3.706,0.117v0.108l-0.672,14.887l0.116,0.157
		c1.47,0.143,3.305,0.218,4.803-0.039v-0.235l-0.599-14.439l0.09-0.488l4.042-0.069c-2.017-5.327-3.972-10.708-5.855-16.102H52.88
		L52.88,24.728z M37.242,45.35c-2.576,1.292-6.368,3.244-5.951,6.779c0.552,1.93,2.642,3.176,4.295,3.971
		c9.141,4.026,21.274,4.164,30.924,1.158c2.382-0.918,5.579-2.25,6.017-5.168c-0.026-2.412-2.577-3.93-4.412-4.854v-0.114
		c0.639-0.253,1.375-0.48,2.037-0.55v-0.065c-3.233-0.579-6.353-1.424-9.483-2.252c0.603,1.374,1.038,2.822,1.541,4.25
		c0.94-0.3,1.905-0.529,2.92-0.667c1.651,0.642,4.015,1.562,4.249,3.626c0.184,1.929-1.929,2.87-3.263,3.654
		c-7.078,2.575-15.041,2.826-22.423,0.868c-2.038-0.643-4.981-1.467-5.235-4.063c1.448-3.418,5.191-4.129,8.317-4.959
		c-1.606-1.035-3.24-1.952-4.798-3.103C40.295,43.954,38.758,44.689,37.242,45.35L37.242,45.35z M50.31,60.194
		c-0.274,5.287-0.342,10.18-0.732,15.48c2.092,0.19,4.453,0.373,6.684,0.047l-0.666-14.774l-0.118-0.703
		C53.779,60.311,52.171,60.38,50.31,60.194L50.31,60.194z"/>
	<g>
		<path fill-rule="evenodd" clip-rule="evenodd" fill="#fcb514" d="M69.822,90.431c-1.85,0-3.494,1.28-3.494,3.475
			c0,2.2,1.644,3.485,3.494,3.485c1.836,0,3.484-1.285,3.484-3.485C73.306,91.711,71.659,90.431,69.822,90.431z M69.822,96.587
			v-0.012c-1.38,0.012-2.492-1.062-2.492-2.669c0-1.6,1.112-2.664,2.492-2.664c1.346,0,2.493,1.064,2.493,2.664
			C72.315,95.514,71.168,96.587,69.822,96.587z M71.378,93.164c0-0.857-0.566-1.128-1.536-1.128h-1.4v3.745h0.801v-1.574h0.38
			l0.862,1.574h0.955l-0.967-1.644C70.98,94.096,71.378,93.851,71.378,93.164z M69.957,93.569h-0.713v-0.904h0.564
			c0.306,0,0.721,0.03,0.721,0.42C70.528,93.495,70.316,93.569,69.957,93.569z"/>
	</g>
	<rect x="116.043" y="100.995" fill="none" width="275.339" height="28.014"/>
	<text transform="matrix(1 0 0 1 116.0439 113.873)" fill="#fcb514" font-family="'Verdana'" font-size="16.9439">Núcleo Universitário FEUP</text>
</g>
<g id="Layer_2">
</g>
</svg>
